<?xml version="1.0" encoding="UTF-8" standalone="no"?>
<!-- Created with Inkscape (http://www.inkscape.org/) -->

<svg
   xmlns:dc="http://purl.org/dc/elements/1.1/"
   xmlns:cc="http://creativecommons.org/ns#"
   xmlns:rdf="http://www.w3.org/1999/02/22-rdf-syntax-ns#"
   xmlns:svg="http://www.w3.org/2000/svg"
   xmlns="http://www.w3.org/2000/svg"
   xmlns:sodipodi="http://sodipodi.sourceforge.net/DTD/sodipodi-0.dtd"
   xmlns:inkscape="http://www.inkscape.org/namespaces/inkscape"
   width="900"
   height="900"
   id="svg2"
   version="1.1"
   inkscape:version="0.48.5 r10040"
   sodipodi:docname="background.svg"
   inkscape:export-filename="/Users/darabos/Documents/fragmented-space/images/background.png"
   inkscape:export-xdpi="90"
   inkscape:export-ydpi="90">
  <defs
     id="defs4">
    <inkscape:path-effect
       effect="spiro"
       id="path-effect3142"
       is_visible="true" />
  </defs>
  <sodipodi:namedview
     id="base"
     pagecolor="#ffffff"
     bordercolor="#666666"
     borderopacity="1.0"
     inkscape:pageopacity="0.0"
     inkscape:pageshadow="2"
     inkscape:zoom="0.66"
     inkscape:cx="340.6851"
     inkscape:cy="419.86148"
     inkscape:document-units="px"
     inkscape:current-layer="layer1"
     showgrid="false"
     fit-margin-top="0"
     fit-margin-left="0"
     fit-margin-right="0"
     fit-margin-bottom="0"
     inkscape:window-width="1347"
     inkscape:window-height="718"
     inkscape:window-x="4"
     inkscape:window-y="0"
     inkscape:window-maximized="0" />
  <metadata
     id="metadata7">
    <rdf:RDF>
      <cc:Work
         rdf:about="">
        <dc:format>image/svg+xml</dc:format>
        <dc:type
           rdf:resource="http://purl.org/dc/dcmitype/StillImage" />
        <dc:title></dc:title>
      </cc:Work>
    </rdf:RDF>
  </metadata>
  <g
     inkscape:label="Layer 1"
     inkscape:groupmode="layer"
     id="layer1"
     transform="translate(31.56605,-272.17841)">
    <rect
       style="fill:#ffffff;fill-opacity:1;fill-rule:evenodd;stroke:none"
       id="rect3947"
       width="900"
       height="900"
       x="-31.56605"
       y="272.17844" />
    <g
       id="g3921"
       transform="translate(-6,-10)">
      <path
         inkscape:transform-center-y="-17.93269"
         inkscape:transform-center-x="25.899094"
         transform="matrix(1.3990319,0.28029897,-0.28163473,1.405699,-51.684079,183.49264)"
         d="m 622.53521,502.81688 c -7.88305,8.9453 -72.0403,-51.5962 -80.76217,-43.46665 -8.72188,8.12955 47.16552,76.37928 37.6888,83.61479 -9.47671,7.23551 -60.59014,-64.65916 -70.73042,-58.38737 -10.14029,6.27179 31.35839,84.1132 20.65219,89.36087 -10.7062,5.24767 -46.81155,-75.2373 -57.98055,-71.0643 -11.16901,4.17301 14.34618,88.61472 2.82192,91.67287 -11.52425,3.05816 -31.234,-82.92411 -43.00251,-81.01025 -11.76852,1.91385 -3.21736,89.7108 -15.11679,90.46193 -11.89944,0.75112 -14.45616,-87.42421 -26.37192,-87.84305 -11.91576,-0.41883 -20.65724,87.35937 -32.47457,85.7746 -11.81732,-1.58477 2.87723,-88.56463 -8.72786,-91.30007 -11.60509,-2.73544 -37.30328,81.65075 -48.58437,77.79098 -11.28109,-3.85977 20.10005,-86.30157 9.2516,-91.24849 -10.84844,-4.94692 -52.51578,72.80435 -62.8271,66.81791 -10.31132,-5.98643 36.55043,-80.72198 26.87553,-87.69027 -9.6749,-6.96829 -65.71013,61.16011 -74.65543,53.27706 -8.94529,-7.88304 51.5962,-72.04029 43.46665,-80.76217 -8.12955,-8.72188 -76.37927,47.16552 -83.61478,37.68881 -7.23551,-9.47672 64.65916,-60.59014 58.38737,-70.73043 -6.27179,-10.14028 -84.1132,31.35839 -89.36087,20.65219 -5.24767,-10.7062 75.2373,-46.81154 71.06429,-57.98055 -4.173,-11.16901 -88.61471,14.34618 -91.67287,2.82193 -3.05816,-11.52425 82.92412,-31.234 81.01026,-43.00252 -1.91386,-11.76851 -89.710803,-3.21735 -90.46193,-15.11678 -0.751127,-11.89944 87.4242,-14.45616 87.84304,-26.37192 0.41884,-11.91576 -87.359359,-20.65724 -85.774589,-32.47457 1.584769,-11.81733 88.564629,2.87723 91.300069,-8.72786 2.73544,-11.60509 -81.65075,-37.30328 -77.79098,-48.58437 3.85976,-11.28109 86.30156,20.10004 91.24848,9.2516 4.94692,-10.84844 -72.80434,-52.51578 -66.81791,-62.8271 5.98643,-10.31133 80.72198,36.55043 87.69028,26.87553 6.96829,-9.6749 -61.16011,-65.71013 -53.27707,-74.65543 7.88305,-8.945298 72.0403,51.5962 80.76218,43.46665 8.72187,-8.12955 -47.16553,-76.379272 -37.68881,-83.614783 9.47671,-7.235511 60.59014,64.659163 70.73043,58.387373 10.14028,-6.27179 -31.3584,-84.113207 -20.6522,-89.360875 10.7062,-5.247668 46.81155,75.237305 57.98055,71.064295 11.16901,-4.17301 -14.34617,-88.614712 -2.82192,-91.672871 11.52425,-3.058159 31.234,82.924117 43.00251,81.010259 11.76852,-1.913859 3.21736,-89.7108049 15.11679,-90.461932 11.89944,-0.7511271 14.45616,87.424205 26.37192,87.843043 11.91576,0.418839 20.65724,-87.359362 32.47457,-85.7745918 11.81733,1.5847702 -2.87723,88.5646298 8.72786,91.3000698 11.60509,2.735443 37.30328,-81.650749 48.58437,-77.790983 11.28109,3.859765 -20.10005,86.301566 -9.2516,91.248486 10.84844,4.94692 52.51578,-72.804344 62.8271,-66.817911 10.31132,5.986432 -36.55043,80.721981 -26.87553,87.690271 9.6749,6.96829 65.71013,-61.160105 74.65543,-53.277061 8.9453,7.883044 -51.5962,72.040291 -43.46665,80.762171 8.12955,8.72188 76.37927,-47.16552 83.61478,-37.68881 7.23551,9.47672 -64.65916,60.59015 -58.38737,70.73043 6.27179,10.14029 84.1132,-31.35839 89.36087,-20.65219 5.24767,10.7062 -75.2373,46.81154 -71.06429,57.98055 4.17301,11.16901 88.61471,-14.34618 91.67287,-2.82192 3.05816,11.52425 -82.92412,31.234 -81.01026,43.00251 1.91386,11.76851 89.7108,3.21735 90.46193,15.11679 0.75113,11.89943 -87.4242,14.45616 -87.84304,26.37191 -0.41884,11.91576 87.35936,20.65725 85.77459,32.47457 -1.58477,11.81733 -88.56463,-2.87723 -91.30007,8.72786 -2.73544,11.60509 81.65075,37.30329 77.79098,48.58438 -3.85976,11.28108 -86.30156,-20.10005 -91.24848,-9.25161 -4.94692,10.84845 72.80434,52.51579 66.81791,62.82711 -5.98643,10.31132 -80.72198,-36.55043 -87.69027,-26.87553 -6.9683,9.67489 61.1601,65.71013 53.27706,74.65542 z"
         inkscape:randomized="0"
         inkscape:rounded="0.13"
         inkscape:flatsided="false"
         sodipodi:arg2="0.82053365"
         sodipodi:arg1="0.72235888"
         sodipodi:r2="212.06126"
         sodipodi:r1="300.37006"
         sodipodi:cy="304.22534"
         sodipodi:cx="397.18311"
         sodipodi:sides="32"
         id="path3917"
         style="fill:#ececec;fill-opacity:1;fill-rule:evenodd;stroke:none"
         sodipodi:type="star" />
      <path
         sodipodi:type="star"
         style="fill:#f2f2f2;fill-opacity:1;fill-rule:evenodd;stroke:none"
         id="path3915"
         sodipodi:sides="32"
         sodipodi:cx="397.18311"
         sodipodi:cy="304.22534"
         sodipodi:r1="300.37006"
         sodipodi:r2="212.06126"
         sodipodi:arg1="0.72235888"
         sodipodi:arg2="0.82053365"
         inkscape:flatsided="false"
         inkscape:rounded="0.13"
         inkscape:randomized="0"
         d="m 622.53521,502.81688 c -7.88305,8.9453 -72.0403,-51.5962 -80.76217,-43.46665 -8.72188,8.12955 47.16552,76.37928 37.6888,83.61479 -9.47671,7.23551 -60.59014,-64.65916 -70.73042,-58.38737 -10.14029,6.27179 31.35839,84.1132 20.65219,89.36087 -10.7062,5.24767 -46.81155,-75.2373 -57.98055,-71.0643 -11.16901,4.17301 14.34618,88.61472 2.82192,91.67287 -11.52425,3.05816 -31.234,-82.92411 -43.00251,-81.01025 -11.76852,1.91385 -3.21736,89.7108 -15.11679,90.46193 -11.89944,0.75112 -14.45616,-87.42421 -26.37192,-87.84305 -11.91576,-0.41883 -20.65724,87.35937 -32.47457,85.7746 -11.81732,-1.58477 2.87723,-88.56463 -8.72786,-91.30007 -11.60509,-2.73544 -37.30328,81.65075 -48.58437,77.79098 -11.28109,-3.85977 20.10005,-86.30157 9.2516,-91.24849 -10.84844,-4.94692 -52.51578,72.80435 -62.8271,66.81791 -10.31132,-5.98643 36.55043,-80.72198 26.87553,-87.69027 -9.6749,-6.96829 -65.71013,61.16011 -74.65543,53.27706 -8.94529,-7.88304 51.5962,-72.04029 43.46665,-80.76217 -8.12955,-8.72188 -76.37927,47.16552 -83.61478,37.68881 -7.23551,-9.47672 64.65916,-60.59014 58.38737,-70.73043 -6.27179,-10.14028 -84.1132,31.35839 -89.36087,20.65219 -5.24767,-10.7062 75.2373,-46.81154 71.06429,-57.98055 -4.173,-11.16901 -88.61471,14.34618 -91.67287,2.82193 -3.05816,-11.52425 82.92412,-31.234 81.01026,-43.00252 -1.91386,-11.76851 -89.710803,-3.21735 -90.46193,-15.11678 -0.751127,-11.89944 87.4242,-14.45616 87.84304,-26.37192 0.41884,-11.91576 -87.359359,-20.65724 -85.774589,-32.47457 1.584769,-11.81733 88.564629,2.87723 91.300069,-8.72786 2.73544,-11.60509 -81.65075,-37.30328 -77.79098,-48.58437 3.85976,-11.28109 86.30156,20.10004 91.24848,9.2516 4.94692,-10.84844 -72.80434,-52.51578 -66.81791,-62.8271 5.98643,-10.31133 80.72198,36.55043 87.69028,26.87553 6.96829,-9.6749 -61.16011,-65.71013 -53.27707,-74.65543 7.88305,-8.945298 72.0403,51.5962 80.76218,43.46665 8.72187,-8.12955 -47.16553,-76.379272 -37.68881,-83.614783 9.47671,-7.235511 60.59014,64.659163 70.73043,58.387373 10.14028,-6.27179 -31.3584,-84.113207 -20.6522,-89.360875 10.7062,-5.247668 46.81155,75.237305 57.98055,71.064295 11.16901,-4.17301 -14.34617,-88.614712 -2.82192,-91.672871 11.52425,-3.058159 31.234,82.924117 43.00251,81.010259 11.76852,-1.913859 3.21736,-89.7108049 15.11679,-90.461932 11.89944,-0.7511271 14.45616,87.424205 26.37192,87.843043 11.91576,0.418839 20.65724,-87.359362 32.47457,-85.7745918 11.81733,1.5847702 -2.87723,88.5646298 8.72786,91.3000698 11.60509,2.735443 37.30328,-81.650749 48.58437,-77.790983 11.28109,3.859765 -20.10005,86.301566 -9.2516,91.248486 10.84844,4.94692 52.51578,-72.804344 62.8271,-66.817911 10.31132,5.986432 -36.55043,80.721981 -26.87553,87.690271 9.6749,6.96829 65.71013,-61.160105 74.65543,-53.277061 8.9453,7.883044 -51.5962,72.040291 -43.46665,80.762171 8.12955,8.72188 76.37927,-47.16552 83.61478,-37.68881 7.23551,9.47672 -64.65916,60.59015 -58.38737,70.73043 6.27179,10.14029 84.1132,-31.35839 89.36087,-20.65219 5.24767,10.7062 -75.2373,46.81154 -71.06429,57.98055 4.17301,11.16901 88.61471,-14.34618 91.67287,-2.82192 3.05816,11.52425 -82.92412,31.234 -81.01026,43.00251 1.91386,11.76851 89.7108,3.21735 90.46193,15.11679 0.75113,11.89943 -87.4242,14.45616 -87.84304,26.37191 -0.41884,11.91576 87.35936,20.65725 85.77459,32.47457 -1.58477,11.81733 -88.56463,-2.87723 -91.30007,8.72786 -2.73544,11.60509 81.65075,37.30329 77.79098,48.58438 -3.85976,11.28108 -86.30156,-20.10005 -91.24848,-9.25161 -4.94692,10.84845 72.80434,52.51579 66.81791,62.82711 -5.98643,10.31132 -80.72198,-36.55043 -87.69027,-26.87553 -6.9683,9.67489 61.1601,65.71013 53.27706,74.65542 z"
         transform="matrix(1.1387927,0.10659675,-0.10710473,1.1442196,2.3350771,337.83227)"
         inkscape:transform-center-x="22.146103"
         inkscape:transform-center-y="-12.133307" />
      <path
         inkscape:transform-center-y="-8.6340123"
         inkscape:transform-center-x="19.98107"
         transform="matrix(0.98590507,0,0,0.99060338,32.640521,430.40394)"
         d="m 622.53521,502.81688 c -7.88305,8.9453 -72.0403,-51.5962 -80.76217,-43.46665 -8.72188,8.12955 47.16552,76.37928 37.6888,83.61479 -9.47671,7.23551 -60.59014,-64.65916 -70.73042,-58.38737 -10.14029,6.27179 31.35839,84.1132 20.65219,89.36087 -10.7062,5.24767 -46.81155,-75.2373 -57.98055,-71.0643 -11.16901,4.17301 14.34618,88.61472 2.82192,91.67287 -11.52425,3.05816 -31.234,-82.92411 -43.00251,-81.01025 -11.76852,1.91385 -3.21736,89.7108 -15.11679,90.46193 -11.89944,0.75112 -14.45616,-87.42421 -26.37192,-87.84305 -11.91576,-0.41883 -20.65724,87.35937 -32.47457,85.7746 -11.81732,-1.58477 2.87723,-88.56463 -8.72786,-91.30007 -11.60509,-2.73544 -37.30328,81.65075 -48.58437,77.79098 -11.28109,-3.85977 20.10005,-86.30157 9.2516,-91.24849 -10.84844,-4.94692 -52.51578,72.80435 -62.8271,66.81791 -10.31132,-5.98643 36.55043,-80.72198 26.87553,-87.69027 -9.6749,-6.96829 -65.71013,61.16011 -74.65543,53.27706 -8.94529,-7.88304 51.5962,-72.04029 43.46665,-80.76217 -8.12955,-8.72188 -76.37927,47.16552 -83.61478,37.68881 -7.23551,-9.47672 64.65916,-60.59014 58.38737,-70.73043 -6.27179,-10.14028 -84.1132,31.35839 -89.36087,20.65219 -5.24767,-10.7062 75.2373,-46.81154 71.06429,-57.98055 -4.173,-11.16901 -88.61471,14.34618 -91.67287,2.82193 -3.05816,-11.52425 82.92412,-31.234 81.01026,-43.00252 -1.91386,-11.76851 -89.710803,-3.21735 -90.46193,-15.11678 -0.751127,-11.89944 87.4242,-14.45616 87.84304,-26.37192 0.41884,-11.91576 -87.359359,-20.65724 -85.774589,-32.47457 1.584769,-11.81733 88.564629,2.87723 91.300069,-8.72786 2.73544,-11.60509 -81.65075,-37.30328 -77.79098,-48.58437 3.85976,-11.28109 86.30156,20.10004 91.24848,9.2516 4.94692,-10.84844 -72.80434,-52.51578 -66.81791,-62.8271 5.98643,-10.31133 80.72198,36.55043 87.69028,26.87553 6.96829,-9.6749 -61.16011,-65.71013 -53.27707,-74.65543 7.88305,-8.945298 72.0403,51.5962 80.76218,43.46665 8.72187,-8.12955 -47.16553,-76.379272 -37.68881,-83.614783 9.47671,-7.235511 60.59014,64.659163 70.73043,58.387373 10.14028,-6.27179 -31.3584,-84.113207 -20.6522,-89.360875 10.7062,-5.247668 46.81155,75.237305 57.98055,71.064295 11.16901,-4.17301 -14.34617,-88.614712 -2.82192,-91.672871 11.52425,-3.058159 31.234,82.924117 43.00251,81.010259 11.76852,-1.913859 3.21736,-89.7108049 15.11679,-90.461932 11.89944,-0.7511271 14.45616,87.424205 26.37192,87.843043 11.91576,0.418839 20.65724,-87.359362 32.47457,-85.7745918 11.81733,1.5847702 -2.87723,88.5646298 8.72786,91.3000698 11.60509,2.735443 37.30328,-81.650749 48.58437,-77.790983 11.28109,3.859765 -20.10005,86.301566 -9.2516,91.248486 10.84844,4.94692 52.51578,-72.804344 62.8271,-66.817911 10.31132,5.986432 -36.55043,80.721981 -26.87553,87.690271 9.6749,6.96829 65.71013,-61.160105 74.65543,-53.277061 8.9453,7.883044 -51.5962,72.040291 -43.46665,80.762171 8.12955,8.72188 76.37927,-47.16552 83.61478,-37.68881 7.23551,9.47672 -64.65916,60.59015 -58.38737,70.73043 6.27179,10.14029 84.1132,-31.35839 89.36087,-20.65219 5.24767,10.7062 -75.2373,46.81154 -71.06429,57.98055 4.17301,11.16901 88.61471,-14.34618 91.67287,-2.82192 3.05816,11.52425 -82.92412,31.234 -81.01026,43.00251 1.91386,11.76851 89.7108,3.21735 90.46193,15.11679 0.75113,11.89943 -87.4242,14.45616 -87.84304,26.37191 -0.41884,11.91576 87.35936,20.65725 85.77459,32.47457 -1.58477,11.81733 -88.56463,-2.87723 -91.30007,8.72786 -2.73544,11.60509 81.65075,37.30329 77.79098,48.58438 -3.85976,11.28108 -86.30156,-20.10005 -91.24848,-9.25161 -4.94692,10.84845 72.80434,52.51579 66.81791,62.82711 -5.98643,10.31132 -80.72198,-36.55043 -87.69027,-26.87553 -6.9683,9.67489 61.1601,65.71013 53.27706,74.65542 z"
         inkscape:randomized="0"
         inkscape:rounded="0.13"
         inkscape:flatsided="false"
         sodipodi:arg2="0.82053365"
         sodipodi:arg1="0.72235888"
         sodipodi:r2="212.06126"
         sodipodi:r1="300.37006"
         sodipodi:cy="304.22534"
         sodipodi:cx="397.18311"
         sodipodi:sides="32"
         id="path3913"
         style="fill:#f9f9f9;fill-opacity:1;fill-rule:evenodd;stroke:none"
         sodipodi:type="star" />
    </g>
    <rect
       style="fill:#ffffff;fill-opacity:1;fill-rule:evenodd;stroke:none"
       id="rect3919"
       width="320"
       height="320"
       x="258.43396"
       y="562.17841"
       rx="20"
       ry="20" />
  </g>
</svg>
