<?xml version="1.0" encoding="UTF-8" standalone="no"?>
<!-- Created with Inkscape (http://www.inkscape.org/) -->

<svg
   xmlns:dc="http://purl.org/dc/elements/1.1/"
   xmlns:cc="http://creativecommons.org/ns#"
   xmlns:rdf="http://www.w3.org/1999/02/22-rdf-syntax-ns#"
   xmlns:svg="http://www.w3.org/2000/svg"
   xmlns="http://www.w3.org/2000/svg"
   xmlns:sodipodi="http://sodipodi.sourceforge.net/DTD/sodipodi-0.dtd"
   xmlns:inkscape="http://www.inkscape.org/namespaces/inkscape"
   width="512"
   height="512"
   id="svg2"
   version="1.1"
   inkscape:version="0.48.5 r10040"
   sodipodi:docname="block.svg"
   inkscape:export-filename="/Users/darabos/Documents/fragmented-space/images/block.png"
   inkscape:export-xdpi="5.6199999"
   inkscape:export-ydpi="5.6199999">
  <defs
     id="defs4">
    <inkscape:path-effect
       effect="spiro"
       id="path-effect4779"
       is_visible="true" />
    <inkscape:path-effect
       effect="spiro"
       id="path-effect4775"
       is_visible="true" />
    <inkscape:path-effect
       is_visible="true"
       id="path-effect4769"
       effect="spiro" />
    <inkscape:path-effect
       effect="spiro"
       id="path-effect4764"
       is_visible="true" />
    <inkscape:path-effect
       effect="spiro"
       id="path-effect4718"
       is_visible="true" />
    <inkscape:path-effect
       effect="spiro"
       id="path-effect4714"
       is_visible="true" />
    <inkscape:path-effect
       effect="spiro"
       id="path-effect4198"
       is_visible="true" />
    <inkscape:path-effect
       effect="spiro"
       id="path-effect4194"
       is_visible="true" />
    <inkscape:path-effect
       is_visible="true"
       id="path-effect4190"
       effect="spiro" />
    <inkscape:path-effect
       is_visible="true"
       id="path-effect3855"
       effect="spiro" />
    <inkscape:path-effect
       effect="spiro"
       id="path-effect3847"
       is_visible="true" />
    <inkscape:path-effect
       is_visible="true"
       id="path-effect3843"
       effect="spiro" />
    <inkscape:path-effect
       is_visible="true"
       id="path-effect3841"
       effect="spiro" />
    <inkscape:path-effect
       is_visible="true"
       id="path-effect3839"
       effect="spiro" />
    <inkscape:path-effect
       effect="spiro"
       id="path-effect3834"
       is_visible="true" />
    <inkscape:path-effect
       effect="spiro"
       id="path-effect3830"
       is_visible="true" />
    <inkscape:path-effect
       effect="spiro"
       id="path-effect3821"
       is_visible="true" />
    <inkscape:path-effect
       effect="spiro"
       id="path-effect3813"
       is_visible="true" />
    <inkscape:path-effect
       is_visible="true"
       id="path-effect3809"
       effect="spiro" />
    <inkscape:path-effect
       effect="spiro"
       id="path-effect3023"
       is_visible="true" />
    <inkscape:path-effect
       effect="spiro"
       id="path-effect3019"
       is_visible="true" />
    <inkscape:path-effect
       effect="spiro"
       id="path-effect3015"
       is_visible="true" />
    <inkscape:path-effect
       effect="spiro"
       id="path-effect2999"
       is_visible="true" />
    <inkscape:path-effect
       effect="spiro"
       id="path-effect2995"
       is_visible="true" />
    <inkscape:path-effect
       effect="spiro"
       id="path-effect2991"
       is_visible="true" />
    <inkscape:path-effect
       effect="spiro"
       id="path-effect2987"
       is_visible="true" />
  </defs>
  <sodipodi:namedview
     id="base"
     pagecolor="#ffffff"
     bordercolor="#666666"
     borderopacity="1.0"
     inkscape:pageopacity="0.0"
     inkscape:pageshadow="2"
     inkscape:zoom="0.93"
     inkscape:cx="249.07849"
     inkscape:cy="249.66622"
     inkscape:document-units="px"
     inkscape:current-layer="layer1"
     showgrid="false"
     fit-margin-top="0"
     fit-margin-left="0"
     fit-margin-right="0"
     fit-margin-bottom="0"
     inkscape:window-width="1249"
     inkscape:window-height="718"
     inkscape:window-x="4"
     inkscape:window-y="0"
     inkscape:window-maximized="0" />
  <metadata
     id="metadata7">
    <rdf:RDF>
      <cc:Work
         rdf:about="">
        <dc:format>image/svg+xml</dc:format>
        <dc:type
           rdf:resource="http://purl.org/dc/dcmitype/StillImage" />
        <dc:title></dc:title>
      </cc:Work>
    </rdf:RDF>
  </metadata>
  <g
     inkscape:label="Layer 1"
     inkscape:groupmode="layer"
     id="layer1"
     transform="translate(-136.60863,-227.00786)">
    <path
       style="fill:#ffeeaa;stroke:#000000;stroke-width:30;stroke-linecap:butt;stroke-linejoin:miter;stroke-opacity:1;stroke-miterlimit:4;stroke-dasharray:none"
       inkscape:path-effect="#path-effect4764"
       inkscape:original-d="m 186.071,290.62076 c -10.65071,17.2464 -1.96319,40.49506 -3.33157,60.7189 -1.28934,19.0556 -4.35969,38.01515 -4.59628,57.11285 -0.23307,18.81356 1.55724,37.60908 3.1327,56.358 2.53706,30.19268 3.59288,60.75009 10.17149,90.32638 4.8517,21.81242 10.5629,43.99667 21.44313,63.51438 9.04705,16.22923 18.47869,35.59287 35.54612,42.93724 19.79792,8.51934 42.99497,-3.12792 64.51613,-4.30108 42.2691,-2.30416 84.60179,-3.28027 126.88172,-5.37634 19.39728,-0.96164 38.83807,-1.43995 58.16959,-3.30312 21.31517,-2.05436 45.34472,2.43163 63.65346,-8.67453 14.02417,-8.50712 21.89309,-25.12324 28.41981,-40.17151 8.31717,-19.17639 9.90727,-40.69798 12.62686,-61.42267 3.21869,-24.52817 6.50255,-49.44789 4.31757,-74.08966 -2.51551,-28.36947 -13.47418,-55.34618 -19.90179,-83.09218 -4.7108,-20.33509 -8.75543,-40.82388 -13.67799,-61.10875 -3.09017,-12.73393 -1.35868,-28.13744 -9.9516,-38.03006 -7.43889,-8.56403 -20.32588,-10.64841 -31.39323,-13.13705 -18.46981,-4.15318 -37.82645,-1.6485 -56.73282,-2.61402 -23.13429,-1.18144 -46.21992,-3.90654 -69.38435,-3.88996 -15.54802,0.0111 -31.03917,1.88828 -46.56714,2.67761 -14.40688,0.73234 -28.81873,1.37467 -43.23429,1.90966 -23.12019,0.85803 -46.4264,-0.8388 -69.37698,2.08528 -12.93613,1.64816 -25.99771,3.93621 -38.1499,8.66741 -8.07843,3.14517 -18.02555,5.52729 -22.58064,12.90322 z"
       id="path4762"
       d="m 186.071,290.62076 c -3.39866,3.98085 -5.58842,8.90599 -6.74368,14.01122 -1.15526,5.10524 -1.30869,10.39672 -0.94237,15.6182 0.73264,10.44296 3.51192,20.65481 4.35448,31.08948 1.53971,19.06859 -3.41993,38.0184 -4.59628,57.11285 -1.15829,18.80129 1.35851,37.6048 3.1327,56.358 2.85587,30.18656 3.81436,60.67893 10.17149,90.32638 4.69357,21.88921 12.29089,43.08392 21.44313,63.51438 3.89233,8.6888 8.10425,17.30994 13.79754,24.94092 5.69329,7.63098 12.983,14.28014 21.74858,17.99632 10.10399,4.2836 21.52803,4.42701 32.38608,2.83248 10.85806,-1.59452 21.39858,-4.83673 32.13005,-7.13356 41.47212,-8.87616 84.5138,-3.45752 126.88172,-5.37634 19.40514,-0.87885 38.74456,-3.30567 58.16959,-3.30312 10.86313,0.001 21.74067,0.76279 32.57936,0.0345 10.8387,-0.7283 21.80599,-3.04248 31.0741,-8.70903 7.13934,-4.36501 13.0324,-10.58988 17.65324,-17.56637 4.62085,-6.97648 8.01357,-14.70296 10.76657,-22.60514 6.8891,-19.77436 9.84588,-40.66813 12.62686,-61.42267 3.29227,-24.57032 6.39627,-49.38705 4.31757,-74.08966 -2.39317,-28.43962 -11.56726,-55.79612 -19.90179,-83.09218 -6.10711,-20.00114 -11.82466,-40.2783 -13.67799,-61.10875 -0.59135,-6.64653 -0.78916,-13.34728 -2.01709,-19.90611 -1.22794,-6.55883 -3.57282,-13.07402 -7.93451,-18.12395 -3.79593,-4.3949 -8.94954,-7.46869 -14.40299,-9.46472 -5.45345,-1.99604 -11.2256,-2.97008 -16.99024,-3.67233 -18.79928,-2.29014 -37.81255,-1.78862 -56.73282,-2.61402 -23.14785,-1.00983 -46.21479,-4.0096 -69.38435,-3.88996 -15.55123,0.0803 -31.05548,1.56597 -46.56714,2.67761 -14.39074,1.03131 -28.80762,1.74147 -43.23429,1.90966 -23.15097,0.2699 -46.41131,-0.85042 -69.37698,2.08528 -12.95485,1.65601 -25.73944,4.59913 -38.1499,8.66741 -8.34568,2.7358 -16.87803,6.22376 -22.58064,12.90322"
       inkscape:connector-curvature="0"
       sodipodi:nodetypes="aaaaaaaaaaaaaaaaaaaaaaaaa" />
    <path
       style="opacity:0.25;fill:#000080;stroke:none"
       inkscape:path-effect="#path-effect4769"
       inkscape:original-d="m 222.40795,644.47194 c 7.69676,13.15886 22.98205,22.42106 37.88877,25.61259 28.9805,6.20472 58.02936,-13.15025 87.59073,-15.27021 22.73507,-1.63042 45.56895,2.73913 68.35079,2.01137 30.20508,-0.96489 60.50206,-3.21927 90.26727,-8.44518 22.93644,-4.02698 49.60624,-2.81147 67.61477,-17.57593 14.26527,-11.69552 17.76145,-32.48729 24.15296,-49.79138 10.0902,-27.31779 21.37026,-55.40598 22.12178,-84.51799 0.4981,-19.29544 -7.42895,-37.88902 -11.75252,-56.70043 -10.97987,-47.77235 -19.85464,-96.29818 -36.01796,-142.57455 -2.86873,-8.21332 -2.12422,-22.66637 -10.7523,-23.78199 -5.82435,-0.7531 -8.89802,8.2366 -11.10292,13.67982 -9.27975,22.90894 -6.5747,49.14759 -6.51326,73.86458 0.0625,25.13808 4.81035,50.0463 6.99762,75.08912 3.1083,35.58803 18.63571,72.50087 8.70523,106.81639 -8.83684,30.53638 -28.51374,62.7645 -57.31234,76.22559 -23.06704,10.78203 -50.82586,-3.5859 -76.28594,-3.9399 -57.67664,-0.80195 -118.87908,-15.84334 -172.99766,4.11705 -12.47945,4.60276 -34.85253,18.51763 -30.95502,25.18105 z"
       id="path4767"
       d="m 222.40795,644.47194 c -0.29242,4.29491 1.00063,8.63315 3.34465,12.24388 2.34401,3.61072 5.70091,6.51034 9.47214,8.58628 7.54248,4.15187 16.46485,4.99278 25.07198,4.78243 29.6745,-0.7252 58.01031,-12.80018 87.59073,-15.27021 22.73246,-1.89821 45.53938,1.92507 68.35079,2.01137 30.23807,0.11439 60.10316,-6.32851 90.26727,-8.44518 11.86066,-0.83228 23.81195,-1.00033 35.50775,-3.13954 11.69581,-2.13921 23.31996,-6.42667 32.10702,-14.43639 6.9045,-6.2937 11.72575,-14.57916 15.3075,-23.20782 3.58176,-8.62865 6.01563,-17.67992 8.84546,-26.58356 8.86178,-27.88225 21.81879,-55.26292 22.12178,-84.51799 0.20096,-19.4041 -5.23776,-38.42156 -11.75252,-56.70043 -8.30902,-23.31315 -18.44397,-45.96866 -25.99563,-69.53802 -7.55167,-23.56937 -12.50684,-48.41195 -10.02233,-73.03653 0.5031,-4.98632 1.29808,-10.11474 -0.0727,-14.93525 -0.6854,-2.41026 -1.93312,-4.69917 -3.79932,-6.37142 -1.86619,-1.67225 -4.38286,-2.68054 -6.88026,-2.47532 -1.56517,0.12862 -3.0759,0.72219 -4.37245,1.60836 -1.29654,0.88616 -2.38425,2.05806 -3.26257,3.35993 -1.75664,2.60373 -2.66775,5.67426 -3.4679,8.71153 -6.31878,23.98528 -7.23605,49.07147 -6.51326,73.86458 0.73302,25.14405 3.11664,50.23558 6.99762,75.08912 5.53679,35.45729 14.14284,71.34375 8.70523,106.81639 -2.53879,16.56198 -8.23016,32.80453 -17.8876,46.49681 -9.65744,13.69229 -23.436,24.71829 -39.42474,29.72878 -12.28569,3.85004 -25.45235,4.09174 -38.25469,2.72755 -12.80233,-1.36419 -25.37833,-4.28744 -38.03125,-6.66745 -57.1415,-10.74831 -116.67296,-10.31226 -172.99766,4.11705 -6.90695,1.76943 -13.89209,3.80536 -19.80182,7.79433 -2.95487,1.99449 -5.60959,4.47264 -7.60274,7.42841 -1.99315,2.95577 -3.30829,6.40155 -3.55046,9.95831"
       inkscape:connector-curvature="0"
       sodipodi:nodetypes="aaaaaaaaaaaaaaaaaaa" />
  </g>
</svg>
