<?xml version="1.0" encoding="UTF-8" standalone="no"?>
<!-- Created with Inkscape (http://www.inkscape.org/) -->

<svg
   xmlns:dc="http://purl.org/dc/elements/1.1/"
   xmlns:cc="http://creativecommons.org/ns#"
   xmlns:rdf="http://www.w3.org/1999/02/22-rdf-syntax-ns#"
   xmlns:svg="http://www.w3.org/2000/svg"
   xmlns="http://www.w3.org/2000/svg"
   xmlns:sodipodi="http://sodipodi.sourceforge.net/DTD/sodipodi-0.dtd"
   xmlns:inkscape="http://www.inkscape.org/namespaces/inkscape"
   width="512"
   height="512"
   id="svg2"
   version="1.1"
   inkscape:version="0.48.5 r10040"
   sodipodi:docname="block.svg"
   inkscape:export-filename="/Users/darabos/Documents/fragmented-space/images/player-lifting.png"
   inkscape:export-xdpi="5.6199999"
   inkscape:export-ydpi="5.6199999">
  <defs
     id="defs4">
    <inkscape:path-effect
       effect="spiro"
       id="path-effect4779"
       is_visible="true" />
    <inkscape:path-effect
       effect="spiro"
       id="path-effect4775"
       is_visible="true" />
    <inkscape:path-effect
       is_visible="true"
       id="path-effect4769"
       effect="spiro" />
    <inkscape:path-effect
       effect="spiro"
       id="path-effect4764"
       is_visible="true" />
    <inkscape:path-effect
       effect="spiro"
       id="path-effect4718"
       is_visible="true" />
    <inkscape:path-effect
       effect="spiro"
       id="path-effect4714"
       is_visible="true" />
    <inkscape:path-effect
       effect="spiro"
       id="path-effect4198"
       is_visible="true" />
    <inkscape:path-effect
       effect="spiro"
       id="path-effect4194"
       is_visible="true" />
    <inkscape:path-effect
       is_visible="true"
       id="path-effect4190"
       effect="spiro" />
    <inkscape:path-effect
       is_visible="true"
       id="path-effect3855"
       effect="spiro" />
    <inkscape:path-effect
       effect="spiro"
       id="path-effect3847"
       is_visible="true" />
    <inkscape:path-effect
       is_visible="true"
       id="path-effect3843"
       effect="spiro" />
    <inkscape:path-effect
       is_visible="true"
       id="path-effect3841"
       effect="spiro" />
    <inkscape:path-effect
       is_visible="true"
       id="path-effect3839"
       effect="spiro" />
    <inkscape:path-effect
       effect="spiro"
       id="path-effect3834"
       is_visible="true" />
    <inkscape:path-effect
       effect="spiro"
       id="path-effect3830"
       is_visible="true" />
    <inkscape:path-effect
       effect="spiro"
       id="path-effect3821"
       is_visible="true" />
    <inkscape:path-effect
       effect="spiro"
       id="path-effect3813"
       is_visible="true" />
    <inkscape:path-effect
       is_visible="true"
       id="path-effect3809"
       effect="spiro" />
    <inkscape:path-effect
       effect="spiro"
       id="path-effect3023"
       is_visible="true" />
    <inkscape:path-effect
       effect="spiro"
       id="path-effect3019"
       is_visible="true" />
    <inkscape:path-effect
       effect="spiro"
       id="path-effect3015"
       is_visible="true" />
    <inkscape:path-effect
       effect="spiro"
       id="path-effect2999"
       is_visible="true" />
    <inkscape:path-effect
       effect="spiro"
       id="path-effect2995"
       is_visible="true" />
    <inkscape:path-effect
       effect="spiro"
       id="path-effect2991"
       is_visible="true" />
    <inkscape:path-effect
       effect="spiro"
       id="path-effect2987"
       is_visible="true" />
  </defs>
  <sodipodi:namedview
     id="base"
     pagecolor="#ffffff"
     bordercolor="#666666"
     borderopacity="1.0"
     inkscape:pageopacity="0.0"
     inkscape:pageshadow="2"
     inkscape:zoom="0.93"
     inkscape:cx="249.07849"
     inkscape:cy="249.66622"
     inkscape:document-units="px"
     inkscape:current-layer="layer1"
     showgrid="false"
     fit-margin-top="0"
     fit-margin-left="0"
     fit-margin-right="0"
     fit-margin-bottom="0"
     inkscape:window-width="1249"
     inkscape:window-height="718"
     inkscape:window-x="4"
     inkscape:window-y="0"
     inkscape:window-maximized="0" />
  <metadata
     id="metadata7">
    <rdf:RDF>
      <cc:Work
         rdf:about="">
        <dc:format>image/svg+xml</dc:format>
        <dc:type
           rdf:resource="http://purl.org/dc/dcmitype/StillImage" />
        <dc:title></dc:title>
      </cc:Work>
    </rdf:RDF>
  </metadata>
  <g
     inkscape:label="Layer 1"
     inkscape:groupmode="layer"
     id="layer1"
     transform="translate(-136.60863,-227.00786)">
    <path
       sodipodi:nodetypes="aaaaaaaaaaaaaaaaaaaaaaaaa"
       inkscape:connector-curvature="0"
       d="m 159.33338,299.41427 c -3.72629,4.27563 -6.13699,9.59932 -7.41448,15.12511 -1.27749,5.52578 -1.45839,11.26015 -1.07092,16.91843 0.77492,11.31656 3.78714,22.38455 4.66222,33.69381 1.59853,20.65874 -3.9667,41.15407 -5.2745,61.83325 -1.28756,20.3592 1.56004,40.71789 3.59496,61.01602 3.27727,32.69045 4.47964,65.73462 11.67239,97.79191 5.3417,23.80737 13.94677,46.81671 24.60728,68.76388 4.60786,9.48636 9.64106,18.84535 16.22476,27.08418 6.5837,8.23882 14.82531,15.36057 24.56653,19.40185 11.6196,4.82055 24.68975,5.00595 37.14632,3.24912 12.45658,-1.75684 24.57038,-5.35925 36.88981,-7.90569 47.65238,-9.84981 96.99015,-3.71676 145.60436,-5.8207 22.26672,-0.96366 44.4657,-3.66452 66.75309,-3.57613 12.44636,0.0494 24.90424,0.96881 37.32796,0.21685 12.42372,-0.75196 25.0012,-3.27902 35.7182,-9.60833 7.95496,-4.69809 14.64551,-11.36697 19.98737,-18.90473 5.34187,-7.53776 9.37462,-15.93935 12.62606,-24.58698 8.00134,-21.28063 11.32465,-43.98558 14.49008,-66.49928 3.73842,-26.58907 7.33664,-53.46849 4.95467,-80.21322 -2.75085,-30.88649 -13.36101,-60.43488 -22.83849,-89.95978 -6.94023,-21.62069 -13.34594,-43.5741 -15.69632,-66.15942 -0.75049,-7.21166 -1.08769,-14.48742 -2.53307,-21.59251 -1.44537,-7.10508 -4.09204,-14.14203 -8.88699,-19.58076 -4.37331,-4.96047 -10.32666,-8.34005 -16.58857,-10.46625 -6.2619,-2.1262 -12.85984,-3.06901 -19.43703,-3.75659 -21.60948,-2.25907 -43.39817,-1.87272 -65.10431,-2.83006 -26.55789,-1.17132 -53.03938,-4.35665 -79.62269,-4.21147 -17.84221,0.0975 -35.63676,1.6953 -53.43859,2.89892 -16.51688,1.11675 -33.06025,1.89488 -49.61394,2.06749 -26.5652,0.27701 -53.24803,-0.99974 -79.61423,2.25762 -14.82949,1.83208 -29.46661,5.09224 -43.77929,9.38378 -4.7651,1.42878 -9.51492,2.97958 -13.98136,5.17013 -4.46644,2.19055 -8.66283,5.04924 -11.93128,8.79955"
       id="path4767"
       inkscape:original-d="m 159.33338,299.41427 c -12.22233,18.67183 -2.25288,43.842 -3.82318,65.73735 -1.47959,20.63055 -5.003,41.15712 -5.2745,61.83325 -0.26747,20.36852 1.78703,40.7175 3.59496,61.01602 2.91142,32.68813 4.12305,65.77113 11.67239,97.79191 5.56762,23.61523 12.12157,47.63302 24.60728,68.76388 10.38202,17.57058 21.2054,38.53464 40.79129,46.48603 22.7193,9.22347 49.33931,-3.38645 74.03613,-4.65657 48.50633,-2.4946 97.08561,-3.55139 145.60436,-5.8207 22.25954,-1.04111 44.56901,-1.55896 66.75309,-3.57613 24.46043,-2.22415 52.03578,2.63261 73.04616,-9.39148 16.09358,-9.21023 25.12363,-27.19969 32.61343,-43.49171 9.54445,-20.76133 11.36918,-44.06169 14.49008,-66.49928 3.69363,-26.55544 7.46206,-53.53479 4.95467,-80.21322 -2.88669,-30.71422 -15.46243,-59.92056 -22.83849,-89.95978 -5.40594,-22.0158 -10.04739,-44.198 -15.69632,-66.15942 -3.54616,-13.7864 -1.55917,-30.46302 -11.42006,-41.17327 -8.53656,-9.27185 -23.32516,-11.52851 -36.0256,-14.22284 -21.19522,-4.49644 -43.40813,-1.78475 -65.10431,-2.83006 -26.54799,-1.27909 -53.04013,-4.22942 -79.62269,-4.21147 -17.84229,0.012 -35.61932,2.04434 -53.43859,2.89892 -16.53275,0.79286 -33.07122,1.48828 -49.61394,2.06749 -26.53179,0.92894 -53.27706,-0.90813 -79.61423,2.25762 -14.84499,1.78439 -29.83393,4.26154 -43.77929,9.38378 -9.27049,3.40512 -20.68541,5.98413 -25.91264,13.96968 z"
       inkscape:path-effect="#path-effect4769"
       style="opacity:0.25;fill:#000080;stroke:none" />
    <path
       style="fill:#ffd42a;stroke:#000000;stroke-width:30;stroke-linecap:butt;stroke-linejoin:miter;stroke-opacity:1;stroke-miterlimit:4;stroke-dasharray:none"
       inkscape:path-effect="#path-effect4764"
       inkscape:original-d="m 186.071,290.62076 c -10.65071,17.2464 -1.96319,40.49506 -3.33157,60.7189 -1.28934,19.0556 -4.35969,38.01515 -4.59628,57.11285 -0.23307,18.81356 1.55724,37.60908 3.1327,56.358 2.53706,30.19268 3.59288,60.75009 10.17149,90.32638 4.8517,21.81242 10.5629,43.99667 21.44313,63.51438 9.04705,16.22923 18.47869,35.59287 35.54612,42.93724 19.79792,8.51934 42.99497,-3.12792 64.51613,-4.30108 42.2691,-2.30416 84.60179,-3.28027 126.88172,-5.37634 19.39728,-0.96164 38.83807,-1.43995 58.16959,-3.30312 21.31517,-2.05436 45.34472,2.43163 63.65346,-8.67453 14.02417,-8.50712 21.89309,-25.12324 28.41981,-40.17151 8.31717,-19.17639 9.90727,-40.69798 12.62686,-61.42267 3.21869,-24.52817 6.50255,-49.44789 4.31757,-74.08966 -2.51551,-28.36947 -13.47418,-55.34618 -19.90179,-83.09218 -4.7108,-20.33509 -8.75543,-40.82388 -13.67799,-61.10875 -3.09017,-12.73393 -1.35868,-28.13744 -9.9516,-38.03006 -7.43889,-8.56403 -20.32588,-10.64841 -31.39323,-13.13705 -18.46981,-4.15318 -37.82645,-1.6485 -56.73282,-2.61402 -23.13429,-1.18144 -46.21992,-3.90654 -69.38435,-3.88996 -15.54802,0.0111 -31.03917,1.88828 -46.56714,2.67761 -14.40688,0.73234 -28.81873,1.37467 -43.23429,1.90966 -23.12019,0.85803 -46.4264,-0.8388 -69.37698,2.08528 -12.93613,1.64816 -25.99771,3.93621 -38.1499,8.66741 -8.07843,3.14517 -18.02555,5.52729 -22.58064,12.90322 z"
       id="path4762"
       d="m 186.071,290.62076 c -3.39866,3.98085 -5.58842,8.90599 -6.74368,14.01122 -1.15526,5.10524 -1.30869,10.39672 -0.94237,15.6182 0.73264,10.44296 3.51192,20.65481 4.35448,31.08948 1.53971,19.06859 -3.41993,38.0184 -4.59628,57.11285 -1.15829,18.80129 1.35851,37.6048 3.1327,56.358 2.85587,30.18656 3.81436,60.67893 10.17149,90.32638 4.69357,21.88921 12.29089,43.08392 21.44313,63.51438 3.89233,8.6888 8.10425,17.30994 13.79754,24.94092 5.69329,7.63098 12.983,14.28014 21.74858,17.99632 10.10399,4.2836 21.52803,4.42701 32.38608,2.83248 10.85806,-1.59452 21.39858,-4.83673 32.13005,-7.13356 41.47212,-8.87616 84.5138,-3.45752 126.88172,-5.37634 19.40514,-0.87885 38.74456,-3.30567 58.16959,-3.30312 10.86313,0.001 21.74067,0.76279 32.57936,0.0345 10.8387,-0.7283 21.80599,-3.04248 31.0741,-8.70903 7.13934,-4.36501 13.0324,-10.58988 17.65324,-17.56637 4.62085,-6.97648 8.01357,-14.70296 10.76657,-22.60514 6.8891,-19.77436 9.84588,-40.66813 12.62686,-61.42267 3.29227,-24.57032 6.39627,-49.38705 4.31757,-74.08966 -2.39317,-28.43962 -11.56726,-55.79612 -19.90179,-83.09218 -6.10711,-20.00114 -11.82466,-40.2783 -13.67799,-61.10875 -0.59135,-6.64653 -0.78916,-13.34728 -2.01709,-19.90611 -1.22794,-6.55883 -3.57282,-13.07402 -7.93451,-18.12395 -3.79593,-4.3949 -8.94954,-7.46869 -14.40299,-9.46472 -5.45345,-1.99604 -11.2256,-2.97008 -16.99024,-3.67233 -18.79928,-2.29014 -37.81255,-1.78862 -56.73282,-2.61402 -23.14785,-1.00983 -46.21479,-4.0096 -69.38435,-3.88996 -15.55123,0.0803 -31.05548,1.56597 -46.56714,2.67761 -14.39074,1.03131 -28.80762,1.74147 -43.23429,1.90966 -23.15097,0.2699 -46.41131,-0.85042 -69.37698,2.08528 -12.95485,1.65601 -25.73944,4.59913 -38.1499,8.66741 -8.34568,2.7358 -16.87803,6.22376 -22.58064,12.90322"
       inkscape:connector-curvature="0"
       sodipodi:nodetypes="aaaaaaaaaaaaaaaaaaaaaaaaa" />
    <path
       style="fill:#ffffff;stroke:none"
       inkscape:path-effect="#path-effect4775"
       inkscape:original-d="m 223.7054,308.90033 c -6.76331,16.31576 -0.27271,35.3307 -1.04944,52.97561 -0.79159,17.98259 -2.49843,35.91331 -3.67865,53.87458 -1.6044,24.41665 -6.0089,48.83187 -4.6256,73.26205 1.26409,22.32478 2.21336,45.8218 11.75731,66.04324 7.55003,15.99678 19.68658,30.60124 34.42031,40.38986 12.77155,8.48501 28.63644,11.93007 43.83791,13.93591 16.83929,2.22195 34.00725,-0.5738 50.90322,-2.31301 30.66734,-3.15679 60.72708,-10.82598 91.31063,-14.71154 19.09464,-2.42593 40.0908,2.85887 57.49486,-5.3624 11.07954,-5.23372 30.40047,-14.71222 25.88379,-26.1029 -6.05893,-15.28013 -32.84667,-1.89494 -49.28313,-1.70592 -27.03744,0.31093 -53.98689,3.14618 -80.98315,4.6698 -19.35654,1.09245 -38.78126,5.12351 -58.07359,3.20639 -17.29912,-1.71905 -35.89037,-3.62874 -50.48945,-13.06703 -14.91341,-9.64151 -25.78859,-25.48024 -33.34292,-41.55197 -8.80231,-18.72679 -9.95422,-40.27131 -12.4884,-60.8079 -2.18272,-17.68846 -1.69827,-35.60593 -2.29824,-53.41845 -0.57088,-16.94875 0.9393,-34.04204 -1.23833,-50.86 -2.01909,-15.59353 4.26839,-41.75394 -10.90038,-45.89439 -3.31924,-0.90602 -5.83921,4.25966 -7.15675,7.43807 z"
       id="path4773"
       d="m 223.7054,308.90033 c -4.25411,7.91528 -5.02408,17.26796 -4.39734,26.23213 0.62674,8.96417 2.55303,17.79265 3.3479,26.74348 1.59567,17.96858 -1.38886,35.98121 -3.67865,53.87458 -3.10854,24.29145 -4.94955,48.77465 -4.6256,73.26205 0.2979,22.51815 2.55001,45.49132 11.75731,66.04324 7.33945,16.38263 19.17368,30.91365 34.42031,40.38986 13.13771,8.16545 28.44422,12.41661 43.83791,13.93591 16.94573,1.67248 34.05378,0.14688 50.90322,-2.31301 30.51558,-4.45505 60.59348,-11.97213 91.31063,-14.71154 19.18664,-1.7111 38.61147,-1.55811 57.49486,-5.3624 6.78437,-1.3668 13.68657,-3.35093 19.03469,-7.74337 2.67406,-2.19622 4.90308,-4.98365 6.19955,-8.19194 1.29648,-3.20829 1.62233,-6.8468 0.64955,-10.16759 -0.6587,-2.24862 -1.89607,-4.31474 -3.50595,-6.01723 -1.60987,-1.70249 -3.58637,-3.04474 -5.72877,-3.99357 -4.2848,-1.89767 -9.15414,-2.20018 -13.78928,-1.51011 -9.27027,1.38014 -17.50284,6.47282 -26.25913,9.81499 -12.71781,4.85423 -26.5561,5.99709 -40.16843,5.89355 -13.61233,-0.10355 -27.20317,-1.40287 -40.81472,-1.22375 -19.3925,0.25519 -38.68178,3.50936 -58.07359,3.20639 -17.60287,-0.27502 -35.59626,-3.6793 -50.48945,-13.06703 -15.25706,-9.61709 -26.28723,-24.95427 -33.34292,-41.55197 -8.13672,-19.14071 -11.36398,-40.03992 -12.4884,-60.8079 -0.96377,-17.80079 -0.43773,-35.68894 -2.29824,-53.41845 -1.78194,-16.98077 -5.71626,-34.38365 -1.23833,-50.86 1.32226,-4.86518 3.35089,-9.50401 5.05652,-14.24839 1.70563,-4.74438 3.10284,-9.68581 3.08072,-14.72742 -0.0221,-5.04161 -1.60419,-10.23794 -5.16115,-13.81095 -1.77848,-1.7865 -4.02469,-3.12725 -6.47487,-3.71984 -2.45019,-0.59259 -5.10023,-0.41652 -7.4016,0.61221 -3.19935,1.43014 -5.4977,4.35121 -7.15675,7.43807"
       inkscape:connector-curvature="0"
       sodipodi:nodetypes="aaaaaaaaaaaaaaaaaaaaa" />
    <path
       style="fill:#ffffff;stroke:none"
       inkscape:path-effect="#path-effect4779"
       inkscape:original-d="m 381.76992,316.42721 c 15.53191,-6.2435 33.36522,-2.82585 50.0802,-3.73739 17.61341,-0.96053 35.6194,-5.42574 52.88731,-1.82378 13.39704,2.79453 28.69824,6.8552 37.04432,17.70107 12.74753,16.56564 10.35441,40.75499 11.64044,61.61803 1.48379,24.07129 9.55494,52.67676 -4.59735,72.20473 -8.42321,11.62273 -25.84684,13.51576 -39.98812,15.97795 -20.29694,3.53397 -42.48555,5.06959 -61.76825,-2.18521 -18.13222,-6.82195 -32.28453,-22.15328 -45.03287,-36.74082 -11.42673,-13.07527 -23.27658,-27.5029 -27.22805,-44.41203 -4.64107,-19.86006 -3.97317,-42.89816 5.55061,-60.9331 4.32112,-8.1828 12.82582,-14.21808 21.41176,-17.66945 z"
       id="path4777"
       d="m 381.76992,316.42721 c 7.79408,-3.22538 16.3489,-4.1792 24.78333,-4.28455 8.43444,-0.10535 16.86196,0.60273 25.29687,0.54716 17.65899,-0.11633 35.31507,-3.5759 52.88731,-1.82378 6.99873,0.69784 13.95677,2.23718 20.38328,5.09535 6.42651,2.85817 12.31632,7.07466 16.66104,12.60572 6.56887,8.36253 9.23564,19.16624 10.21076,29.75544 0.97512,10.5892 0.433,21.2754 1.42968,31.86259 1.16984,12.42653 4.44937,24.60749 5.18068,37.06752 0.36566,6.23002 0.0832,12.5382 -1.40487,18.59893 -1.48808,6.06073 -4.22071,11.87953 -8.37316,16.53828 -4.88085,5.47595 -11.52758,9.14621 -18.47732,11.49351 -6.94974,2.3473 -14.24786,3.45565 -21.5108,4.48444 -20.62609,2.92166 -42.28286,5.18307 -61.76825,-2.18521 -18.33396,-6.93288 -32.57306,-21.60966 -45.03287,-36.74082 -11.09687,-13.47602 -21.45352,-27.93785 -27.22805,-44.41203 -3.50079,-9.98742 -5.25076,-20.65026 -4.49823,-31.20668 0.75253,-10.55641 4.06278,-20.9988 10.04884,-29.72642 5.30747,-7.73824 12.74137,-14.08143 21.41176,-17.66945"
       inkscape:connector-curvature="0"
       sodipodi:nodetypes="aaaaaaaaaaaa" />
  </g>
</svg>
