<?xml version="1.0" encoding="UTF-8" standalone="no"?>
<!-- Created with Inkscape (http://www.inkscape.org/) -->

<svg
   xmlns:dc="http://purl.org/dc/elements/1.1/"
   xmlns:cc="http://creativecommons.org/ns#"
   xmlns:rdf="http://www.w3.org/1999/02/22-rdf-syntax-ns#"
   xmlns:svg="http://www.w3.org/2000/svg"
   xmlns="http://www.w3.org/2000/svg"
   xmlns:sodipodi="http://sodipodi.sourceforge.net/DTD/sodipodi-0.dtd"
   xmlns:inkscape="http://www.inkscape.org/namespaces/inkscape"
   width="512"
   height="512"
   id="svg2"
   version="1.1"
   inkscape:version="0.48.5 r10040"
   sodipodi:docname="corruption.svg"
   inkscape:export-filename="/Users/darabos/Documents/fragmented-space/images/corruption.png"
   inkscape:export-xdpi="5.6199999"
   inkscape:export-ydpi="5.6199999">
  <defs
     id="defs4">
    <inkscape:path-effect
       effect="spiro"
       id="path-effect5024"
       is_visible="true" />
    <inkscape:path-effect
       effect="spiro"
       id="path-effect5020"
       is_visible="true" />
    <inkscape:path-effect
       effect="spiro"
       id="path-effect5016"
       is_visible="true" />
    <inkscape:path-effect
       effect="spiro"
       id="path-effect5012"
       is_visible="true" />
    <inkscape:path-effect
       effect="spiro"
       id="path-effect5008"
       is_visible="true" />
    <inkscape:path-effect
       effect="spiro"
       id="path-effect5004"
       is_visible="true" />
    <inkscape:path-effect
       effect="spiro"
       id="path-effect5000"
       is_visible="true" />
    <inkscape:path-effect
       effect="spiro"
       id="path-effect4996"
       is_visible="true" />
    <inkscape:path-effect
       effect="spiro"
       id="path-effect4986"
       is_visible="true" />
    <inkscape:path-effect
       effect="spiro"
       id="path-effect4982"
       is_visible="true" />
    <inkscape:path-effect
       effect="spiro"
       id="path-effect4978"
       is_visible="true" />
    <inkscape:path-effect
       effect="spiro"
       id="path-effect4974"
       is_visible="true" />
    <inkscape:path-effect
       effect="spiro"
       id="path-effect4970"
       is_visible="true" />
    <inkscape:path-effect
       effect="spiro"
       id="path-effect4966"
       is_visible="true" />
    <inkscape:path-effect
       effect="spiro"
       id="path-effect4959"
       is_visible="true" />
    <inkscape:path-effect
       effect="spiro"
       id="path-effect4955"
       is_visible="true" />
    <inkscape:path-effect
       effect="spiro"
       id="path-effect4949"
       is_visible="true" />
    <inkscape:path-effect
       effect="spiro"
       id="path-effect4938"
       is_visible="true" />
    <inkscape:path-effect
       effect="spiro"
       id="path-effect4934"
       is_visible="true" />
    <inkscape:path-effect
       effect="spiro"
       id="path-effect4930"
       is_visible="true" />
    <inkscape:path-effect
       effect="spiro"
       id="path-effect4926"
       is_visible="true" />
    <inkscape:path-effect
       effect="spiro"
       id="path-effect4922"
       is_visible="true" />
    <inkscape:path-effect
       effect="spiro"
       id="path-effect4918"
       is_visible="true" />
    <inkscape:path-effect
       effect="spiro"
       id="path-effect4914"
       is_visible="true" />
    <inkscape:path-effect
       effect="spiro"
       id="path-effect4909"
       is_visible="true" />
    <inkscape:path-effect
       effect="spiro"
       id="path-effect4897"
       is_visible="true" />
    <inkscape:path-effect
       effect="spiro"
       id="path-effect4889"
       is_visible="true" />
    <inkscape:path-effect
       effect="spiro"
       id="path-effect4877"
       is_visible="true" />
    <inkscape:path-effect
       effect="spiro"
       id="path-effect4873"
       is_visible="true" />
    <inkscape:path-effect
       effect="spiro"
       id="path-effect4869"
       is_visible="true" />
    <inkscape:path-effect
       effect="spiro"
       id="path-effect4865"
       is_visible="true" />
    <inkscape:path-effect
       effect="spiro"
       id="path-effect4861"
       is_visible="true" />
    <inkscape:path-effect
       effect="spiro"
       id="path-effect4857"
       is_visible="true" />
    <inkscape:path-effect
       effect="spiro"
       id="path-effect4853"
       is_visible="true" />
    <inkscape:path-effect
       effect="spiro"
       id="path-effect4779"
       is_visible="true" />
    <inkscape:path-effect
       effect="spiro"
       id="path-effect4775"
       is_visible="true" />
    <inkscape:path-effect
       is_visible="true"
       id="path-effect4769"
       effect="spiro" />
    <inkscape:path-effect
       effect="spiro"
       id="path-effect4764"
       is_visible="true" />
    <inkscape:path-effect
       effect="spiro"
       id="path-effect4718"
       is_visible="true" />
    <inkscape:path-effect
       effect="spiro"
       id="path-effect4714"
       is_visible="true" />
    <inkscape:path-effect
       effect="spiro"
       id="path-effect4198"
       is_visible="true" />
    <inkscape:path-effect
       effect="spiro"
       id="path-effect4194"
       is_visible="true" />
    <inkscape:path-effect
       is_visible="true"
       id="path-effect4190"
       effect="spiro" />
    <inkscape:path-effect
       is_visible="true"
       id="path-effect3855"
       effect="spiro" />
    <inkscape:path-effect
       effect="spiro"
       id="path-effect3847"
       is_visible="true" />
    <inkscape:path-effect
       is_visible="true"
       id="path-effect3843"
       effect="spiro" />
    <inkscape:path-effect
       is_visible="true"
       id="path-effect3841"
       effect="spiro" />
    <inkscape:path-effect
       is_visible="true"
       id="path-effect3839"
       effect="spiro" />
    <inkscape:path-effect
       effect="spiro"
       id="path-effect3834"
       is_visible="true" />
    <inkscape:path-effect
       effect="spiro"
       id="path-effect3830"
       is_visible="true" />
    <inkscape:path-effect
       effect="spiro"
       id="path-effect3821"
       is_visible="true" />
    <inkscape:path-effect
       effect="spiro"
       id="path-effect3813"
       is_visible="true" />
    <inkscape:path-effect
       is_visible="true"
       id="path-effect3809"
       effect="spiro" />
    <inkscape:path-effect
       effect="spiro"
       id="path-effect3023"
       is_visible="true" />
    <inkscape:path-effect
       effect="spiro"
       id="path-effect3019"
       is_visible="true" />
    <inkscape:path-effect
       effect="spiro"
       id="path-effect3015"
       is_visible="true" />
    <inkscape:path-effect
       effect="spiro"
       id="path-effect2999"
       is_visible="true" />
    <inkscape:path-effect
       effect="spiro"
       id="path-effect2995"
       is_visible="true" />
    <inkscape:path-effect
       effect="spiro"
       id="path-effect2991"
       is_visible="true" />
    <inkscape:path-effect
       effect="spiro"
       id="path-effect2987"
       is_visible="true" />
  </defs>
  <sodipodi:namedview
     id="base"
     pagecolor="#ffffff"
     bordercolor="#666666"
     borderopacity="1.0"
     inkscape:pageopacity="0.0"
     inkscape:pageshadow="2"
     inkscape:zoom="0.93"
     inkscape:cx="249.07849"
     inkscape:cy="249.66622"
     inkscape:document-units="px"
     inkscape:current-layer="layer1"
     showgrid="false"
     fit-margin-top="0"
     fit-margin-left="0"
     fit-margin-right="0"
     fit-margin-bottom="0"
     inkscape:window-width="1249"
     inkscape:window-height="718"
     inkscape:window-x="4"
     inkscape:window-y="0"
     inkscape:window-maximized="0" />
  <metadata
     id="metadata7">
    <rdf:RDF>
      <cc:Work
         rdf:about="">
        <dc:format>image/svg+xml</dc:format>
        <dc:type
           rdf:resource="http://purl.org/dc/dcmitype/StillImage" />
        <dc:title></dc:title>
      </cc:Work>
    </rdf:RDF>
  </metadata>
  <g
     inkscape:label="Layer 1"
     inkscape:groupmode="layer"
     id="layer1"
     transform="translate(-136.60863,-227.00786)">
    <path
       style="opacity:0.25;fill:none;stroke:#000080;stroke-width:28.74077606;stroke-linecap:butt;stroke-linejoin:miter;stroke-miterlimit:4;stroke-opacity:1;stroke-dasharray:none"
       inkscape:path-effect="#path-effect4986"
       inkscape:original-d="m 485.20503,424.0958 c -12.08199,26.13397 42.40296,-71.78416 -28.85654,46.33563 -1.90999,3.16602 -23.70356,32.94979 -23.70356,32.94979 m -15.45885,-63.84021 c 17.18032,5.58076 53.08188,44.8797 46.84058,27.83418 -12.72337,-34.74865 1.25791,-13.97069 33.54544,25.70922 m -128.2054,-53.5434 c -15.57837,9.61283 -25.22707,20.95875 -36.81536,32.52773 -8.89784,8.88302 -21.59016,19.40689 -25.02004,28.22344 m -2.06118,-57.66214 c 19.84594,11.25097 37.18379,26.29636 54.85999,40.62409 3.8392,3.11192 7.5997,6.33489 11.09777,9.83028 M 249.81826,680.48632 c -16.48784,-13.62766 -4.29968,-42.54374 -6.18355,-63.84022 -1.517,-17.14932 -2.99112,-34.305 -4.12235,-51.48404 -1.55248,-23.57629 -2.589,-47.1844 -3.65647,-70.78757 -0.98158,-21.70426 -4.11461,-43.46187 -2.52707,-65.13029 1.27531,-17.40682 2.27337,-35.63947 9.63414,-51.46778 7.5161,-16.16237 17.76124,-33.72197 33.85653,-41.40397 45.19545,-21.57099 100.20283,-2.56385 150.26025,-0.82921 21.38516,0.74106 46.16733,-6.99777 64.01424,4.79702 16.03265,10.59576 16.74845,34.62052 26.46954,51.18946 10.10157,17.21746 24.64709,31.84408 33.01768,49.96477 6.30886,13.65747 9.37179,28.64667 12.53643,43.35248 3.21502,14.93993 4.8203,30.19256 6.50757,45.38065 2.05752,18.52082 5.46876,37.12617 4.40334,55.7303 -0.77589,13.54847 -6.61129,26.43845 -7.81914,39.95531 -1.68588,18.86663 14.0479,43.21736 0.85321,56.81861 -5.62644,5.7998 -16.16536,0.44966 -24.24934,0.39309 -16.94495,-0.11859 -33.89786,-0.52245 -50.81288,-1.53533 -20.1364,-1.20576 -40.13741,-4.22525 -60.27542,-5.40371 -37.4292,-2.19033 -74.97634,-4.64551 -112.43744,-3.09212 -17.75549,0.73626 -35.30756,4.07785 -52.98732,5.87262 -5.48907,0.55723 -12.23074,5.03367 -16.48195,1.51993 z"
       id="path4984"
       d="m 485.20503,424.0958 c -9.02398,15.80524 -18.65219,31.26549 -28.85654,46.33563 -7.58702,11.20478 -15.49246,22.19396 -23.70356,32.94979 m -15.45885,-63.84021 c 16.20594,8.22897 31.86527,17.53425 46.84058,27.83418 11.61268,7.98713 22.81421,16.57198 33.54544,25.70922 m -128.2054,-53.5434 c -12.9998,9.97941 -25.31047,20.85635 -36.81536,32.52773 -8.82999,8.95777 -17.18557,18.38314 -25.02004,28.22344 m -2.06118,-57.66214 c 19.22886,12.20307 37.57858,25.79113 54.85999,40.62409 3.75009,3.21877 7.44994,6.49606 11.09777,9.83028 M 249.81826,680.48632 c -2.93557,-0.67133 -5.66817,-2.14341 -7.92947,-4.13207 -2.2613,-1.98867 -4.05661,-4.48453 -5.34002,-7.20871 -2.56681,-5.44834 -3.05961,-11.69522 -2.36197,-17.67739 1.39527,-11.96434 7.28126,-22.97309 9.44791,-34.82205 3.11347,-17.02694 -1.61411,-34.35747 -4.12235,-51.48404 -3.42592,-23.39266 -2.70053,-47.1647 -3.65647,-70.78757 -0.87876,-21.71565 -3.18431,-43.40681 -2.52707,-65.13029 0.53062,-17.53845 3.04956,-35.20364 9.63414,-51.46778 6.80993,-16.82074 18.25448,-32.13636 33.85653,-41.40397 10.95965,-6.51003 23.6018,-9.85226 36.3,-10.97027 12.69821,-1.11801 25.49774,-0.0824 38.12029,1.69683 25.24511,3.55839 50.39956,10.10672 75.83996,8.44423 10.94723,-0.71538 21.77264,-2.95013 32.73882,-3.2608 10.96617,-0.31067 22.46541,1.52044 31.27542,8.05782 7.82497,5.80645 12.74419,14.72601 16.30188,23.79727 3.55769,9.07127 6.00409,18.58255 10.16766,27.39219 8.54372,18.07753 23.82144,32.21029 33.01768,49.96477 6.94943,13.41673 10.1788,28.42785 12.53643,43.35248 2.38456,15.09512 3.95289,30.31338 6.50757,45.38065 3.13308,18.47866 7.75836,37.29064 4.40334,55.7303 -1.22113,6.71153 -3.47709,13.18342 -5.2813,19.76222 -1.80421,6.5788 -3.16733,13.40048 -2.53784,20.19309 0.94462,10.19307 6.25946,19.43139 8.7366,29.3639 1.23857,4.96626 1.75601,10.20977 0.62504,15.20163 -0.56549,2.49593 -1.54389,4.9081 -2.97242,7.03148 -1.42854,2.12337 -3.31336,3.95302 -5.53601,5.2216 -3.58942,2.04867 -7.8807,2.5512 -12.00588,2.29848 -4.12518,-0.25273 -8.16934,-1.21073 -12.24346,-1.90539 -16.72698,-2.85203 -33.8468,-1.25598 -50.81288,-1.53533 -20.17774,-0.33223 -40.20222,-3.32573 -60.27542,-5.40371 -37.32565,-3.86396 -74.9413,-4.56649 -112.43744,-3.09212 -17.78328,0.69925 -35.63929,1.90023 -52.98732,5.87262 -5.42825,1.24297 -11.05335,2.76139 -16.48195,1.51993"
       inkscape:connector-curvature="0"
       sodipodi:nodetypes="csccsccaccacaaaaaaaaaaaaaaaaaaaaaa" />
    <path
       style="opacity:0.25;fill:none;stroke:#000080;stroke-width:20;stroke-linecap:butt;stroke-linejoin:miter;stroke-miterlimit:4;stroke-opacity:1;stroke-dasharray:none"
       inkscape:path-effect="#path-effect4996"
       inkscape:original-d="m 169.94196,305.24443 c -1.03598,-12.99958 4.60517,-26.13256 12.22379,-36.42859 5.7608,-7.78532 14.32154,-14.25135 23.63932,-16.89273 9.95612,-2.82233 22.62997,-4.01226 30.97352,2.10943 8.46793,6.21295 9.17469,19.09628 11.4765,29.34363 2.46755,10.98521 8.47796,24.2627 2.33203,33.69621 -5.55559,8.52738 -20.65876,16.59897 -28.71423,10.37883 -5.31355,-4.10293 -4.51713,-16.589 1.83251,-20.05625"
       id="path4994"
       d="m 169.94196,305.24443 c -0.56168,-13.08773 3.88138,-26.32867 12.22379,-36.42859 6.23398,-7.5473 14.52926,-13.31068 23.63932,-16.89273 5.06001,-1.98958 10.44709,-3.33189 15.88274,-3.20622 5.43565,0.12567 10.93695,1.8074 15.09078,5.31565 4.09977,3.46259 6.64454,8.45657 8.20967,13.58959 1.56514,5.13303 2.24759,10.48538 3.26683,15.75404 1.08249,5.59561 2.55045,11.1219 3.30924,16.77052 0.75879,5.64861 0.78371,11.50519 -0.97721,16.92569 -0.94656,2.91371 -2.4082,5.67181 -4.38724,8.01041 -1.97905,2.33859 -4.4818,4.25032 -7.30974,5.42862 -2.82795,1.1783 -5.98137,1.60857 -9.00366,1.1072 -3.0223,-0.50137 -5.89916,-1.95046 -8.01359,-4.1674 -2.62333,-2.7505 -3.98539,-6.65921 -3.63955,-10.44438 0.34585,-3.78517 2.39371,-7.38232 5.47206,-9.61187"
       inkscape:connector-curvature="0"
       sodipodi:nodetypes="caaaaaac" />
    <path
       style="opacity:0.25;fill:none;stroke:#000080;stroke-width:20;stroke-linecap:butt;stroke-linejoin:miter;stroke-miterlimit:4;stroke-opacity:1;stroke-dasharray:none"
       inkscape:path-effect="#path-effect5012"
       inkscape:original-d="m 182.84518,626.7498 c 5.69382,20.06694 13.86357,39.32215 23.54682,57.70068 3.06846,5.82384 6.59367,12.89519 10.86178,16.49287 m -65.59139,-58.06452 c 2.40813,10.93282 10.86548,19.06456 16.07398,28.72007 10.02777,18.58949 22.4268,36.2275 29.21258,56.22946 0.58433,1.72238 0.94574,3.543 0.94999,5.37305 m 17.20431,-48.3871 c -11.68596,13.53171 -27.69179,21.85924 -41.93549,32.25807 -4.57715,3.34162 -11.07214,3.86685 -13.97849,9.67742 m 53.76344,-89.24731 c -20.2316,12.41748 -38.00425,28.36856 -57.82032,41.36497 -3.22421,2.1146 -7.74886,2.71864 -9.92162,5.94685"
       id="path5010"
       d="m 182.84518,626.7498 c 4.94228,20.25537 12.90621,39.77072 23.54682,57.70068 3.36073,5.66301 6.98661,11.16866 10.86178,16.49287 m -65.59139,-58.06452 c 4.85949,9.84121 10.22699,19.43154 16.07398,28.72007 11.3186,17.98072 24.71328,35.46475 29.21258,56.22946 0.38525,1.77798 0.70223,3.57076 0.94999,5.37305 m 17.20431,-48.3871 c -13.56365,11.2781 -27.55557,22.04112 -41.93549,32.25807 -4.61993,3.28247 -9.27989,6.50859 -13.97849,9.67742 m 53.76344,-89.24731 c -18.28126,15.10924 -37.61713,28.94222 -57.82032,41.36497 -3.2846,2.01967 -6.59209,4.00212 -9.92162,5.94685"
       inkscape:connector-curvature="0"
       sodipodi:nodetypes="caccaaccaccac" />
    <path
       style="opacity:0.25;fill:none;stroke:#000080;stroke-width:20;stroke-linecap:butt;stroke-linejoin:miter;stroke-miterlimit:4;stroke-opacity:1;stroke-dasharray:none"
       inkscape:path-effect="#path-effect5024"
       inkscape:original-d="m 577.46884,372.98636 c -3.89187,3.9974 -5.99538,9.48525 -9.26583,14.04006 -2.76667,3.85319 -7.17614,6.74851 -8.74864,11.22386 -0.71515,2.03532 -0.87995,4.46439 -0.0886,6.47132 0.70513,1.78828 2.75674,2.68876 3.99319,4.16061 3.7531,4.46762 5.74021,10.53895 10.34843,14.11801 2.65008,2.05823 6.30606,2.32161 9.33921,3.7566 0.66972,0.31684 2.78382,-0.60976 1.94912,1.06825 m 41.93549,-100.00001 c 0.10273,17.15817 5.4803,35.11006 0.32835,51.47812 -1.40931,4.47745 -4.68236,8.31608 -8.1392,11.49161 -3.36287,3.08921 -7.45505,5.56793 -11.80953,6.94291 -4.71159,1.48774 -9.84203,0.9084 -14.77501,1.18791 -6.25708,0.35454 -12.53569,0.23728 -18.79112,0.61986 -5.22128,0.31934 -10.3986,1.38774 -15.63073,1.39787"
       id="path5022"
       d="m 577.46884,372.98636 c -2.33308,5.124 -5.47193,9.88014 -9.26583,14.04006 -3.21783,3.52827 -7.00246,6.77931 -8.74864,11.22386 -0.40681,1.03545 -0.69433,2.12646 -0.74472,3.23781 -0.0504,1.11136 0.1441,2.24585 0.65612,3.23351 0.44496,0.8583 1.11297,1.58085 1.82504,2.23478 0.71206,0.65394 1.4761,1.25075 2.16815,1.92583 2.10434,2.05272 3.45487,4.73302 4.88182,7.30318 1.42694,2.57016 3.0388,5.15723 5.46661,6.81483 2.77931,1.89759 6.2829,2.34791 9.33921,3.7566 0.6734,0.31038 1.32519,0.66761 1.94912,1.06825 m 41.93549,-100.00001 c 8.12051,15.84044 8.24613,35.53538 0.32835,51.47812 -2.09818,4.22477 -4.74515,8.21572 -8.1392,11.49161 -3.31949,3.20392 -7.36623,5.70146 -11.80953,6.94291 -4.77499,1.33412 -9.81715,1.19417 -14.77501,1.18791 -6.26825,-0.008 -12.536,0.21433 -18.79112,0.61986 -5.2206,0.33846 -10.43292,0.80461 -15.63073,1.39787"
       inkscape:connector-curvature="0"
       sodipodi:nodetypes="caaaaaaccaaaaac" />
  </g>
</svg>
