<?xml version="1.0" encoding="UTF-8" standalone="no"?>
<!-- Created with Inkscape (http://www.inkscape.org/) -->

<svg
   xmlns:dc="http://purl.org/dc/elements/1.1/"
   xmlns:cc="http://creativecommons.org/ns#"
   xmlns:rdf="http://www.w3.org/1999/02/22-rdf-syntax-ns#"
   xmlns:svg="http://www.w3.org/2000/svg"
   xmlns="http://www.w3.org/2000/svg"
   xmlns:sodipodi="http://sodipodi.sourceforge.net/DTD/sodipodi-0.dtd"
   xmlns:inkscape="http://www.inkscape.org/namespaces/inkscape"
   width="512"
   height="512"
   id="svg2"
   version="1.1"
   inkscape:version="0.48.5 r10040"
   sodipodi:docname="corruption.svg"
   inkscape:export-filename="/Users/darabos/Documents/fragmented-space/images/block.png"
   inkscape:export-xdpi="5.6199999"
   inkscape:export-ydpi="5.6199999">
  <defs
     id="defs4">
    <inkscape:path-effect
       effect="spiro"
       id="path-effect4959"
       is_visible="true" />
    <inkscape:path-effect
       effect="spiro"
       id="path-effect4955"
       is_visible="true" />
    <inkscape:path-effect
       effect="spiro"
       id="path-effect4949"
       is_visible="true" />
    <inkscape:path-effect
       effect="spiro"
       id="path-effect4938"
       is_visible="true" />
    <inkscape:path-effect
       effect="spiro"
       id="path-effect4934"
       is_visible="true" />
    <inkscape:path-effect
       effect="spiro"
       id="path-effect4930"
       is_visible="true" />
    <inkscape:path-effect
       effect="spiro"
       id="path-effect4926"
       is_visible="true" />
    <inkscape:path-effect
       effect="spiro"
       id="path-effect4922"
       is_visible="true" />
    <inkscape:path-effect
       effect="spiro"
       id="path-effect4918"
       is_visible="true" />
    <inkscape:path-effect
       effect="spiro"
       id="path-effect4914"
       is_visible="true" />
    <inkscape:path-effect
       effect="spiro"
       id="path-effect4909"
       is_visible="true" />
    <inkscape:path-effect
       effect="spiro"
       id="path-effect4897"
       is_visible="true" />
    <inkscape:path-effect
       effect="spiro"
       id="path-effect4889"
       is_visible="true" />
    <inkscape:path-effect
       effect="spiro"
       id="path-effect4877"
       is_visible="true" />
    <inkscape:path-effect
       effect="spiro"
       id="path-effect4873"
       is_visible="true" />
    <inkscape:path-effect
       effect="spiro"
       id="path-effect4869"
       is_visible="true" />
    <inkscape:path-effect
       effect="spiro"
       id="path-effect4865"
       is_visible="true" />
    <inkscape:path-effect
       effect="spiro"
       id="path-effect4861"
       is_visible="true" />
    <inkscape:path-effect
       effect="spiro"
       id="path-effect4857"
       is_visible="true" />
    <inkscape:path-effect
       effect="spiro"
       id="path-effect4853"
       is_visible="true" />
    <inkscape:path-effect
       effect="spiro"
       id="path-effect4779"
       is_visible="true" />
    <inkscape:path-effect
       effect="spiro"
       id="path-effect4775"
       is_visible="true" />
    <inkscape:path-effect
       is_visible="true"
       id="path-effect4769"
       effect="spiro" />
    <inkscape:path-effect
       effect="spiro"
       id="path-effect4764"
       is_visible="true" />
    <inkscape:path-effect
       effect="spiro"
       id="path-effect4718"
       is_visible="true" />
    <inkscape:path-effect
       effect="spiro"
       id="path-effect4714"
       is_visible="true" />
    <inkscape:path-effect
       effect="spiro"
       id="path-effect4198"
       is_visible="true" />
    <inkscape:path-effect
       effect="spiro"
       id="path-effect4194"
       is_visible="true" />
    <inkscape:path-effect
       is_visible="true"
       id="path-effect4190"
       effect="spiro" />
    <inkscape:path-effect
       is_visible="true"
       id="path-effect3855"
       effect="spiro" />
    <inkscape:path-effect
       effect="spiro"
       id="path-effect3847"
       is_visible="true" />
    <inkscape:path-effect
       is_visible="true"
       id="path-effect3843"
       effect="spiro" />
    <inkscape:path-effect
       is_visible="true"
       id="path-effect3841"
       effect="spiro" />
    <inkscape:path-effect
       is_visible="true"
       id="path-effect3839"
       effect="spiro" />
    <inkscape:path-effect
       effect="spiro"
       id="path-effect3834"
       is_visible="true" />
    <inkscape:path-effect
       effect="spiro"
       id="path-effect3830"
       is_visible="true" />
    <inkscape:path-effect
       effect="spiro"
       id="path-effect3821"
       is_visible="true" />
    <inkscape:path-effect
       effect="spiro"
       id="path-effect3813"
       is_visible="true" />
    <inkscape:path-effect
       is_visible="true"
       id="path-effect3809"
       effect="spiro" />
    <inkscape:path-effect
       effect="spiro"
       id="path-effect3023"
       is_visible="true" />
    <inkscape:path-effect
       effect="spiro"
       id="path-effect3019"
       is_visible="true" />
    <inkscape:path-effect
       effect="spiro"
       id="path-effect3015"
       is_visible="true" />
    <inkscape:path-effect
       effect="spiro"
       id="path-effect2999"
       is_visible="true" />
    <inkscape:path-effect
       effect="spiro"
       id="path-effect2995"
       is_visible="true" />
    <inkscape:path-effect
       effect="spiro"
       id="path-effect2991"
       is_visible="true" />
    <inkscape:path-effect
       effect="spiro"
       id="path-effect2987"
       is_visible="true" />
  </defs>
  <sodipodi:namedview
     id="base"
     pagecolor="#ffffff"
     bordercolor="#666666"
     borderopacity="1.0"
     inkscape:pageopacity="0.0"
     inkscape:pageshadow="2"
     inkscape:zoom="0.93"
     inkscape:cx="249.07849"
     inkscape:cy="249.66622"
     inkscape:document-units="px"
     inkscape:current-layer="layer1"
     showgrid="false"
     fit-margin-top="0"
     fit-margin-left="0"
     fit-margin-right="0"
     fit-margin-bottom="0"
     inkscape:window-width="1249"
     inkscape:window-height="718"
     inkscape:window-x="4"
     inkscape:window-y="0"
     inkscape:window-maximized="0" />
  <metadata
     id="metadata7">
    <rdf:RDF>
      <cc:Work
         rdf:about="">
        <dc:format>image/svg+xml</dc:format>
        <dc:type
           rdf:resource="http://purl.org/dc/dcmitype/StillImage" />
        <dc:title></dc:title>
      </cc:Work>
    </rdf:RDF>
  </metadata>
  <g
     inkscape:label="Layer 1"
     inkscape:groupmode="layer"
     id="layer1"
     transform="translate(-136.60863,-227.00786)">
    <path
       style="fill:#000080;stroke:none;stroke-width:1px;stroke-linecap:butt;stroke-linejoin:miter;stroke-opacity:1;fill-rule:evenodd;opacity:0.25"
       inkscape:path-effect="#path-effect4959"
       inkscape:original-d="m 437.6839,473.41646 c -0.77295,-11.84959 6.64328,-23.17961 6.36481,-35.05112 -0.30189,-12.86982 -2.61786,-26.27359 -8.67417,-37.63337 -2.89141,-5.42339 -8.59713,-8.79662 -12.60946,-13.45222 -14.51791,-16.84544 -26.43477,-35.86669 -41.40649,-52.31011 -6.97309,-7.65853 -13.78186,-15.81494 -22.45383,-21.47833 -7.37501,-4.81639 -15.98506,-7.54409 -24.40201,-10.14091 -9.41837,-2.90578 -19.12204,-6.72798 -28.95223,-6.00927 -7.45968,0.54539 -16.00481,2.20707 -21.07361,7.70721 -6.8631,7.44712 -5.85814,19.40738 -8.07566,29.28889 -2.5215,11.23604 -4.68075,22.58628 -5.92869,34.03395 -1.28437,11.7818 -2.29748,23.6889 -1.58874,35.51929 0.84419,14.09129 -0.0593,29.51391 6.92986,41.77885 4.31903,7.57924 12.80989,11.9469 20.0287,16.84462 9.31563,6.32034 19.7461,10.82164 29.75045,15.98311 8.88271,4.58279 17.50359,9.82289 26.87387,13.30175 9.27904,3.44499 19.00525,5.71141 28.76051,7.38574 10.12042,1.737 20.49142,3.96741 30.68443,2.72531 10.99916,-1.34034 26.46832,-0.90191 31.43602,-10.80646 2.77539,-5.53354 -5.26081,-11.50951 -5.66376,-17.68693 z m -65.5914,-52.68817 c -7.65861,-8.32994 -21.7772,-16.90792 -31.84856,-11.74944 -7.95309,4.07352 -10.85874,17.69344 -7.1673,25.83091 3.48971,7.69277 14.59587,9.13014 22.83676,10.98607 8.94556,2.01463 22.89575,7.7775 27.50845,-0.14745 3.00212,-5.15785 -6.48818,-10.09588 -8.75907,-15.61487 -1.22446,-2.97583 -0.39235,-6.93637 -2.57028,-9.30522 z"
       id="path4957"
       d="m 437.6839,473.41646 c -1.71106,-5.77927 -0.73262,-12.02166 0.9784,-17.80094 1.71102,-5.77929 4.14027,-11.35316 5.38641,-17.25018 2.74456,-12.98789 -0.66785,-27.04486 -8.67417,-37.63337 -3.71,-4.90654 -8.30245,-9.06041 -12.60946,-13.45222 -15.58212,-15.88892 -27.47875,-34.95274 -41.40649,-52.31011 -6.51412,-8.11819 -13.61308,-15.98471 -22.45383,-21.47833 -7.50171,-4.66154 -15.98997,-7.44959 -24.40201,-10.14091 -9.42715,-3.01608 -19.05437,-5.99327 -28.95223,-6.00927 -3.84927,-0.006 -7.72462,0.44566 -11.37657,1.66226 -3.65196,1.2166 -7.07987,3.2223 -9.69704,6.04495 -3.5109,3.78654 -5.39075,8.82899 -6.37308,13.89844 -0.98234,5.06946 -1.14741,10.25663 -1.70258,15.39045 -1.23844,11.4522 -4.41538,22.61482 -5.92869,34.03395 -1.55796,11.75606 -1.33873,23.66308 -1.58874,35.51929 -0.15132,7.1759 -0.47455,14.37729 0.28854,21.51411 0.76309,7.13682 2.67374,14.28354 6.64132,20.26474 4.8657,7.33512 12.43322,12.39628 20.0287,16.84462 9.71497,5.68963 19.80633,10.70419 29.75045,15.98311 8.83336,4.68926 17.58232,9.60248 26.87387,13.30175 9.21999,3.67078 18.91824,6.11588 28.76051,7.38574 10.18575,1.31418 20.50341,1.37492 30.68443,2.72531 6.16887,0.81823 12.44028,2.10809 18.55368,0.9458 3.05669,-0.58114 6.03386,-1.79901 8.40891,-3.80904 2.37506,-2.01004 4.10842,-4.85325 4.47343,-7.94322 0.36744,-3.11058 -0.63671,-6.22182 -1.91734,-9.08026 -1.28064,-2.85844 -2.85723,-5.60333 -3.74642,-8.60667 m -65.5914,-52.68817 c -1.90305,-6.20808 -6.93643,-11.32523 -13.05018,-13.51247 -6.11374,-2.18723 -13.16119,-1.45938 -18.79838,1.76303 -4.39477,2.5122 -7.98267,6.56889 -9.48596,11.40265 -0.75165,2.41688 -0.97924,5.00246 -0.59851,7.50473 0.38073,2.50226 1.37497,4.91657 2.91717,6.92353 2.61267,3.40003 6.60911,5.4544 10.64947,6.89027 4.04037,1.43587 8.26319,2.36731 12.18729,4.0958 4.965,2.18698 9.44506,5.64182 14.75997,6.73074 2.65746,0.54447 5.51264,0.44366 7.96587,-0.714 1.22662,-0.57882 2.33686,-1.41767 3.18363,-2.4772 0.84677,-1.05954 1.42426,-2.34196 1.59898,-3.68699 0.19728,-1.5187 -0.11983,-3.07447 -0.72559,-4.48104 -0.60576,-1.40656 -1.4909,-2.67638 -2.4566,-3.86499 -1.93141,-2.37722 -4.23649,-4.51478 -5.57688,-7.26884 -1.4112,-2.89955 -1.62517,-6.2221 -2.57028,-9.30522"
       inkscape:connector-curvature="0"
       sodipodi:nodetypes="aaaaaaaaaaaaaaaaaaaaaaaaaaa" />
    <path
       style="fill:#fff6d5;stroke:#000000;stroke-width:30;stroke-linecap:butt;stroke-linejoin:round;stroke-miterlimit:4;stroke-opacity:1;stroke-dasharray:none"
       inkscape:path-effect="#path-effect4918"
       inkscape:original-d="m 266.28605,467.82506 c -16.00081,1.79671 -7.62265,-31.29913 -10.71295,-47.10116 -1.47806,-7.55797 -2.70721,-15.16711 -3.74033,-22.79864 -2.51423,-18.57233 -11.24109,-37.91942 -5.97683,-55.90665 6.53211,-22.3193 22.91548,-43.89129 43.64779,-54.42652 14.4719,-7.35397 32.98417,-6.46874 48.64934,-2.21207 22.08781,6.00188 40.62693,22.03133 57.58367,37.40542 16.31951,14.79633 29.30376,33.12446 41.24041,51.63862 7.9733,12.36686 16.13814,25.14271 20.04754,39.32824 3.74954,13.6055 14.00049,33.6462 2.80975,42.24481 -6.26434,4.81332 -16.15939,-2.82467 -22.44488,-7.61034 -14.79238,-11.26268 -19.88579,-31.49179 -31.31856,-46.1531 -12.64088,-16.21059 -25.88563,-32.1442 -41.05166,-46.02104 -13.76913,-12.59868 -26.25727,-33.53391 -44.92015,-33.42184 -10.8041,0.0649 -20.58643,10.17969 -25.77042,19.65909 -4.58584,8.38562 -2.16517,19.02114 -2.34151,28.57715 -0.45689,24.75982 4.65486,49.48876 3.33105,74.21739 -0.40657,7.59478 2.31713,17.59691 -3.45071,22.55453 -6.46669,5.55831 -19.55499,-6.00661 -25.58155,0.0261 z"
       id="path4916"
       d="m 266.28605,467.82506 c -4.45554,-15.48157 -8.03414,-31.21548 -10.71295,-47.10116 -1.28059,-7.59408 -2.35578,-15.22282 -3.74033,-22.79864 -3.38667,-18.53074 -8.6462,-37.25907 -5.97683,-55.90665 1.72654,-12.06123 6.81855,-23.60793 14.47118,-33.08904 7.65263,-9.48112 17.83669,-16.88096 29.17661,-21.33748 15.37186,-6.04105 32.72481,-6.59361 48.64934,-2.21207 22.31,6.13846 40.99785,21.27075 57.58367,37.40542 15.8482,15.41711 30.56857,32.27461 41.24041,51.63862 7.105,12.892 12.35314,26.7791 20.04754,39.32824 4.23245,6.90288 9.27953,13.5796 11.08581,21.47268 0.90314,3.94654 0.93372,8.15868 -0.40765,11.97858 -1.34137,3.81989 -4.14523,7.20333 -7.86841,8.79355 -3.86035,1.6488 -8.37757,1.25677 -12.25791,-0.34444 -3.88033,-1.60121 -7.20228,-4.3142 -10.18697,-7.2659 -13.25136,-13.10491 -20.51939,-30.9638 -31.31856,-46.1531 -11.92075,-16.76683 -28.01937,-30.10281 -41.05166,-46.02104 -6.15774,-7.52134 -11.66263,-15.65377 -18.81104,-22.24077 -3.5742,-3.2935 -7.55784,-6.18449 -11.97345,-8.21538 -4.41561,-2.03089 -9.28024,-3.18249 -14.13566,-2.96569 -5.71433,0.25515 -11.29727,2.42886 -15.80439,5.95087 -4.50711,3.52201 -7.94008,8.359 -9.96603,13.70822 -3.41109,9.00649 -2.82133,18.95831 -2.34151,28.57715 1.23386,24.73491 1.4214,49.52546 3.33105,74.21739 0.29999,3.87891 0.64245,7.77829 0.2931,11.65307 -0.34936,3.87478 -1.43606,7.76933 -3.74381,10.90146 -2.93873,3.98851 -7.82997,6.4633 -12.78419,6.46836 -4.95422,0.005 -9.8505,-2.45976 -12.79736,-6.44226 l 0,1e-5"
       inkscape:connector-curvature="0"
       sodipodi:nodetypes="aaaaaaaaaaaaaaaaaaaa" />
    <path
       style="fill:#f4eed7;stroke:#000000;stroke-width:30;stroke-linecap:butt;stroke-linejoin:round;stroke-miterlimit:4;stroke-opacity:1;stroke-dasharray:none"
       inkscape:path-effect="#path-effect4914"
       inkscape:original-d="m 239.40433,452.7713 c 23.13323,-3.02438 9.26222,46.00311 17.99318,67.63788 9.16347,22.70652 23.72897,42.83888 35.67706,64.21172 9.30671,16.64792 16.28817,34.85673 28.05019,49.87083 10.22609,13.0535 21.01954,27.52355 36.26016,34.05735 19.60483,8.40479 42.57015,4.20542 63.8914,3.57754 26.81171,-0.78957 53.27481,-6.3122 79.94018,-9.21894 18.81007,-2.05045 38.16568,-0.99648 56.46749,-5.7993 15.90438,-4.17368 37.93469,-4.96513 45.22205,-19.70498 10.43683,-21.11016 -10.34647,-45.97758 -16.89969,-68.59664 -4.82824,-16.66513 -9.5765,-33.45717 -16.49449,-49.36879 -7.37308,-16.95835 -15.79053,-33.66005 -26.48902,-48.74283 -10.06722,-14.19282 -18.72313,-32.66543 -35.04898,-38.68635 -19.24824,-7.09868 -40.855,4.20624 -61.04265,7.85929 -15.57312,2.81803 -30.50568,9.01414 -46.22796,10.82341 -27.77655,3.19644 -55.98533,1.84392 -83.87957,-0.0707 -16.67658,-1.14466 -33.03196,-8.28116 -49.68291,-6.80994 -9.67826,0.85514 -19.88087,14.678 -27.73644,8.96048 z"
       id="path4912"
       d="m 239.40433,452.7713 c 2.28849,23.32066 8.39157,46.26267 17.99318,67.63788 10.03797,22.34665 23.77143,42.80168 35.67706,64.21172 9.2728,16.67539 17.47123,33.99194 28.05019,49.87083 9.31726,13.98509 20.94136,27.14877 36.26016,34.05735 9.85326,4.44369 20.78664,6.07664 31.59508,6.18058 10.80844,0.10394 21.56991,-1.26987 32.29632,-2.60304 26.61887,-3.30841 53.26699,-6.38155 79.94018,-9.21894 18.81537,-2.00151 37.64298,-3.88569 56.46749,-5.7993 8.5047,-0.86455 17.10001,-1.75485 25.17154,-4.57049 8.07153,-2.81563 15.69215,-7.78044 20.05051,-15.13449 3.14732,-5.31061 4.42704,-11.60469 4.23674,-17.77494 -0.19029,-6.17025 -1.79529,-12.23394 -4.08903,-17.96516 -4.58748,-11.46245 -11.87215,-21.6472 -17.0474,-32.85654 -7.27853,-15.76493 -10.22214,-33.17719 -16.49449,-49.36879 -6.68882,-17.26668 -17.02819,-32.82519 -26.48902,-48.74283 -4.5318,-7.62466 -8.90006,-15.39514 -14.43973,-22.32224 -5.53967,-6.9271 -12.38279,-13.04778 -20.60925,-16.36411 -9.73572,-3.92476 -20.72171,-3.64905 -30.99588,-1.49743 -10.27417,2.15162 -20.0746,6.07894 -30.04677,9.35672 -15.05201,4.94749 -30.56525,8.43172 -46.22796,10.82341 -27.76917,4.24034 -56.25616,5.0337 -83.87957,-0.0707 -16.49841,-3.04866 -32.9634,-8.20627 -49.68291,-6.80994 -9.76752,0.81573 -19.3378,3.90749 -27.73644,8.96048 l 0,-3e-5"
       inkscape:connector-curvature="0"
       sodipodi:nodetypes="aaaaaaaaaaaaaaaaaaa" />
    <path
       style="fill:none;stroke:#000000;stroke-width:30;stroke-linecap:butt;stroke-linejoin:round;stroke-miterlimit:4;stroke-opacity:1;stroke-dasharray:none"
       inkscape:path-effect="#path-effect4922"
       inkscape:original-d="m 341.55487,546.31969 c 10.3879,-16.94753 26.69875,-24.90668 39.78494,-37.63441 2.90692,-2.82729 4.22833,-7.35527 8.60215,-8.60215"
       id="path4920"
       d="m 341.55487,546.31969 c 13.54442,-12.2413 26.81064,-24.79042 39.78494,-37.63441 2.88183,-2.85289 5.74926,-5.72032 8.60215,-8.60215"
       inkscape:connector-curvature="0"
       sodipodi:nodetypes="cac" />
    <path
       style="fill:none;stroke:#000000;stroke-width:30;stroke-linecap:butt;stroke-linejoin:round;stroke-miterlimit:4;stroke-opacity:1;stroke-dasharray:none"
       inkscape:path-effect="#path-effect4926"
       inkscape:original-d="m 331.87745,497.93259 c 4.79685,2.72664 5.75141,3.18491 8.59493,4.83373 14.81209,8.58879 28.44928,19.38978 44.09324,26.34907 4.45422,1.98148 13.41968,4.49178 13.97849,4.30107"
       id="path4924"
       d="m 331.87745,497.93259 c 2.91019,1.52903 5.77672,3.14114 8.59493,4.83373 14.70145,8.82954 28.20065,19.90554 44.09324,26.34907 4.52353,1.83403 9.20638,3.27491 13.97849,4.30107"
       inkscape:connector-curvature="0"
       sodipodi:nodetypes="caac" />
    <path
       style="fill:none;stroke:#000000;stroke-width:30;stroke-linecap:butt;stroke-linejoin:round;stroke-miterlimit:4;stroke-opacity:1;stroke-dasharray:none"
       inkscape:path-effect="#path-effect4930"
       inkscape:original-d="m 470.58712,533.41646 c 8.74889,-20.47136 26.96935,-35.59874 41.93549,-51.6129"
       id="path4928"
       d="m 470.58712,533.41646 41.93549,-51.6129"
       inkscape:connector-curvature="0"
       sodipodi:nodetypes="cc" />
    <path
       style="fill:none;stroke:#000000;stroke-width:30;stroke-linecap:butt;stroke-linejoin:round;stroke-miterlimit:4;stroke-opacity:1;stroke-dasharray:none"
       inkscape:path-effect="#path-effect4934"
       inkscape:original-d="m 470.58712,490.40571 c 19.38501,7.55717 32.28852,23.93771 51.61291,31.1828"
       id="path4932"
       d="m 470.58712,490.40571 51.61291,31.1828"
       inkscape:connector-curvature="0"
       sodipodi:nodetypes="cc" />
    <path
       style="fill:none;stroke:#000000;stroke-width:30;stroke-linecap:butt;stroke-linejoin:round;stroke-miterlimit:4;stroke-opacity:1;stroke-dasharray:none"
       inkscape:path-effect="#path-effect4938"
       inkscape:original-d="m 399.61938,617.28743 c 40.03925,-10.13684 81.68737,-12.63653 122.48017,-9.15938 6.6601,0.5677 13.1403,1.29196 19.45532,4.8583"
       id="path4936"
       d="m 399.61938,617.28743 c 38.95266,-14.20332 81.84826,-17.41116 122.48017,-9.15938 6.55268,1.33076 13.04629,2.95232 19.45532,4.8583"
       inkscape:connector-curvature="0"
       sodipodi:nodetypes="cac" />
    <path
       style="fill:#000080;stroke:none;stroke-width:1px;stroke-linecap:butt;stroke-linejoin:miter;stroke-opacity:1;opacity:0.25"
       inkscape:path-effect="#path-effect4949"
       inkscape:original-d="m 236.60863,478.79281 c -7.01462,16.5951 -3.76627,36.30747 -0.61611,54.04666 5.07181,28.56037 21.63962,53.86183 30.89142,81.35405 6.09804,18.12065 3.14776,41.05174 16.20032,55.02224 13.23442,14.16514 36.05465,14.35276 54.5456,20.17393 27.22753,8.57154 55.03187,15.25998 82.84974,21.66118 21.02648,4.83843 42.02791,14.94653 63.48079,12.64502 18.38613,-1.9725 33.45605,-15.90837 50.86907,-22.13151 13.99302,-5.00089 28.8583,-7.26417 42.89087,-12.15296 14.26926,-4.97125 33.85927,-4.59374 41.85163,-17.41745 8.14142,-13.06288 6.44702,-33.82114 -2.84959,-46.08876 -8.88345,-11.72242 -27.27219,-11.4934 -41.66334,-14.53079 -23.13624,-4.88312 -47.24843,-2.74055 -70.70846,-5.69989 -19.60974,-2.47365 -39.06753,-6.11949 -58.43539,-10.06245 -18.14897,-3.69482 -36.11232,-8.25906 -54.08596,-12.72954 -17.12286,-4.25887 -35.71362,-4.97406 -51.20315,-13.42419 -25.89814,-14.12841 -44.71103,-38.62166 -65.21284,-59.8349 -11.43361,-11.83036 -15.67036,-36.82622 -32.10966,-37.48511 -3.14398,-0.12601 -5.46988,3.75625 -6.69494,6.65447 z"
       id="path4947"
       d="m 236.60863,478.79281 c -5.10554,7.82427 -6.99028,17.44172 -6.61411,26.77683 0.37616,9.33511 2.88724,18.46024 5.998,27.26983 9.67603,27.40229 25.32731,52.83122 30.89142,81.35405 1.85689,9.51882 2.55373,19.23867 4.50743,28.73809 1.95369,9.49942 5.30511,18.98675 11.69289,26.28415 6.53092,7.46092 15.7832,12.08834 25.30448,14.85666 9.52127,2.76831 19.43597,3.84173 29.24112,5.31727 28.27332,4.25474 55.96496,11.93018 82.84974,21.66118 10.26684,3.7161 20.45227,7.74189 31.03531,10.42828 10.58304,2.6864 21.67465,4.00745 32.44548,2.21674 18.31557,-3.04507 33.88546,-14.62888 50.86907,-22.13151 13.62385,-6.01843 28.24863,-9.42616 42.89087,-12.15296 7.58477,-1.4125 15.24093,-2.66133 22.53698,-5.16964 7.29604,-2.5083 14.30263,-6.38236 19.31465,-12.24781 5.50682,-6.4445 8.2796,-15.11505 7.70072,-23.57209 -0.57889,-8.45704 -4.46482,-16.61553 -10.55031,-22.51667 -5.38522,-5.22207 -12.31819,-8.63965 -19.51174,-10.7665 -7.19355,-2.12685 -14.68627,-3.02984 -22.1516,-3.76429 -23.53401,-2.31531 -47.21084,-3.04054 -70.70846,-5.69989 -19.64881,-2.22376 -39.12699,-5.79554 -58.43539,-10.06245 -18.08515,-3.99659 -36.02988,-8.60361 -54.08596,-12.72954 -17.21303,-3.93329 -34.58896,-7.44691 -51.20315,-13.42419 -14.41267,-5.18524 -28.28083,-12.28533 -39.92311,-22.23868 -11.64228,-9.95335 -20.9909,-22.89479 -25.28973,-37.59622 -2.69107,-9.20308 -3.46016,-19.12845 -8.17709,-27.47645 -2.35847,-4.17399 -5.75053,-7.87956 -10.0749,-9.94944 -2.16219,-1.03494 -4.53689,-1.6466 -6.93363,-1.68882 -2.39674,-0.0422 -4.8132,0.49359 -6.92404,1.6296 -2.8001,1.50695 -4.95723,3.99142 -6.69494,6.65447"
       inkscape:connector-curvature="0"
       sodipodi:nodetypes="aaaaaaaaaaaaaaaaaaa" />
  </g>
</svg>
