<?xml version="1.0" encoding="UTF-8" standalone="no"?>
<!-- Created with Inkscape (http://www.inkscape.org/) -->

<svg
   xmlns:dc="http://purl.org/dc/elements/1.1/"
   xmlns:cc="http://creativecommons.org/ns#"
   xmlns:rdf="http://www.w3.org/1999/02/22-rdf-syntax-ns#"
   xmlns:svg="http://www.w3.org/2000/svg"
   xmlns="http://www.w3.org/2000/svg"
   xmlns:sodipodi="http://sodipodi.sourceforge.net/DTD/sodipodi-0.dtd"
   xmlns:inkscape="http://www.inkscape.org/namespaces/inkscape"
   width="512"
   height="512"
   id="svg2"
   version="1.1"
   inkscape:version="0.48.5 r10040"
   sodipodi:docname="player-right.svg"
   inkscape:export-filename="/Users/darabos/Documents/fragmented-space/images/player-flyright.png"
   inkscape:export-xdpi="5.6199999"
   inkscape:export-ydpi="5.6199999">
  <defs
     id="defs4">
    <inkscape:path-effect
       effect="spiro"
       id="path-effect7902"
       is_visible="true" />
    <inkscape:path-effect
       is_visible="true"
       id="path-effect3855"
       effect="spiro" />
    <inkscape:path-effect
       effect="spiro"
       id="path-effect3847"
       is_visible="true" />
    <inkscape:path-effect
       is_visible="true"
       id="path-effect3843"
       effect="spiro" />
    <inkscape:path-effect
       is_visible="true"
       id="path-effect3841"
       effect="spiro" />
    <inkscape:path-effect
       is_visible="true"
       id="path-effect3839"
       effect="spiro" />
    <inkscape:path-effect
       effect="spiro"
       id="path-effect3834"
       is_visible="true" />
    <inkscape:path-effect
       effect="spiro"
       id="path-effect3830"
       is_visible="true" />
    <inkscape:path-effect
       effect="spiro"
       id="path-effect3821"
       is_visible="true" />
    <inkscape:path-effect
       effect="spiro"
       id="path-effect3813"
       is_visible="true" />
    <inkscape:path-effect
       is_visible="true"
       id="path-effect3809"
       effect="spiro" />
    <inkscape:path-effect
       effect="spiro"
       id="path-effect3023"
       is_visible="true" />
    <inkscape:path-effect
       effect="spiro"
       id="path-effect3019"
       is_visible="true" />
    <inkscape:path-effect
       effect="spiro"
       id="path-effect3015"
       is_visible="true" />
    <inkscape:path-effect
       effect="spiro"
       id="path-effect2999"
       is_visible="true" />
    <inkscape:path-effect
       effect="spiro"
       id="path-effect2995"
       is_visible="true" />
    <inkscape:path-effect
       effect="spiro"
       id="path-effect2991"
       is_visible="true" />
    <inkscape:path-effect
       effect="spiro"
       id="path-effect2987"
       is_visible="true" />
    <inkscape:path-effect
       is_visible="true"
       id="path-effect2987-2"
       effect="spiro" />
    <inkscape:path-effect
       is_visible="true"
       id="path-effect2991-9"
       effect="spiro" />
    <inkscape:path-effect
       is_visible="true"
       id="path-effect2995-1"
       effect="spiro" />
    <inkscape:path-effect
       is_visible="true"
       id="path-effect2999-0"
       effect="spiro" />
    <inkscape:path-effect
       is_visible="true"
       id="path-effect3015-1"
       effect="spiro" />
    <inkscape:path-effect
       is_visible="true"
       id="path-effect3019-6"
       effect="spiro" />
    <inkscape:path-effect
       is_visible="true"
       id="path-effect3023-5"
       effect="spiro" />
    <inkscape:path-effect
       effect="spiro"
       id="path-effect3809-9"
       is_visible="true" />
    <inkscape:path-effect
       is_visible="true"
       id="path-effect3813-7"
       effect="spiro" />
    <inkscape:path-effect
       is_visible="true"
       id="path-effect3821-5"
       effect="spiro" />
    <inkscape:path-effect
       is_visible="true"
       id="path-effect3830-6"
       effect="spiro" />
    <inkscape:path-effect
       is_visible="true"
       id="path-effect3834-0"
       effect="spiro" />
    <inkscape:path-effect
       effect="spiro"
       id="path-effect3839-4"
       is_visible="true" />
    <inkscape:path-effect
       effect="spiro"
       id="path-effect3841-0"
       is_visible="true" />
    <inkscape:path-effect
       effect="spiro"
       id="path-effect3843-6"
       is_visible="true" />
    <inkscape:path-effect
       is_visible="true"
       id="path-effect3847-9"
       effect="spiro" />
    <inkscape:path-effect
       effect="spiro"
       id="path-effect3855-2"
       is_visible="true" />
    <inkscape:path-effect
       effect="spiro"
       id="path-effect3824"
       is_visible="true" />
  </defs>
  <sodipodi:namedview
     id="base"
     pagecolor="#ffffff"
     bordercolor="#666666"
     borderopacity="1.0"
     inkscape:pageopacity="0.0"
     inkscape:pageshadow="2"
     inkscape:zoom="0.44"
     inkscape:cx="273.22535"
     inkscape:cy="249.66622"
     inkscape:document-units="px"
     inkscape:current-layer="layer1"
     showgrid="false"
     fit-margin-top="0"
     fit-margin-left="0"
     fit-margin-right="0"
     fit-margin-bottom="0"
     inkscape:window-width="754"
     inkscape:window-height="716"
     inkscape:window-x="466"
     inkscape:window-y="0"
     inkscape:window-maximized="0" />
  <metadata
     id="metadata7">
    <rdf:RDF>
      <cc:Work
         rdf:about="">
        <dc:format>image/svg+xml</dc:format>
        <dc:type
           rdf:resource="http://purl.org/dc/dcmitype/StillImage" />
        <dc:title></dc:title>
      </cc:Work>
    </rdf:RDF>
  </metadata>
  <g
     inkscape:label="Layer 1"
     inkscape:groupmode="layer"
     id="layer1"
     transform="translate(-136.60863,-227.00786)">
    <path
       style="fill:#d5e5ff;stroke:#000000;stroke-width:30;stroke-linecap:butt;stroke-linejoin:round;stroke-miterlimit:4;stroke-opacity:1;stroke-dasharray:none"
       inkscape:path-effect="#path-effect3839"
       inkscape:original-d="m 316.87401,550.86244 c 4.03167,17.64733 -10.31512,24.47295 -21.42049,25.8489 -13.9547,1.72899 -20.56292,-28.97604 -34.02959,-24.9298 -25.04373,7.52471 -39.68611,50.56015 -27.25103,73.56404 5.55251,10.27171 22.50841,6.87422 34.14715,7.81149 11.32528,0.91204 22.93633,0.33234 34.01568,-2.18597 16.5191,-3.75474 34.99307,-7.17845 47.14254,-18.98391 13.54139,-13.15797 18.80103,-33.4313 22.6589,-51.91422 0.89615,-4.29344 0.11356,-9.02091 0,-13.15789 z"
       id="path3033"
       d="m 316.87401,550.86244 c 1.05802,3.16972 1.29447,6.60984 0.68007,9.89451 -0.61439,3.28467 -2.07829,6.40674 -4.21048,8.97973 -2.1322,2.57299 -4.92803,4.59131 -8.04143,5.8051 -3.1134,1.2138 -6.53757,1.62043 -9.84865,1.16956 -3.53735,-0.48168 -6.8978,-1.92103 -9.90935,-3.83816 -3.01155,-1.91714 -5.69574,-4.30574 -8.23843,-6.81164 -5.08539,-5.01181 -9.75606,-10.61195 -15.88181,-14.28 -8.95995,-5.36515 -20.52756,-5.89361 -30.1258,-1.77788 -9.59824,4.11574 -17.0919,12.65571 -20.36633,22.57254 -3.27442,9.91684 -2.40303,21.04819 1.95102,30.5407 4.35406,9.49251 12.07352,17.31741 21.29008,22.22868 10.39521,5.53935 22.37557,7.39361 34.14715,7.81149 11.37164,0.40368 22.7696,-0.45312 34.01568,-2.18597 16.97976,-2.61633 34.29729,-7.57527 47.14254,-18.98391 7.24361,-6.43348 12.75908,-14.70014 16.45638,-23.655 3.69729,-8.95487 5.61187,-18.58913 6.20252,-28.25922 0.26756,-4.38052 0.26756,-8.77737 0,-13.15789 l -55.26316,3.94736"
       inkscape:connector-curvature="0"
       sodipodi:nodetypes="caaaaaaacc" />
    <path
       style="fill:#d5e5ff;stroke:#000000;stroke-width:30;stroke-linecap:butt;stroke-linejoin:round;stroke-miterlimit:4;stroke-opacity:1;stroke-dasharray:none"
       inkscape:path-effect="#path-effect3841"
       inkscape:original-d="m 436.02067,550.86246 c -16.08456,11.17785 -14.49337,38.551 -27.16551,54.35093 -8.97893,11.19514 -28.99999,13.49405 -33.41368,27.14951 -4.19834,12.98915 -0.84949,32.19489 10.65559,39.5418 12.24842,7.82158 29.64839,-1.59238 42.96265,-7.41745 13.37165,-5.85018 27.00082,-14.26804 34.75473,-26.63341 10.17889,-16.23256 10.09944,-37.19595 11.6019,-56.29695 0.69988,-8.89774 -4.14345,-23.35368 -1.23779,-26.74705 z"
       id="path3031"
       d="m 436.02067,550.86246 c -0.3214,20.94566 -10.60558,41.52156 -27.16551,54.35093 -5.72262,4.43345 -12.09171,7.95144 -18.06866,12.03554 -5.97696,4.0841 -11.67927,8.87169 -15.34502,15.11397 -3.88537,6.61627 -5.22442,14.75359 -3.33516,22.19011 1.88925,7.43652 7.0693,14.04039 13.99075,17.35169 6.81451,3.26014 14.83449,3.25187 22.1679,1.4388 7.3334,-1.81308 14.12644,-5.30665 20.79475,-8.85625 13.00926,-6.92494 26.28829,-14.57044 34.75473,-26.63341 5.60194,-7.98163 8.75128,-17.4861 10.29382,-27.11463 1.54254,-9.62854 1.54441,-19.43387 1.30808,-29.18232 -0.21632,-8.92332 -0.62905,-17.84189 -1.23779,-26.74705 l -38.15789,-3.94738"
       inkscape:connector-curvature="0"
       sodipodi:nodetypes="caaaaaacc" />
    <path
       style="fill:#ffeeaa;stroke:#000000;stroke-width:30;stroke-linecap:butt;stroke-linejoin:round;stroke-miterlimit:4;stroke-opacity:1;stroke-dasharray:none"
       inkscape:path-effect="#path-effect3843-6"
       inkscape:original-d="m 225.87572,286.77983 c 26.87356,-36.64041 92.24194,-48.54223 132.72344,-31.09437 23.8409,15.09665 -8.45763,48.73907 5.21905,66.10203 7.60188,9.65082 23.94649,31.269 35.03991,11.42567 19.42657,-15.9333 16.45583,-65.228 43.41036,-69.31847 35.14369,-5.3332 53.61833,48.95416 80.86393,69.51777 77.08152,-6.23251 53.61287,-36.23067 51.2622,19.95341 -0.76041,18.17486 27.24286,98.40295 -1.09029,132.12123 -16.57812,19.72903 -50.28774,13.0106 -76.04028,13.94607 -61.17719,2.22229 -121.41738,-22.81238 -182.56732,-19.93634 -24.88378,1.17035 -53.31871,30.05626 -73.20281,15.04979 C 186.05834,452.70957 184.80103,342.7826 225.87572,286.77983 z"
       id="path3021-5"
       d="m 225.87572,286.77983 c 38.53918,-25.92394 86.67986,-37.20231 132.72344,-31.09437 -7.8687,9.38303 -11.87516,21.91082 -10.91131,34.11854 0.96386,12.20773 6.88667,23.95156 16.13036,31.98349 9.52571,8.27698 22.46609,12.49653 35.03991,11.42567 -2.20327,-14.67805 1.00885,-30.10744 8.88662,-42.6868 7.87776,-12.57936 20.35657,-22.20553 34.52374,-26.63167 10.12721,-3.16396 21.06133,-3.70661 31.45205,-1.56091 10.39071,2.1457 20.21551,6.97508 28.26105,13.89174 8.04554,6.91666 14.29441,15.90561 17.97488,25.85675 3.68047,9.95113 4.78457,20.8429 3.17595,31.33019 18.58029,1.24687 36.72835,8.31086 51.2622,19.95341 20.0075,16.02729 32.83799,41.04145 33.0081,66.67629 0.0851,12.81742 -2.90358,25.66318 -8.77924,37.05485 -5.87566,11.39166 -14.64092,21.30003 -25.31915,28.39009 -10.94726,7.26869 -23.72379,11.50701 -36.71814,13.46231 -12.99435,1.95529 -26.23729,1.69327 -39.32214,0.48376 -30.66328,-2.83438 -60.58294,-10.80428 -90.83016,-16.58148 -30.24722,-5.77719 -61.53298,-9.35304 -91.73716,-3.35486 -24.52749,4.87086 -48.21451,16.00259 -73.20281,15.04979 -22.9703,-0.87586 -45.04408,-12.46958 -59.90049,-30.01065 -14.8564,-17.54106 -22.60592,-40.6388 -22.77854,-63.62514 -0.17263,-22.98634 6.99834,-45.7731 19.07106,-65.33457 12.07273,-19.56146 28.91641,-35.96645 47.98978,-48.79643"
       inkscape:connector-curvature="0"
       sodipodi:nodetypes="acacacsaaaaa" />
    <path
       style="fill:#ffffff;stroke:#000000;stroke-width:30;stroke-linecap:butt;stroke-linejoin:round;stroke-miterlimit:4;stroke-opacity:1;stroke-dasharray:none"
       inkscape:path-effect="#path-effect3023-5"
       inkscape:original-d="m 535.4672,473.59127 c 1.82022,23.58878 -0.13395,52.83593 -17.64123,68.74942 -18.00776,16.36841 -47.88084,9.18019 -72.12059,11.33392 -41.01126,3.6439 -82.44749,5.90759 -123.49029,2.6381 -24.52174,-1.95341 -53.09665,1.75276 -72.60141,-13.23711 -13.71277,-10.53859 -35.72914,-27.85091 -22.12927,-46.92774 14.61101,4.22416 51.44122,-4.19335 74.42753,-14.7419 47.56969,-21.83 72.54167,-85.22716 123.56725,-96.88113 26.36049,-6.0206 58.394,0.14672 79.2356,17.37318 20.04322,16.56656 28.75181,45.76684 30.75241,71.69326 z"
       id="path3029-6"
       d="m 535.4672,473.59127 c 1.54301,12.25041 2.20552,24.76532 -0.17547,36.88078 -2.38099,12.11546 -8.04248,23.89022 -17.46576,31.86864 -9.54491,8.0814 -22.19643,11.69276 -34.66485,12.6689 -12.46841,0.97614 -24.97977,-0.4607 -37.45574,-1.33498 -41.10244,-2.88033 -82.35073,0.34834 -123.49029,2.6381 -12.54804,0.6984 -25.17842,1.30689 -37.64699,-0.26659 -12.46857,-1.57348 -24.88234,-5.45425 -34.95442,-12.97052 -14.42892,-10.76756 -23.00075,-28.94512 -22.12927,-46.92774 25.52741,3.27908 52.07743,-1.9797 74.42753,-14.7419 22.92727,-13.09177 40.76513,-33.28204 59.27393,-52.10964 18.50879,-18.82761 39.01431,-37.15404 64.29332,-44.77149 13.55867,-4.0857 28.1399,-4.86976 41.99496,-1.94269 13.85507,2.92707 26.94452,9.59371 37.24064,19.31587 9.64671,9.10896 16.72196,20.71909 21.56602,33.0709 4.84406,12.35181 7.52835,25.45866 9.18639,38.62236"
       inkscape:connector-curvature="0"
       sodipodi:nodetypes="aaaaacaaaa" />
    <path
       id="path3832"
       style="opacity:0.25;fill:#000080;stroke:none"
       inkscape:path-effect="#path-effect3834"
       inkscape:original-d="m 368.31714,555.58799 c 1.26247,2.07144 -1.34444,4.66802 -2.21521,6.93219 -1.27074,3.30414 -2.71507,6.55075 -4.37897,9.67542 -2.57114,4.82842 -5.79894,9.27786 -8.62835,13.95962 -1.72609,2.85612 -2.926,6.08121 -5.09225,8.61974 -1.28077,1.50088 -3.24755,2.30098 -4.5594,3.77477 -2.56935,2.88652 -4.16142,6.51347 -6.30862,9.72643 -1.8972,2.83887 -3.90573,5.6022 -5.80804,8.43765 -3.13795,4.67722 -4.68366,10.83986 -9.24572,14.143 -3.87408,2.80501 -9.50976,5.69669 -13.8608,3.71048 -7.91464,-3.61295 -9.59112,-14.96466 -11.41773,-23.47104 -1.13866,-5.30263 -0.77884,-10.98876 0.48338,-16.26335 0.5991,-2.50352 2.24178,-4.63563 3.28977,-6.98685 1.50409,-3.37451 2.11727,-7.23502 4.30108,-10.21505 2.78055,-3.79434 6.67811,-6.78899 10.75269,-9.13979 5.41165,-3.12221 11.85598,-3.96789 17.65713,-6.28756 4.2178,-1.68654 8.24515,-3.82277 12.45039,-5.54039 2.96791,-1.21224 5.82043,-3.05556 9.0119,-3.35975 4.56588,-0.43519 11.18178,-1.63203 13.56875,2.28448 z m 105.37634,0 c -4.6176,5.0583 0.79843,13.6969 1.86779,20.46189 0.74565,4.71716 2.72843,9.21793 3.16185,13.97395 0.52867,5.80117 0.36627,11.7366 -0.71211,17.46112 -1.34226,7.12528 -2.91715,14.63161 -7.08215,20.56659 -2.11627,3.01561 -5.19022,5.55154 -8.60364,6.93758 -4.14489,1.68306 -9.34571,3.21248 -13.36292,1.24403 -4.19654,-2.05632 -6.00357,-7.40994 -7.52688,-11.82796 -4.10482,-11.90515 -3.53987,-25.00776 -3.67121,-37.60002 -0.0854,-8.18847 -0.32255,-16.60691 1.87679,-24.49495 0.99757,-3.57786 1.91224,-7.91415 5.02022,-9.94804 5.40673,-3.53822 12.99351,-2.20895 19.35484,-1.07527 3.21375,0.57274 6.08442,2.39674 8.98843,3.88769 0.12469,0.064 0.24038,0.14423 0.36057,0.21634 0.10947,0.0657 0.3625,0.074 0.32842,0.19705 z"
       d="m 368.31714,555.58799 c 0.26399,1.21409 -9.6e-4,2.49055 -0.47339,3.63969 -0.47243,1.14914 -1.14516,2.20268 -1.74182,3.2925 -1.70069,3.10639 -2.7854,6.51274 -4.37897,9.67542 -2.46309,4.88837 -6.09555,9.10701 -8.62835,13.95962 -1.55143,2.9724 -2.73115,6.23913 -5.09225,8.61974 -1.3904,1.40189 -3.1229,2.42016 -4.5594,3.77477 -2.82317,2.66222 -4.30247,6.40482 -6.30862,9.72643 -1.76569,2.92347 -3.97058,5.55874 -5.80804,8.43765 -3.04177,4.76581 -5.13147,10.26509 -9.24572,14.143 -1.8275,1.72252 -4.02852,3.07251 -6.44054,3.77182 -2.41202,0.6993 -5.03666,0.72943 -7.42026,-0.0613 -2.19287,-0.7275 -4.13251,-2.12827 -5.65309,-3.86775 -1.52058,-1.73948 -2.63487,-3.80931 -3.42533,-5.98028 -1.58091,-4.34195 -1.87946,-9.02515 -2.33931,-13.62301 -0.54442,-5.44337 -1.31296,-11.09616 0.48338,-16.26335 0.84588,-2.43318 2.22712,-4.64023 3.28977,-6.98685 1.52595,-3.36972 2.40154,-7.04088 4.30108,-10.21505 2.45045,-4.09475 6.45269,-7.07057 10.75269,-9.13979 5.6338,-2.71106 11.8335,-4.01273 17.65713,-6.28756 4.23179,-1.65303 8.24821,-3.81346 12.45039,-5.54039 2.9655,-1.2187 6.0158,-2.21835 9.0119,-3.35975 2.45396,-0.93486 4.96128,-1.98202 7.5863,-1.91004 1.3125,0.036 2.63478,0.36666 3.73677,1.08051 1.10199,0.71386 1.96671,1.83099 2.24568,3.11401 m 105.37634,0 c -0.29008,6.86318 0.33989,13.76466 1.86779,20.46189 1.0629,4.65901 2.56026,9.23325 3.16185,13.97395 0.73561,5.79678 0.11092,11.67611 -0.71211,17.46112 -1.03382,7.26663 -2.52261,14.81478 -7.08215,20.56659 -2.30552,2.90839 -5.31272,5.22179 -8.60364,6.93758 -2.0613,1.0747 -4.26333,1.92957 -6.56706,2.24066 -2.30373,0.31108 -4.72163,0.0529 -6.79586,-0.99663 -2.15091,-1.08834 -3.82649,-2.96934 -5.00794,-5.07055 -1.18144,-2.10122 -1.90539,-4.42622 -2.51894,-6.75741 -3.21406,-12.2118 -3.59801,-24.97255 -3.67121,-37.60002 -0.0476,-8.20807 0.0371,-16.49556 1.87679,-24.49495 0.42332,-1.84069 0.94173,-3.66897 1.73307,-5.38393 0.79135,-1.71497 1.86617,-3.31986 3.28715,-4.56411 2.54869,-2.2317 6.05159,-3.14723 9.439,-3.10533 3.38742,0.0419 6.70109,0.96155 9.91584,2.03006 3.10387,1.03165 6.1765,2.21696 8.98843,3.88769 0.1205,0.0716 0.24048,0.14406 0.36057,0.21634 0.10938,0.0658 0.21886,0.13152 0.32842,0.19705"
       inkscape:connector-curvature="0"
       sodipodi:nodetypes="aaaaaaaaaaaaaaaaaaaaaaaaaaaaaaaaaa" />
    <path
       style="fill:none;stroke:#000000;stroke-width:20;stroke-linecap:butt;stroke-linejoin:miter;stroke-miterlimit:4;stroke-opacity:1;stroke-dasharray:none"
       inkscape:path-effect="#path-effect7902"
       inkscape:original-d="m 445.69953,439.00786 c 8.71909,7.14952 16.22141,15.60496 23.89643,23.82894 5.82692,6.2437 11.51658,12.63442 16.79665,19.34692 3.15716,4.01366 6.48845,7.97212 8.87736,12.48546 0.19243,0.36356 0.27099,0.77713 0.42957,1.15686"
       id="path7900"
       d="m 445.69953,439.00786 c 8.39773,7.49318 16.37953,15.45244 23.89643,23.82894 5.70406,6.35635 11.13821,12.94992 16.79665,19.34692 3.40104,3.84495 6.95209,7.72688 8.87736,12.48546 0.1543,0.38137 0.29757,0.76721 0.42957,1.15686"
       inkscape:connector-curvature="0"
       sodipodi:nodetypes="caaac" />
  </g>
</svg>
