<?xml version="1.0" encoding="UTF-8" standalone="no"?>
<!-- Created with Inkscape (http://www.inkscape.org/) -->

<svg
   xmlns:dc="http://purl.org/dc/elements/1.1/"
   xmlns:cc="http://creativecommons.org/ns#"
   xmlns:rdf="http://www.w3.org/1999/02/22-rdf-syntax-ns#"
   xmlns:svg="http://www.w3.org/2000/svg"
   xmlns="http://www.w3.org/2000/svg"
   xmlns:sodipodi="http://sodipodi.sourceforge.net/DTD/sodipodi-0.dtd"
   xmlns:inkscape="http://www.inkscape.org/namespaces/inkscape"
   width="512"
   height="512"
   id="svg2"
   version="1.1"
   inkscape:version="0.48.5 r10040"
   sodipodi:docname="player-idling.svg"
   inkscape:export-filename="/Users/darabos/Documents/fragmented-space/images/player-idling.png"
   inkscape:export-xdpi="5.6199999"
   inkscape:export-ydpi="5.6199999">
  <defs
     id="defs4">
    <inkscape:path-effect
       is_visible="true"
       id="path-effect3855"
       effect="spiro" />
    <inkscape:path-effect
       effect="spiro"
       id="path-effect3847"
       is_visible="true" />
    <inkscape:path-effect
       is_visible="true"
       id="path-effect3843"
       effect="spiro" />
    <inkscape:path-effect
       is_visible="true"
       id="path-effect3841"
       effect="spiro" />
    <inkscape:path-effect
       is_visible="true"
       id="path-effect3839"
       effect="spiro" />
    <inkscape:path-effect
       effect="spiro"
       id="path-effect3834"
       is_visible="true" />
    <inkscape:path-effect
       effect="spiro"
       id="path-effect3830"
       is_visible="true" />
    <inkscape:path-effect
       effect="spiro"
       id="path-effect3821"
       is_visible="true" />
    <inkscape:path-effect
       effect="spiro"
       id="path-effect3813"
       is_visible="true" />
    <inkscape:path-effect
       is_visible="true"
       id="path-effect3809"
       effect="spiro" />
    <inkscape:path-effect
       effect="spiro"
       id="path-effect3023"
       is_visible="true" />
    <inkscape:path-effect
       effect="spiro"
       id="path-effect3019"
       is_visible="true" />
    <inkscape:path-effect
       effect="spiro"
       id="path-effect3015"
       is_visible="true" />
    <inkscape:path-effect
       effect="spiro"
       id="path-effect2999"
       is_visible="true" />
    <inkscape:path-effect
       effect="spiro"
       id="path-effect2995"
       is_visible="true" />
    <inkscape:path-effect
       effect="spiro"
       id="path-effect2991"
       is_visible="true" />
    <inkscape:path-effect
       effect="spiro"
       id="path-effect2987"
       is_visible="true" />
  </defs>
  <sodipodi:namedview
     id="base"
     pagecolor="#ffffff"
     bordercolor="#666666"
     borderopacity="1.0"
     inkscape:pageopacity="0.0"
     inkscape:pageshadow="2"
     inkscape:zoom="0.93"
     inkscape:cx="273.22535"
     inkscape:cy="249.66622"
     inkscape:document-units="px"
     inkscape:current-layer="layer1"
     showgrid="false"
     fit-margin-top="0"
     fit-margin-left="0"
     fit-margin-right="0"
     fit-margin-bottom="0"
     inkscape:window-width="1249"
     inkscape:window-height="718"
     inkscape:window-x="4"
     inkscape:window-y="0"
     inkscape:window-maximized="0" />
  <metadata
     id="metadata7">
    <rdf:RDF>
      <cc:Work
         rdf:about="">
        <dc:format>image/svg+xml</dc:format>
        <dc:type
           rdf:resource="http://purl.org/dc/dcmitype/StillImage" />
        <dc:title />
      </cc:Work>
    </rdf:RDF>
  </metadata>
  <g
     inkscape:label="Layer 1"
     inkscape:groupmode="layer"
     id="layer1"
     transform="translate(-136.60863,-227.00786)">
    <path
       style="opacity:0.25;fill:#000080;stroke:none"
       inkscape:path-effect="#path-effect3821"
       inkscape:original-d="m 239.66284,702.98138 c 33.17294,2.80818 67.57315,7.15928 99.87056,-0.91583 11.45515,-2.86406 19.79396,-14.24657 31.40668,-16.38386 26.52679,-4.88219 53.60852,6.0294 80.36556,9.43041 32.64094,4.1489 65.27808,18.39431 97.79857,13.38808 12.85546,-1.97898 33.87146,-3.74396 35.27851,-16.67452 1.44441,-13.27394 -19.60976,-18.80987 -31.68606,-24.50606 -30.82942,-14.54172 -65.64291,-22.0442 -99.72471,-22.63216 -21.30254,-0.3675 -41.60836,9.62742 -62.78294,11.98763 -15.58778,1.73748 -31.35537,2.2046 -47.02679,1.56873 -29.47733,-1.19604 -58.48907,-12.06354 -87.92573,-10.10738 -18.81769,1.2505 -45.9236,-2.76658 -54.85821,13.84191 -6.05851,11.26212 2.93884,27.91419 12.66889,36.21279 6.85868,5.84966 17.63336,4.02988 26.61567,4.79026 z"
       id="path3819"
       d="m 239.66284,702.98138 c 16.81675,1.18094 33.43291,4.45165 50.24691,5.67106 16.814,1.21941 34.22331,0.27075 49.62365,-6.58689 10.79955,-4.80895 20.28449,-12.37721 31.40668,-16.38386 12.9198,-4.65422 27.1893,-4.15743 40.66631,-1.52053 13.477,2.6369 26.45567,7.31906 39.69925,10.95094 31.79044,8.71813 64.89839,11.33475 97.79857,13.38808 7.21984,0.4506 14.65334,0.84968 21.50767,-1.46278 3.42716,-1.15623 6.65926,-3.00292 9.16675,-5.6096 2.50749,-2.60668 4.25657,-6.00193 4.60409,-9.60214 0.35284,-3.65532 -0.75209,-7.37453 -2.75349,-10.45354 -2.00139,-3.079 -4.8587,-5.54382 -8.02737,-7.4 -6.33732,-3.71236 -13.7461,-5.01221 -20.9052,-6.65252 -16.69097,-3.82427 -32.80093,-9.79735 -49.2164,-14.67033 -16.41547,-4.87298 -33.39962,-8.67345 -50.50831,-7.96183 -21.31611,0.88663 -41.70272,8.70329 -62.78294,11.98763 -15.52508,2.41884 -31.33446,2.36232 -47.02679,1.56873 -29.4777,-1.49074 -58.76329,-5.55665 -87.92573,-10.10738 -9.9775,-1.55697 -20.13599,-3.1736 -30.12382,-1.68439 -4.99392,0.7446 -9.90482,2.28074 -14.24807,4.85559 -4.34325,2.57485 -8.1039,6.219 -10.48632,10.67071 -3.36507,6.28785 -3.77879,14.02528 -1.34282,20.72803 2.43598,6.70275 7.62697,12.30736 14.01171,15.48476 8.12834,4.04512 17.55872,4.15424 26.61567,4.79026"
       inkscape:connector-curvature="0"
       sodipodi:nodetypes="aaaaaaaaaaaaaa" />
    <path
       style="fill:#d5e5ff;stroke:#000000;stroke-width:30.29999924;stroke-linecap:butt;stroke-linejoin:round;stroke-miterlimit:4;stroke-opacity:1;stroke-dasharray:none"
       inkscape:path-effect="#path-effect3839"
       inkscape:original-d="m 461.12055,568.06674 c -4.03167,17.64733 15.03033,29.22894 28.94737,35.52632 19.16452,8.67184 46.14974,-14.85755 63.06185,-2.34916 13.84013,10.23632 19.98399,34.05607 13.27254,49.90813 -7.80624,18.43789 -32.6262,26.3449 -52.42672,29.31687 -16.90796,2.53781 -35.41668,-2.10455 -50.14472,-10.78812 -15.42697,-9.09566 -25.73517,-25.35795 -35.31458,-40.48929 -10.09961,-15.95303 -18.80103,-33.4313 -22.6589,-51.91422 -0.89615,-4.29344 -0.11356,-9.02091 0,-13.15789 z"
       id="path3033"
       d="m 461.12055,568.06674 c -0.13047,8.29694 2.75373,16.60894 7.99533,23.04182 5.2416,6.43287 12.79975,10.93648 20.95204,12.4845 10.47339,1.98878 21.17893,-0.78557 31.61589,-2.95743 5.21849,-1.08592 10.49403,-2.02725 15.82298,-2.14588 5.32895,-0.11862 10.742,0.61222 15.62298,2.75415 4.43477,1.94612 8.34724,5.03644 11.35595,8.83147 3.00871,3.79502 5.11728,8.28371 6.22703,12.99784 2.21951,9.42826 0.36464,19.59578 -4.31044,28.07882 -5.03315,9.13277 -13.17575,16.35301 -22.43515,21.1492 -9.25941,4.7962 -19.60312,7.26203 -29.99157,8.16767 -17.34107,1.51176 -35.45841,-1.4441 -50.14472,-10.78812 -15.23667,-9.69418 -25.57784,-25.27978 -35.31458,-40.48929 -10.27773,-16.05459 -20.66443,-32.95628 -22.6589,-51.91422 -0.45973,-4.36989 -0.45973,-8.788 0,-13.15789 l 55.26316,3.94736"
       inkscape:connector-curvature="0"
       sodipodi:nodetypes="caaaaaaacc" />
    <path
       style="fill:#d5e5ff;stroke:#000000;stroke-width:30.29999924;stroke-linecap:butt;stroke-linejoin:round;stroke-miterlimit:4;stroke-opacity:1;stroke-dasharray:none"
       inkscape:path-effect="#path-effect3841"
       inkscape:original-d="m 303.22581,568.06676 c -16.08456,11.17785 -11.32037,41.73537 -27.16551,54.35093 -9.83066,7.82696 -26.22915,1.83232 -36.63949,8.86994 -9.76414,6.60078 -24.83562,17.81887 -20.5272,28.78911 7.2175,18.37744 38.29752,12.93152 58.01641,11.93739 18.87738,-0.95171 41.43202,-2.93669 54.10957,-16.95599 12.85103,-14.21114 10.09944,-37.19595 11.6019,-56.29695 0.69988,-8.89774 -4.14345,-23.35368 -1.23779,-26.74705 z"
       id="path3031"
       d="m 303.22581,568.06676 c 2.79791,10.69622 1.57905,22.39339 -3.36395,32.283 -4.94299,9.8896 -13.56706,17.88553 -23.80156,22.06793 -11.65253,4.76189 -24.79854,4.59805 -36.63949,8.86994 -6.06913,2.18957 -11.82775,5.63087 -15.85055,10.67524 -2.0114,2.52218 -3.5647,5.42552 -4.41519,8.5374 -0.85049,3.11188 -0.98681,6.43306 -0.26146,9.57647 1.2419,5.38193 4.98644,10.00378 9.67158,12.92902 4.68513,2.92524 10.24263,4.25435 15.7616,4.47465 11.03793,0.44061 21.74318,-3.33947 32.58323,-5.46628 9.44532,-1.85316 19.10859,-2.46069 28.51976,-4.48013 9.41117,-2.01944 18.8142,-5.63924 25.58981,-12.47586 6.9644,-7.02711 10.51364,-16.85442 11.78008,-26.66662 1.26644,-9.8122 0.45027,-19.75672 -0.17818,-29.63033 -0.56697,-8.90765 -0.97965,-17.82511 -1.23779,-26.74705 l -38.15789,-3.94738"
       inkscape:connector-curvature="0"
       sodipodi:nodetypes="caaaaaac" />
    <path
       style="fill:#ffeeaa;stroke:#000000;stroke-width:30.29999924;stroke-linecap:butt;stroke-linejoin:round;stroke-miterlimit:4;stroke-opacity:1;stroke-dasharray:none"
       inkscape:path-effect="#path-effect3843"
       inkscape:original-d="m 166.3837,497.01413 c -13.36749,-10.91916 -9.03466,-34.02202 -7.58931,-51.22169 1.27739,-15.20096 7.47313,-29.80835 14.16826,-43.51515 10.32771,-21.14373 22.62526,-42.11102 39.5079,-58.50296 15.3556,-14.90929 34.82228,-25.36483 54.24787,-34.34973 27.39397,-12.67051 56.49987,-23.1909 86.44978,-26.92917 24.33427,-3.03734 49.47553,-1.15169 73.46354,3.94319 21.68291,4.6053 41.97191,14.4924 62.12039,23.73341 16.20829,7.43386 32.47759,15.17033 47.0716,25.41659 15.99304,11.2285 31.81734,23.55761 43.71787,39.05709 13.48382,17.56161 21.89844,38.66119 29.96051,59.28222 7.13124,18.24018 23.42494,38.34719 16.09212,56.50726 -3.57769,8.86031 -15.40137,12.63014 -24.79359,14.38829 -17.07586,3.19648 -34.26951,-5.76593 -51.48673,-8.08312 -24.47961,-3.2946 -48.95507,-7.34353 -73.63799,-8.27018 -27.21831,-1.02183 -54.44742,1.77652 -81.65716,3.0056 -28.72668,1.29761 -57.39064,4.26641 -86.14454,4.61221 -26.8054,0.32237 -53.58183,-2.69427 -80.38717,-2.36714 -20.39583,0.24891 -45.30633,16.19699 -61.10335,3.29328 z"
       id="path3021"
       d="m 166.3837,497.01413 c -3.57905,-2.84947 -6.33787,-6.66456 -8.18871,-10.84828 -1.85084,-4.18371 -2.81328,-8.72978 -3.10811,-13.2951 -0.58967,-9.13063 1.44469,-18.21288 3.70751,-27.07831 3.77616,-14.79449 8.23754,-29.44522 14.16826,-43.51515 9.20935,-21.84809 22.11414,-42.39061 39.5079,-58.50296 15.76514,-14.60371 34.79216,-25.22376 54.24787,-34.34973 27.438,-12.87017 56.38439,-23.1138 86.44978,-26.92917 24.46344,-3.10447 49.50243,-1.88457 73.46354,3.94319 21.57859,5.24829 42.08941,14.14489 62.12039,23.73341 16.09321,7.70357 31.98254,15.89522 47.0716,25.41659 16.64053,10.50037 32.53008,22.87072 43.71787,39.05709 12.60503,18.23682 18.55435,40.27255 29.96051,59.28222 5.32228,8.87019 11.83724,17.09172 15.91203,26.59976 2.03739,4.75402 3.44295,9.82533 3.6407,14.99375 0.19775,5.16842 -0.85642,10.44498 -3.46061,14.91375 -2.49198,4.27622 -6.33003,7.68812 -10.68156,10.04614 -4.35152,2.35802 -9.20481,3.69778 -14.11203,4.34215 -17.3412,2.27707 -34.49933,-3.92009 -51.48673,-8.08312 -24.03999,-5.89138 -48.89137,-7.78608 -73.63799,-8.27018 -27.24536,-0.53298 -54.51134,0.61854 -81.65716,3.0056 -28.67743,2.52174 -57.41365,6.42618 -86.14454,4.61221 -26.8787,-1.69703 -54.12949,-8.35706 -80.38717,-2.36714 -10.36029,2.36339 -20.23188,6.64941 -30.67331,8.62368 -5.22072,0.98713 -10.59404,1.38526 -15.85526,0.6437 -5.26121,-0.74156 -10.41806,-2.66471 -14.57478,-5.9741"
       inkscape:connector-curvature="0"
       sodipodi:nodetypes="aaaaaaaaaaaaaaaaaaa" />
    <path
       style="fill:#ffffff;stroke:#000000;stroke-width:30.29999924;stroke-linecap:butt;stroke-linejoin:round;stroke-miterlimit:4;stroke-opacity:1;stroke-dasharray:none"
       inkscape:path-effect="#path-effect3023"
       inkscape:original-d="m 241.2199,490.29346 c -0.11748,20.37927 -6.10418,45.34082 7.28734,60.70297 15.87417,18.21014 46.21683,14.77784 70.10536,18.37458 12.88432,1.9399 26.03032,1.24746 39.05324,1.66264 27.90351,0.88958 55.84174,2.96005 83.73425,1.77475 27.31671,-1.16083 60.18141,8.35202 81.56256,-8.689 11.6059,-9.25004 12.4371,-27.40451 14.47369,-42.10527 2.65466,-19.16222 1.71944,-39.24549 -3.23534,-57.94544 -4.40078,-16.60909 -9.75223,-35.18022 -22.98767,-46.13704 -14.85448,-12.29712 -36.53525,-13.42609 -55.68744,-15.67741 -21.46979,-2.52375 -43.18416,2.33668 -64.79993,2.61926 -31.14552,0.40717 -64.12998,-11.8876 -93.43505,-1.33193 -18.46488,6.65104 -34.61692,21.41904 -44.81521,38.18754 -8.63475,14.19765 -11.15662,31.35918 -11.2558,48.56435 z"
       id="path3029"
       d="m 241.2199,490.29346 c -1.40692,10.40372 -3.05243,20.85567 -2.56935,31.34297 0.48308,10.4873 3.27642,21.17973 9.85669,29.36 3.92515,4.87955 9.07447,8.70416 14.69975,11.45605 5.62529,2.75189 11.72326,4.45662 17.90359,5.46671 12.36066,2.02018 24.97832,1.29678 37.50202,1.45182 13.02931,0.1613 26.02857,1.27947 39.05324,1.66264 27.9253,0.82152 56.01766,-1.73063 83.73425,1.77475 14.13384,1.78754 28.13349,5.14672 42.37976,5.21347 7.12314,0.0334 14.29459,-0.7729 21.07169,-2.96634 6.77709,-2.19344 13.15927,-5.81563 18.11111,-10.93613 5.26902,-5.44848 8.7698,-12.4254 10.92348,-19.69247 2.15368,-7.26706 3.02145,-14.85178 3.55021,-22.4128 1.35352,-19.35488 0.53199,-38.91256 -3.23534,-57.94544 -1.69982,-8.58761 -4.01134,-17.09999 -7.66518,-25.05524 -3.65383,-7.95524 -8.69565,-15.36154 -15.32249,-21.0818 -7.46341,-6.44237 -16.73281,-10.56626 -26.31739,-12.87764 -9.58457,-2.31139 -19.51103,-2.87922 -29.37005,-2.79977 -21.6252,0.17426 -43.18863,3.41381 -64.79993,2.61926 -15.67202,-0.57619 -31.18461,-3.26825 -46.80748,-4.63579 -15.62287,-1.36754 -31.65631,-1.36579 -46.62757,3.30386 -19.26865,6.01005 -36.02592,20.01751 -44.81521,38.18754 -7.26929,15.02773 -9.01865,32.02136 -11.2558,48.56435"
       inkscape:connector-curvature="0"
       sodipodi:nodetypes="aaaaaaaaaaaaaa" />
    <path
       style="fill:none;stroke:#000000;stroke-width:30.29999924;stroke-linecap:butt;stroke-linejoin:round;stroke-miterlimit:4;stroke-opacity:1;stroke-dasharray:none"
       inkscape:path-effect="#path-effect3809"
       inkscape:original-d="m 327.26109,461.6484 c 5.86097,-7.17689 22.09434,-5.18643 27.7122,2.18231 7.63122,10.00958 5.34064,35.24289 -7.11065,37.08482 -14.62198,2.16306 -30.38027,-27.29287 -20.60155,-39.26713 z"
       id="path3035"
       d="m 327.26109,461.6484 c 4.14487,-2.79947 9.2513,-4.14543 14.23755,-3.75276 4.98626,0.39266 9.81906,2.52133 13.47465,5.93507 2.742,2.5606 4.82179,5.82446 5.9844,9.39147 1.16261,3.56701 1.40557,7.42955 0.69908,11.11413 -0.70648,3.68458 -2.36089,7.18332 -4.76042,10.06733 -2.39953,2.884 -5.53906,5.14711 -9.03371,6.51189 -5.0563,1.97466 -10.84032,2.01708 -15.92505,0.1168 -5.08472,-1.90029 -9.42322,-5.72574 -11.94513,-10.53256 -2.5219,-4.80681 -3.20393,-10.55064 -1.87782,-15.81437 1.32611,-5.26374 4.64813,-9.99881 9.14645,-13.037"
       inkscape:connector-curvature="0"
       sodipodi:nodetypes="aaaa" />
    <path
       sodipodi:nodetypes="aaaa"
       inkscape:connector-curvature="0"
       d="m 444.01392,471.01273 c 2.30847,2.15575 4.05942,4.90357 5.03822,7.9066 0.97879,3.00304 1.18333,6.25489 0.58855,9.3569 -0.59478,3.10202 -1.98762,6.04759 -4.00776,8.47561 -2.02015,2.42802 -4.66329,4.33331 -7.60541,5.48231 -4.25686,1.66245 -9.12639,1.69816 -13.40717,0.0983 -4.28079,-1.59983 -7.93335,-4.82045 -10.05652,-8.86727 -2.12317,-4.04682 -2.69736,-8.88251 -1.58092,-13.314 1.11644,-4.4315 3.91322,-8.41792 7.70032,-10.97575 3.48954,-2.35685 7.78859,-3.49 11.98649,-3.15942 4.19789,0.33058 8.26659,2.12268 11.3442,4.99669"
       id="path3811"
       inkscape:original-d="m 444.01392,471.01273 c 6.42466,8.42699 4.49624,29.67071 -5.9864,31.22142 -12.31014,1.82106 -24.19624,-22.67089 -17.34429,-33.05869 4.29536,-6.51192 18.60105,-4.36642 23.33069,1.83727 z"
       inkscape:path-effect="#path-effect3813"
       style="fill:none;stroke:#000000;stroke-width:20.29999924;stroke-linecap:butt;stroke-linejoin:round;stroke-miterlimit:4;stroke-opacity:1;stroke-dasharray:none" />
    <path
       style="opacity:0.25;fill:#000080;stroke:none"
       inkscape:path-effect="#path-effect3834"
       inkscape:original-d="m 409.67742,572.79229 c -3.36249,6.10929 4.93929,13.07297 8.10275,19.28766 3.34309,6.56757 7.28208,12.83417 11.44207,18.91724 4.93891,7.22207 10.69236,13.85209 16.00277,20.80555 4.64666,6.08435 6.60396,15.91117 13.87723,18.30081 5.70637,1.87483 13.16474,-0.72955 17.28167,-5.10317 5.58349,-5.93162 5.72341,-15.67031 5.49255,-23.81317 -0.18436,-6.50267 -1.85617,-13.31942 -5.45658,-18.73752 -6.20667,-9.34013 -16.45922,-15.51615 -26.13555,-21.18443 -8.36957,-4.9028 -17.39268,-9.73185 -27.03816,-10.75745 -4.56086,-0.48495 -11.35719,-1.73369 -13.56875,2.28448 z m -111.82795,-9.67742 c -7.89586,7.66949 3.12966,21.80421 4.05228,32.773 1.21386,14.43129 -5.36394,30.90122 1.94614,43.40315 4.68434,8.0113 14.59277,16.85089 23.62681,14.72717 6.44879,-1.51598 8.45355,-10.59849 10.41533,-16.92593 4.49131,-14.48606 4.9257,-30.51292 2.2587,-45.44293 -1.50351,-8.41676 -3.30894,-18.35197 -10.06415,-23.59311 -8.58864,-6.66364 -24.43751,-12.5154 -32.23511,-4.94135 z"
       id="path3832"
       d="m 409.67742,572.79229 c -1.13204,1.5313 -1.55713,3.51768 -1.37932,5.41367 0.17781,1.89599 0.92386,3.70667 1.93731,5.31891 2.02691,3.22447 5.06437,5.66488 7.54476,8.55508 4.80763,5.60195 7.40428,12.73732 11.44207,18.91724 4.79096,7.33267 11.56742,13.25247 16.00277,20.80555 1.98108,3.37364 3.46398,7.02413 5.50099,10.3643 2.03701,3.34017 4.75823,6.44784 8.37624,7.93651 2.96939,1.22178 6.37529,1.24464 9.43332,0.26563 3.05803,-0.979 5.76791,-2.92304 7.84835,-5.3688 2.7125,-3.18881 4.36426,-7.18969 5.15111,-11.3015 0.78685,-4.11182 0.74276,-8.34453 0.34144,-12.51167 -0.62848,-6.52584 -2.16808,-13.0659 -5.45658,-18.73752 -2.85351,-4.92141 -6.94398,-9.04482 -11.49381,-12.45978 -4.54982,-3.41495 -9.56622,-6.15524 -14.64174,-8.72465 -8.6714,-4.38977 -17.62533,-8.33632 -27.03816,-10.75745 -2.36328,-0.60787 -4.796,-1.12174 -7.22722,-0.91249 -1.21561,0.10462 -2.42179,0.39305 -3.52245,0.91956 -1.10065,0.52651 -2.09378,1.29629 -2.81908,2.27741 m -111.82795,-9.67742 c -1.60047,2.36711 -2.38811,5.22519 -2.53281,8.07892 -0.1447,2.85373 0.32906,5.71109 1.08803,8.46585 1.51794,5.50952 4.16762,10.67022 5.49706,16.22823 1.69228,7.0749 1.17563,14.46461 0.7303,21.72544 -0.44533,7.26083 -0.7923,14.6859 1.21584,21.67771 1.46092,5.08654 4.27404,9.93273 8.59495,12.98837 2.16045,1.52782 4.6725,2.58052 7.29597,2.92577 2.62347,0.34524 5.35525,-0.0318 7.73589,-1.18697 3.08302,-1.49596 5.44616,-4.21498 7.05969,-7.23813 1.61353,-3.02315 2.54196,-6.35901 3.35564,-9.6878 3.62981,-14.84965 5.20258,-30.44223 2.2587,-45.44293 -1.66127,-8.46512 -4.8099,-16.75125 -10.06415,-23.59311 -3.87133,-5.04109 -9.07897,-9.34504 -15.27281,-10.77196 -3.09692,-0.71346 -6.38933,-0.67582 -9.41513,0.296 -3.02581,0.97182 -5.76711,2.90187 -7.54717,5.53461"
       inkscape:connector-curvature="0"
       sodipodi:nodetypes="aaaaaaaaaaaaaaaaaaa" />
    <path
       style="fill:none;stroke:#000000;stroke-width:30;stroke-linecap:butt;stroke-linejoin:miter;stroke-miterlimit:4;stroke-opacity:1;stroke-dasharray:none"
       inkscape:path-effect="#path-effect3847"
       inkscape:original-d="m 303.2753,426.10464 c 6.60677,3.4358 18.34428,17.56247 30.07846,21.00736 11.63383,3.41543 31.40497,-3.45548 36.34743,-1.40207"
       id="path3845"
       d="m 303.2753,426.10464 c 7.38976,10.01734 18.12938,17.51809 30.07846,21.00736 11.84319,3.45835 24.80584,2.95832 36.34743,-1.40207"
       inkscape:connector-curvature="0"
       sodipodi:nodetypes="cac" />
    <path
       sodipodi:nodetypes="cac"
       inkscape:connector-curvature="0"
       d="m 454.64743,446.53475 c -7.55113,2.8629 -15.55934,4.51639 -23.62685,4.87833 -9.00661,0.40408 -18.08323,-0.80499 -26.67001,-3.55261"
       id="path3853"
       inkscape:original-d="m 454.64743,446.53475 c -6.60677,3.4358 -15.5902,4.59216 -23.62685,4.87833 -8.96285,0.31915 -21.72755,-5.60602 -26.67001,-3.55261"
       inkscape:path-effect="#path-effect3855"
       style="fill:none;stroke:#000000;stroke-width:30;stroke-linecap:butt;stroke-linejoin:miter;stroke-miterlimit:4;stroke-opacity:1;stroke-dasharray:none" />
  </g>
</svg>
