<?xml version="1.0" encoding="UTF-8" standalone="no"?>
<!-- Created with Inkscape (http://www.inkscape.org/) -->

<svg
   xmlns:dc="http://purl.org/dc/elements/1.1/"
   xmlns:cc="http://creativecommons.org/ns#"
   xmlns:rdf="http://www.w3.org/1999/02/22-rdf-syntax-ns#"
   xmlns:svg="http://www.w3.org/2000/svg"
   xmlns="http://www.w3.org/2000/svg"
   xmlns:sodipodi="http://sodipodi.sourceforge.net/DTD/sodipodi-0.dtd"
   xmlns:inkscape="http://www.inkscape.org/namespaces/inkscape"
   width="512"
   height="512"
   id="svg2"
   version="1.1"
   inkscape:version="0.48.5 r10040"
   sodipodi:docname="player-flying.svg"
   inkscape:export-filename="/Users/darabos/Documents/fragmented-space/images/player-flydown.png"
   inkscape:export-xdpi="5.6199999"
   inkscape:export-ydpi="5.6199999">
  <defs
     id="defs4">
    <inkscape:path-effect
       effect="spiro"
       id="path-effect4718"
       is_visible="true" />
    <inkscape:path-effect
       effect="spiro"
       id="path-effect4714"
       is_visible="true" />
    <inkscape:path-effect
       effect="spiro"
       id="path-effect4198"
       is_visible="true" />
    <inkscape:path-effect
       effect="spiro"
       id="path-effect4194"
       is_visible="true" />
    <inkscape:path-effect
       is_visible="true"
       id="path-effect4190"
       effect="spiro" />
    <inkscape:path-effect
       is_visible="true"
       id="path-effect3855"
       effect="spiro" />
    <inkscape:path-effect
       effect="spiro"
       id="path-effect3847"
       is_visible="true" />
    <inkscape:path-effect
       is_visible="true"
       id="path-effect3843"
       effect="spiro" />
    <inkscape:path-effect
       is_visible="true"
       id="path-effect3841"
       effect="spiro" />
    <inkscape:path-effect
       is_visible="true"
       id="path-effect3839"
       effect="spiro" />
    <inkscape:path-effect
       effect="spiro"
       id="path-effect3834"
       is_visible="true" />
    <inkscape:path-effect
       effect="spiro"
       id="path-effect3830"
       is_visible="true" />
    <inkscape:path-effect
       effect="spiro"
       id="path-effect3821"
       is_visible="true" />
    <inkscape:path-effect
       effect="spiro"
       id="path-effect3813"
       is_visible="true" />
    <inkscape:path-effect
       is_visible="true"
       id="path-effect3809"
       effect="spiro" />
    <inkscape:path-effect
       effect="spiro"
       id="path-effect3023"
       is_visible="true" />
    <inkscape:path-effect
       effect="spiro"
       id="path-effect3019"
       is_visible="true" />
    <inkscape:path-effect
       effect="spiro"
       id="path-effect3015"
       is_visible="true" />
    <inkscape:path-effect
       effect="spiro"
       id="path-effect2999"
       is_visible="true" />
    <inkscape:path-effect
       effect="spiro"
       id="path-effect2995"
       is_visible="true" />
    <inkscape:path-effect
       effect="spiro"
       id="path-effect2991"
       is_visible="true" />
    <inkscape:path-effect
       effect="spiro"
       id="path-effect2987"
       is_visible="true" />
    <inkscape:path-effect
       is_visible="true"
       id="path-effect2987-5"
       effect="spiro" />
    <inkscape:path-effect
       is_visible="true"
       id="path-effect2991-1"
       effect="spiro" />
    <inkscape:path-effect
       is_visible="true"
       id="path-effect2995-7"
       effect="spiro" />
    <inkscape:path-effect
       is_visible="true"
       id="path-effect2999-9"
       effect="spiro" />
    <inkscape:path-effect
       is_visible="true"
       id="path-effect3015-0"
       effect="spiro" />
    <inkscape:path-effect
       is_visible="true"
       id="path-effect3019-2"
       effect="spiro" />
    <inkscape:path-effect
       is_visible="true"
       id="path-effect3023-1"
       effect="spiro" />
    <inkscape:path-effect
       effect="spiro"
       id="path-effect3809-2"
       is_visible="true" />
    <inkscape:path-effect
       is_visible="true"
       id="path-effect3813-2"
       effect="spiro" />
    <inkscape:path-effect
       is_visible="true"
       id="path-effect3821-8"
       effect="spiro" />
    <inkscape:path-effect
       is_visible="true"
       id="path-effect3830-5"
       effect="spiro" />
    <inkscape:path-effect
       is_visible="true"
       id="path-effect3834-2"
       effect="spiro" />
    <inkscape:path-effect
       effect="spiro"
       id="path-effect3839-1"
       is_visible="true" />
    <inkscape:path-effect
       effect="spiro"
       id="path-effect3841-8"
       is_visible="true" />
    <inkscape:path-effect
       effect="spiro"
       id="path-effect3843-3"
       is_visible="true" />
    <inkscape:path-effect
       is_visible="true"
       id="path-effect3847-5"
       effect="spiro" />
    <inkscape:path-effect
       effect="spiro"
       id="path-effect3855-8"
       is_visible="true" />
    <inkscape:path-effect
       effect="spiro"
       id="path-effect3824"
       is_visible="true" />
    <inkscape:path-effect
       is_visible="true"
       id="path-effect2987-1"
       effect="spiro" />
    <inkscape:path-effect
       is_visible="true"
       id="path-effect2991-7"
       effect="spiro" />
    <inkscape:path-effect
       is_visible="true"
       id="path-effect2995-9"
       effect="spiro" />
    <inkscape:path-effect
       is_visible="true"
       id="path-effect2999-95"
       effect="spiro" />
    <inkscape:path-effect
       is_visible="true"
       id="path-effect3015-1"
       effect="spiro" />
    <inkscape:path-effect
       is_visible="true"
       id="path-effect3019-3"
       effect="spiro" />
    <inkscape:path-effect
       is_visible="true"
       id="path-effect3023-7"
       effect="spiro" />
    <inkscape:path-effect
       effect="spiro"
       id="path-effect3809-6"
       is_visible="true" />
    <inkscape:path-effect
       is_visible="true"
       id="path-effect3813-9"
       effect="spiro" />
    <inkscape:path-effect
       is_visible="true"
       id="path-effect3821-82"
       effect="spiro" />
    <inkscape:path-effect
       is_visible="true"
       id="path-effect3830-1"
       effect="spiro" />
    <inkscape:path-effect
       is_visible="true"
       id="path-effect3834-0"
       effect="spiro" />
    <inkscape:path-effect
       effect="spiro"
       id="path-effect3839-7"
       is_visible="true" />
    <inkscape:path-effect
       effect="spiro"
       id="path-effect3841-83"
       is_visible="true" />
    <inkscape:path-effect
       effect="spiro"
       id="path-effect3843-8"
       is_visible="true" />
    <inkscape:path-effect
       is_visible="true"
       id="path-effect3847-9"
       effect="spiro" />
    <inkscape:path-effect
       effect="spiro"
       id="path-effect3855-3"
       is_visible="true" />
    <inkscape:path-effect
       effect="spiro"
       id="path-effect3824-5"
       is_visible="true" />
  </defs>
  <sodipodi:namedview
     id="base"
     pagecolor="#ffffff"
     bordercolor="#666666"
     borderopacity="1.0"
     inkscape:pageopacity="0.0"
     inkscape:pageshadow="2"
     inkscape:zoom="0.58"
     inkscape:cx="261.10028"
     inkscape:cy="249.66622"
     inkscape:document-units="px"
     inkscape:current-layer="layer1"
     showgrid="false"
     fit-margin-top="0"
     fit-margin-left="0"
     fit-margin-right="0"
     fit-margin-bottom="0"
     inkscape:window-width="869"
     inkscape:window-height="714"
     inkscape:window-x="388"
     inkscape:window-y="0"
     inkscape:window-maximized="0" />
  <metadata
     id="metadata7">
    <rdf:RDF>
      <cc:Work
         rdf:about="">
        <dc:format>image/svg+xml</dc:format>
        <dc:type
           rdf:resource="http://purl.org/dc/dcmitype/StillImage" />
        <dc:title></dc:title>
      </cc:Work>
    </rdf:RDF>
  </metadata>
  <g
     inkscape:label="Layer 1"
     inkscape:groupmode="layer"
     id="layer1"
     transform="translate(-136.60863,-227.00786)">
    <path
       style="fill:#d5e5ff;stroke:#000000;stroke-width:30;stroke-linecap:butt;stroke-linejoin:round;stroke-miterlimit:4;stroke-opacity:1;stroke-dasharray:none"
       inkscape:path-effect="#path-effect3839"
       inkscape:original-d="m 461.12055,568.06674 c -4.03167,17.64733 19.77237,23.31319 28.94737,35.52632 8.24088,10.9697 19.70985,20.64486 23.40668,33.85774 3.40446,12.16793 3.00177,26.34466 -2.2447,37.83916 -5.80699,12.72253 -16.03492,28.87063 -30.01293,29.31687 -15.21045,0.48559 -25.79854,-17.35835 -34.62748,-29.75364 -9.49686,-13.33299 -11.78596,-30.54781 -18.0732,-45.6617 -7.25197,-17.43302 -18.80103,-33.4313 -22.6589,-51.91422 -0.89615,-4.29344 -0.11356,-9.02091 0,-13.15789 z"
       id="path3033"
       d="m 461.12055,568.06674 c 9.04492,12.31778 18.71035,24.17989 28.94737,35.52632 9.27047,10.27513 19.31529,20.63728 23.40668,33.85774 3.79909,12.27594 1.94245,25.6901 -2.2447,37.83916 -2.42209,7.02771 -5.67718,13.90011 -10.67385,19.40361 -4.99667,5.5035 -11.91499,9.54164 -19.33908,9.91326 -4.04957,0.20271 -8.12258,-0.68402 -11.81924,-2.34981 -3.69666,-1.66579 -7.02407,-4.09644 -9.90006,-6.95456 -5.75198,-5.71623 -9.64518,-13.02543 -12.90818,-20.44927 -6.58903,-14.99108 -10.96087,-30.9117 -18.0732,-45.6617 -4.12489,-8.55446 -9.14063,-16.649 -13.47211,-25.10074 -4.33147,-8.45173 -8.01069,-17.38956 -9.18679,-26.81348 -0.54455,-4.3634 -0.54455,-8.79449 0,-13.15789 l 55.26316,3.94736"
       inkscape:connector-curvature="0"
       sodipodi:nodetypes="caaaaaaacc" />
    <path
       style="fill:#d5e5ff;stroke:#000000;stroke-width:30;stroke-linecap:butt;stroke-linejoin:round;stroke-miterlimit:4;stroke-opacity:1;stroke-dasharray:none"
       inkscape:path-effect="#path-effect3841"
       inkscape:original-d="m 303.22581,568.06676 c -16.08456,11.17785 -19.48439,35.61003 -27.16551,54.35093 -3.70022,9.02804 -6.54318,18.40696 -9.05328,27.83546 -2.82419,10.60824 -12.96433,23.19885 -6.7341,32.23738 8.14111,11.81076 29.0804,11.8353 42.49917,6.76498 13.83067,-5.22596 21.85887,-20.86383 28.2475,-34.19737 8.27905,-17.27897 10.09944,-37.19595 11.6019,-56.29695 0.69988,-8.89774 -4.14345,-23.35368 -1.23779,-26.74705 z"
       id="path3031"
       d="m 303.22581,568.06676 c -11.74822,16.59507 -20.94406,34.99349 -27.16551,54.35093 -2.98676,9.29301 -5.30022,18.82461 -9.05328,27.83546 -2.16849,5.20639 -4.81464,10.23162 -6.46549,15.62454 -1.65086,5.39291 -2.2468,11.33121 -0.26861,16.61284 1.44255,3.8515 4.21081,7.15542 7.62704,9.44549 3.41623,2.29006 7.45632,3.58614 11.55333,3.94596 8.19404,0.71965 16.35615,-2.24679 23.3188,-6.62647 12.69401,-7.98485 22.02408,-20.55315 28.2475,-34.19737 8.00703,-17.55462 11.22136,-37.00621 11.6019,-56.29695 0.17616,-8.92996 -0.23764,-17.87152 -1.23779,-26.74705 l -38.15789,-3.94738"
       inkscape:connector-curvature="0"
       sodipodi:nodetypes="caaaaaacc" />
    <path
       style="opacity:0.25;fill:#000080;stroke:none"
       inkscape:path-effect="#path-effect3834"
       inkscape:original-d="m 409.67742,572.79229 c -3.36249,6.10929 4.93929,13.07297 8.10275,19.28766 3.34309,6.56757 9.39134,11.83884 11.44207,18.91724 2.25019,7.76684 -2.25942,16.64775 0.48553,24.25383 3.14639,8.71842 8.35645,19.41097 17.3255,21.74908 10.22781,2.66626 22.48708,-3.96177 29.35064,-11.99972 6.82836,-7.99673 7.35271,-20.19517 7.21669,-30.70972 -0.12196,-9.4275 -0.37164,-20.83677 -7.18072,-27.35821 -6.43788,-6.16593 -17.60917,-3.06609 -26.13555,-5.66719 -9.27774,-2.83031 -17.39268,-9.73185 -27.03816,-10.75745 -4.56086,-0.48495 -11.35719,-1.73369 -13.56875,2.28448 z m -111.82795,-9.67742 c -7.89586,7.66949 3.12966,21.80421 4.05228,32.773 1.21386,14.43129 -5.36394,30.90122 1.94614,43.40315 4.68434,8.0113 14.59277,16.85089 23.62681,14.72717 6.44879,-1.51598 8.45355,-10.59849 10.41533,-16.92593 4.49131,-14.48606 4.9257,-30.51292 2.2587,-45.44293 -1.50351,-8.41676 -3.30894,-18.35197 -10.06415,-23.59311 -8.58864,-6.66364 -24.43751,-12.5154 -32.23511,-4.94135 z"
       id="path3832"
       d="m 409.67742,572.79229 c -1.15759,1.53648 -1.64209,3.52185 -1.52541,5.44205 0.11667,1.9202 0.80455,3.77692 1.79111,5.42843 1.97313,3.30302 5.05463,5.75986 7.83705,8.41718 5.4144,5.17097 9.98016,11.57439 11.44207,18.91724 1.58249,7.94849 -0.58335,16.22013 0.48553,24.25383 0.64559,4.85226 2.50168,9.56394 5.49947,13.43362 2.9978,3.86968 7.14923,6.87022 11.82603,8.31546 5.42445,1.67629 11.4323,1.20684 16.65024,-1.03096 5.21794,-2.23781 9.63942,-6.18702 12.7004,-10.96876 2.86727,-4.47913 4.55678,-9.62941 5.55506,-14.85313 0.99827,-5.22372 1.33022,-10.54867 1.66163,-15.85659 0.30627,-4.90522 0.61087,-9.86743 -0.26292,-14.7039 -0.87378,-4.83648 -3.05849,-9.61117 -6.9178,-12.65431 -3.54927,-2.79866 -8.15283,-3.88368 -12.64756,-4.36037 -4.49473,-0.47669 -9.05487,-0.42519 -13.48799,-1.30682 -9.53426,-1.89611 -17.73658,-7.93291 -27.03816,-10.75745 -2.34126,-0.71095 -4.79145,-1.21808 -7.22648,-0.97808 -1.21751,0.12001 -2.42181,0.42912 -3.51943,0.96947 -1.09762,0.54034 -2.08667,1.31596 -2.82284,2.29309 m -111.82795,-9.67742 c -1.60047,2.36711 -2.38811,5.22519 -2.53281,8.07892 -0.1447,2.85373 0.32906,5.71109 1.08803,8.46585 1.51794,5.50952 4.16762,10.67022 5.49706,16.22823 1.69228,7.0749 1.17563,14.46461 0.7303,21.72544 -0.44533,7.26083 -0.7923,14.6859 1.21584,21.67771 1.46092,5.08654 4.27404,9.93273 8.59495,12.98837 2.16045,1.52782 4.6725,2.58052 7.29597,2.92577 2.62347,0.34524 5.35525,-0.0318 7.73589,-1.18697 3.08302,-1.49596 5.44616,-4.21498 7.05969,-7.23813 1.61353,-3.02315 2.54196,-6.35901 3.35564,-9.6878 3.62981,-14.84965 5.20258,-30.44223 2.2587,-45.44293 -1.66127,-8.46512 -4.8099,-16.75125 -10.06415,-23.59311 -3.87133,-5.04109 -9.07897,-9.34504 -15.27281,-10.77196 -3.09692,-0.71346 -6.38933,-0.67582 -9.41513,0.296 -3.02581,0.97182 -5.76711,2.90187 -7.54717,5.53461"
       inkscape:connector-curvature="0"
       sodipodi:nodetypes="aaaaaaaaaaaaaaaaaaa" />
    <path
       style="fill:#ffeeaa;stroke:#000000;stroke-width:30;stroke-linecap:butt;stroke-linejoin:round;stroke-miterlimit:4;stroke-opacity:1;stroke-dasharray:none"
       inkscape:path-effect="#path-effect3843-3"
       inkscape:original-d="m 223.63916,318.09166 c 24.30604,-30.0059 74.70394,-29.79918 115.18544,-12.35132 23.8409,15.09665 -1.07628,37.74725 10.39146,50.58479 8.1844,9.16201 23.94649,31.269 35.03991,11.42567 19.42657,-15.9333 12.35646,-84.04677 45.1345,-88.28399 39.24393,-5.07305 51.89419,67.91968 79.13979,88.48329 77.08152,-6.23251 65.97846,-39.45648 63.62779,16.7276 -0.76041,18.17486 32.85934,104.06571 -1.09029,132.12123 -15.36976,12.70137 -38.95884,-9.21856 -58.83598,-10.78511 -66.40381,-5.2334 -133.21208,2.20988 -199.77162,4.79484 -22.90148,0.88942 -51.23826,18.58058 -68.65736,3.68615 C 193.78338,471.72503 182.21446,369.2306 223.63916,318.09166 z"
       id="path3021-4"
       d="m 223.63916,318.09166 c 33.74902,-21.49602 77.64608,-26.2031 115.18544,-12.35132 -3.75326,8.38915 -4.80142,17.96369 -2.95207,26.96617 1.84935,9.00248 6.58707,17.38845 13.34353,23.61862 9.31563,8.58999 22.45129,12.87321 35.03991,11.42567 -6.68575,-17.39835 -5.61595,-37.61716 2.86846,-54.21284 8.48442,-16.59569 24.24763,-29.3026 42.26604,-34.07115 11.80295,-3.12364 24.468,-2.91803 36.16334,0.58707 11.69534,3.50509 22.38582,10.29916 30.52523,19.39953 8.1394,9.10037 13.70327,20.4797 15.88687,32.49214 2.18361,12.01243 0.98038,24.62187 -3.43565,36.00455 22.22226,-0.63916 44.59308,5.24208 63.62779,16.7276 12.23875,7.38485 23.15943,17.1089 31.23575,28.9028 8.07632,11.79391 13.23731,25.69477 13.99826,39.96867 0.76096,14.27389 -3.0017,28.87903 -11.23327,40.56511 -8.23157,11.68608 -21.00403,20.25988 -35.09103,22.68465 -9.92592,1.70853 -20.15447,0.41927 -29.93252,-1.99581 -9.77805,-2.41508 -19.24346,-5.93847 -28.90346,-8.7893 -64.50969,-19.0379 -133.60714,-7.29663 -199.77162,4.79484 -22.69308,4.14713 -46.05863,8.31994 -68.65736,3.68615 -20.63311,-4.23075 -39.57272,-15.89825 -53.04725,-32.08656 -13.47452,-16.18832 -21.47948,-36.74973 -23.03665,-57.75448 -1.55718,-21.00475 3.26251,-42.36664 13.21108,-60.9314 9.94858,-18.56475 24.94427,-34.31557 42.70918,-45.63071"
       inkscape:connector-curvature="0"
       sodipodi:nodetypes="acacacsaaaaa" />
    <path
       style="fill:#ffffff;stroke:#000000;stroke-width:30;stroke-linecap:butt;stroke-linejoin:round;stroke-miterlimit:4;stroke-opacity:1;stroke-dasharray:none"
       inkscape:path-effect="#path-effect3023-1"
       inkscape:original-d="m 240.2908,504.9031 c -2.25331,23.55136 0.13395,52.83593 17.64123,68.74942 18.00776,16.36841 47.88084,9.18019 72.12059,11.33392 41.01126,3.6439 82.44749,5.90759 123.49029,2.6381 24.52174,-1.95341 55.36218,4.31113 72.60141,-13.23711 16.41846,-16.71276 14.76516,-46.17597 11.37658,-69.35785 -3.41474,-23.3608 -12.19123,-49.40524 -30.99037,-63.68739 -21.17566,-16.08765 -51.99852,-11.86155 -78.4709,-14.39813 -26.38203,-2.52793 -53.14289,-3.49088 -79.50496,-0.76257 -26.89563,2.78352 -58.08102,0.53255 -79.2356,17.37318 -17.69957,14.09018 -26.87361,38.8281 -29.02827,61.34843 z"
       id="path3029-4"
       d="m 240.2908,504.9031 c -1.73742,12.24143 -2.41555,24.78869 0.009,36.91278 2.42436,12.12409 8.17876,23.86797 17.63241,31.83664 9.56471,8.06228 22.19446,11.7172 34.66317,12.72477 12.46872,1.00757 24.98607,-0.41644 37.45742,-1.39085 41.1032,-3.21145 82.47371,-1.53641 123.49029,2.6381 12.68154,1.29068 25.45806,2.82102 38.13866,1.52115 12.6806,-1.29987 25.47364,-5.72039 34.46275,-14.75826 8.60624,-8.65292 12.99171,-20.83111 14.17759,-32.97748 1.18588,-12.14637 -0.57422,-24.38112 -2.80101,-36.38037 -2.20488,-11.8812 -4.89746,-23.75689 -9.66578,-34.86038 -4.76832,-11.1035 -11.73605,-21.47281 -21.32459,-28.82701 -10.77489,-8.26411 -24.28761,-12.30191 -37.77493,-13.87858 -13.48732,-1.57667 -27.12094,-0.85457 -40.69597,-0.51955 -26.49754,0.65393 -53.00584,-0.17645 -79.50496,-0.76257 -13.82011,-0.30568 -27.72893,-0.53915 -41.37697,1.65629 -13.64804,2.19543 -27.15428,6.97013 -37.85863,15.71689 -8.96939,7.32909 -15.65358,17.20029 -20.24152,27.8359 -4.58794,10.63561 -7.1591,22.04448 -8.78675,33.51253"
       inkscape:connector-curvature="0"
       sodipodi:nodetypes="aaaaaaaaaaa" />
    <path
       style="fill:none;stroke:#000000;stroke-width:20;stroke-linecap:butt;stroke-linejoin:miter;stroke-miterlimit:4;stroke-opacity:1;stroke-dasharray:none"
       inkscape:path-effect="#path-effect4194"
       inkscape:original-d="m 300.04949,468.04012 c 7.41475,0.72029 13.0616,5.3709 18.71987,9.48359 5.47557,3.9799 9.88605,9.28409 14.32047,14.39853 5.45093,6.28683 9.22909,13.96434 15.02595,19.93369 4.89397,5.0396 10.60006,9.61549 16.44984,13.17344"
       id="path4192"
       d="m 300.04949,468.04012 c 6.72802,2.04043 13.09485,5.26591 18.71987,9.48359 5.43187,4.07286 10.14869,9.04226 14.32047,14.39853 5.11541,6.56782 9.45211,13.75017 15.02595,19.93369 4.72405,5.24077 10.30339,9.70885 16.44984,13.17344"
       inkscape:connector-curvature="0"
       sodipodi:nodetypes="caaac" />
    <path
       style="fill:none;stroke:#000000;stroke-width:20;stroke-linecap:butt;stroke-linejoin:miter;stroke-miterlimit:4;stroke-opacity:1;stroke-dasharray:none"
       inkscape:path-effect="#path-effect4198"
       inkscape:original-d="m 483.92045,478.79281 c -5.99395,-5.17592 -10.83765,4.08602 -15.69631,7.16332 -7.89203,4.99854 -14.17964,12.16908 -21.41616,18.0769 -6.68509,5.45765 -13.98477,10.18291 -20.32093,16.04204 -4.87794,4.51069 -12.89801,7.2754 -13.53434,14.63172"
       id="path4196"
       d="m 483.92045,478.79281 c -5.55309,1.5788 -10.86499,4.00299 -15.69631,7.16332 -7.82548,5.11891 -14.2625,12.05473 -21.41616,18.0769 -6.60331,5.55887 -13.83228,10.34974 -20.32093,16.04204 -5.00343,4.38936 -9.54757,9.30195 -13.53434,14.63172"
       inkscape:connector-curvature="0"
       sodipodi:nodetypes="caaac" />
  </g>
</svg>
