<?xml version="1.0" encoding="UTF-8" standalone="no"?>
<!-- Created with Inkscape (http://www.inkscape.org/) -->

<svg
   xmlns:dc="http://purl.org/dc/elements/1.1/"
   xmlns:cc="http://creativecommons.org/ns#"
   xmlns:rdf="http://www.w3.org/1999/02/22-rdf-syntax-ns#"
   xmlns:svg="http://www.w3.org/2000/svg"
   xmlns="http://www.w3.org/2000/svg"
   xmlns:sodipodi="http://sodipodi.sourceforge.net/DTD/sodipodi-0.dtd"
   xmlns:inkscape="http://www.inkscape.org/namespaces/inkscape"
   width="512"
   height="512"
   id="svg2"
   version="1.1"
   inkscape:version="0.48.5 r10040"
   sodipodi:docname="player-idling.svg"
   inkscape:export-filename="/Users/darabos/Documents/fragmented-space/images/player-idling.png"
   inkscape:export-xdpi="5.6199999"
   inkscape:export-ydpi="5.6199999">
  <defs
     id="defs4">
    <inkscape:path-effect
       is_visible="true"
       id="path-effect3824"
       effect="spiro" />
    <inkscape:path-effect
       is_visible="true"
       id="path-effect3855"
       effect="spiro" />
    <inkscape:path-effect
       effect="spiro"
       id="path-effect3847"
       is_visible="true" />
    <inkscape:path-effect
       is_visible="true"
       id="path-effect3843"
       effect="spiro" />
    <inkscape:path-effect
       is_visible="true"
       id="path-effect3841"
       effect="spiro" />
    <inkscape:path-effect
       is_visible="true"
       id="path-effect3839"
       effect="spiro" />
    <inkscape:path-effect
       effect="spiro"
       id="path-effect3834"
       is_visible="true" />
    <inkscape:path-effect
       effect="spiro"
       id="path-effect3830"
       is_visible="true" />
    <inkscape:path-effect
       effect="spiro"
       id="path-effect3821"
       is_visible="true" />
    <inkscape:path-effect
       effect="spiro"
       id="path-effect3813"
       is_visible="true" />
    <inkscape:path-effect
       is_visible="true"
       id="path-effect3809"
       effect="spiro" />
    <inkscape:path-effect
       effect="spiro"
       id="path-effect3023"
       is_visible="true" />
    <inkscape:path-effect
       effect="spiro"
       id="path-effect3019"
       is_visible="true" />
    <inkscape:path-effect
       effect="spiro"
       id="path-effect3015"
       is_visible="true" />
    <inkscape:path-effect
       effect="spiro"
       id="path-effect2999"
       is_visible="true" />
    <inkscape:path-effect
       effect="spiro"
       id="path-effect2995"
       is_visible="true" />
    <inkscape:path-effect
       effect="spiro"
       id="path-effect2991"
       is_visible="true" />
    <inkscape:path-effect
       effect="spiro"
       id="path-effect2987"
       is_visible="true" />
  </defs>
  <sodipodi:namedview
     id="base"
     pagecolor="#ffffff"
     bordercolor="#666666"
     borderopacity="1.0"
     inkscape:pageopacity="0.0"
     inkscape:pageshadow="2"
     inkscape:zoom="0.41"
     inkscape:cx="193.7064"
     inkscape:cy="249.66622"
     inkscape:document-units="px"
     inkscape:current-layer="layer1"
     showgrid="false"
     fit-margin-top="0"
     fit-margin-left="0"
     fit-margin-right="0"
     fit-margin-bottom="0"
     inkscape:window-width="1249"
     inkscape:window-height="718"
     inkscape:window-x="4"
     inkscape:window-y="0"
     inkscape:window-maximized="0" />
  <metadata
     id="metadata7">
    <rdf:RDF>
      <cc:Work
         rdf:about="">
        <dc:format>image/svg+xml</dc:format>
        <dc:type
           rdf:resource="http://purl.org/dc/dcmitype/StillImage" />
        <dc:title />
      </cc:Work>
    </rdf:RDF>
  </metadata>
  <g
     inkscape:label="Layer 1"
     inkscape:groupmode="layer"
     id="layer1"
     transform="translate(-136.60863,-227.00786)">
    <path
       style="opacity:0.25000000000000000;fill:#000080;stroke:none;stroke-width:30;stroke-miterlimit:4;stroke-dasharray:none"
       inkscape:path-effect="#path-effect3821"
       inkscape:original-d="m 239.66284,702.98138 c 33.17294,2.80818 67.57315,7.15928 99.87056,-0.91583 11.45515,-2.86406 19.79396,-14.24657 31.40668,-16.38386 26.52679,-4.88219 53.60852,6.0294 80.36556,9.43041 32.64094,4.1489 65.27808,18.39431 97.79857,13.38808 12.85546,-1.97898 33.87146,-3.74396 35.27851,-16.67452 1.44441,-13.27394 -19.60976,-18.80987 -31.68606,-24.50606 -30.82942,-14.54172 -65.64291,-22.0442 -99.72471,-22.63216 -21.30254,-0.3675 -41.60836,9.62742 -62.78294,11.98763 -15.58778,1.73748 -31.35537,2.2046 -47.02679,1.56873 -29.47733,-1.19604 -58.48907,-12.06354 -87.92573,-10.10738 -18.81769,1.2505 -45.9236,-2.76658 -54.85821,13.84191 -6.05851,11.26212 2.93884,27.91419 12.66889,36.21279 6.85868,5.84966 17.63336,4.02988 26.61567,4.79026 z"
       id="path3819"
       d="m 239.66284,702.98138 c 16.81675,1.18094 33.43291,4.45165 50.24691,5.67106 16.814,1.21941 34.22331,0.27075 49.62365,-6.58689 10.79955,-4.80895 20.28449,-12.37721 31.40668,-16.38386 12.9198,-4.65422 27.1893,-4.15743 40.66631,-1.52053 13.477,2.6369 26.45567,7.31906 39.69925,10.95094 31.79044,8.71813 64.89839,11.33475 97.79857,13.38808 7.21984,0.4506 14.65334,0.84968 21.50767,-1.46278 3.42716,-1.15623 6.65926,-3.00292 9.16675,-5.6096 2.50749,-2.60668 4.25657,-6.00193 4.60409,-9.60214 0.35284,-3.65532 -0.75209,-7.37453 -2.75349,-10.45354 -2.00139,-3.079 -4.8587,-5.54382 -8.02737,-7.4 -6.33732,-3.71236 -13.7461,-5.01221 -20.9052,-6.65252 -16.69097,-3.82427 -32.80093,-9.79735 -49.2164,-14.67033 -16.41547,-4.87298 -33.39962,-8.67345 -50.50831,-7.96183 -21.31611,0.88663 -41.70272,8.70329 -62.78294,11.98763 -15.52508,2.41884 -31.33446,2.36232 -47.02679,1.56873 -29.4777,-1.49074 -58.76329,-5.55665 -87.92573,-10.10738 -9.9775,-1.55697 -20.13599,-3.1736 -30.12382,-1.68439 -4.99392,0.7446 -9.90482,2.28074 -14.24807,4.85559 -4.34325,2.57485 -8.1039,6.219 -10.48632,10.67071 -3.36507,6.28785 -3.77879,14.02528 -1.34282,20.72803 2.43598,6.70275 7.62697,12.30736 14.01171,15.48476 8.12834,4.04512 17.55872,4.15424 26.61567,4.79026"
       inkscape:connector-curvature="0"
       sodipodi:nodetypes="aaaaaaaaaaaaaa" />
    <path
       style="fill:#d5e5ff;stroke:#000000;stroke-width:30;stroke-linecap:butt;stroke-linejoin:round;stroke-miterlimit:4;stroke-opacity:1;stroke-dasharray:none"
       inkscape:path-effect="#path-effect3839"
       inkscape:original-d="m 461.12055,568.06674 c -4.03167,17.64733 15.03033,29.22894 28.94737,35.52632 19.16452,8.67184 46.14974,-14.85755 63.06185,-2.34916 13.84013,10.23632 19.98399,34.05607 13.27254,49.90813 -7.80624,18.43789 -32.6262,26.3449 -52.42672,29.31687 -16.90796,2.53781 -35.41668,-2.10455 -50.14472,-10.78812 -15.42697,-9.09566 -25.73517,-25.35795 -35.31458,-40.48929 -10.09961,-15.95303 -18.80103,-33.4313 -22.6589,-51.91422 -0.89615,-4.29344 -0.11356,-9.02091 0,-13.15789 z"
       id="path3033"
       d="m 461.12055,568.06674 c -0.13047,8.29694 2.75373,16.60894 7.99533,23.04182 5.2416,6.43287 12.79975,10.93648 20.95204,12.4845 10.47339,1.98878 21.17893,-0.78557 31.61589,-2.95743 5.21849,-1.08592 10.49403,-2.02725 15.82298,-2.14588 5.32895,-0.11862 10.742,0.61222 15.62298,2.75415 4.43477,1.94612 8.34724,5.03644 11.35595,8.83147 3.00871,3.79502 5.11728,8.28371 6.22703,12.99784 2.21951,9.42826 0.36464,19.59578 -4.31044,28.07882 -5.03315,9.13277 -13.17575,16.35301 -22.43515,21.1492 -9.25941,4.7962 -19.60312,7.26203 -29.99157,8.16767 -17.34107,1.51176 -35.45841,-1.4441 -50.14472,-10.78812 -15.23667,-9.69418 -25.57784,-25.27978 -35.31458,-40.48929 -10.27773,-16.05459 -20.66443,-32.95628 -22.6589,-51.91422 -0.45973,-4.36989 -0.45973,-8.788 0,-13.15789 l 55.26316,3.94736"
       inkscape:connector-curvature="0"
       sodipodi:nodetypes="caaaaaaacc" />
    <path
       style="fill:#d5e5ff;stroke:#000000;stroke-width:30;stroke-linecap:butt;stroke-linejoin:round;stroke-miterlimit:4;stroke-opacity:1;stroke-dasharray:none"
       inkscape:path-effect="#path-effect3841"
       inkscape:original-d="m 303.22581,568.06676 c -16.08456,11.17785 -11.32037,41.73537 -27.16551,54.35093 -9.83066,7.82696 -26.22915,1.83232 -36.63949,8.86994 -9.76414,6.60078 -24.83562,17.81887 -20.5272,28.78911 7.2175,18.37744 38.29752,12.93152 58.01641,11.93739 18.87738,-0.95171 41.43202,-2.93669 54.10957,-16.95599 12.85103,-14.21114 10.09944,-37.19595 11.6019,-56.29695 0.69988,-8.89774 -4.14345,-23.35368 -1.23779,-26.74705 z"
       id="path3031"
       d="m 303.22581,568.06676 c 2.79791,10.69622 1.57905,22.39339 -3.36395,32.283 -4.94299,9.8896 -13.56706,17.88553 -23.80156,22.06793 -11.65253,4.76189 -24.79854,4.59805 -36.63949,8.86994 -6.06913,2.18957 -11.82775,5.63087 -15.85055,10.67524 -2.0114,2.52218 -3.5647,5.42552 -4.41519,8.5374 -0.85049,3.11188 -0.98681,6.43306 -0.26146,9.57647 1.2419,5.38193 4.98644,10.00378 9.67158,12.92902 4.68513,2.92524 10.24263,4.25435 15.7616,4.47465 11.03793,0.44061 21.74318,-3.33947 32.58323,-5.46628 9.44532,-1.85316 19.10859,-2.46069 28.51976,-4.48013 9.41117,-2.01944 18.8142,-5.63924 25.58981,-12.47586 6.9644,-7.02711 10.51364,-16.85442 11.78008,-26.66662 1.26644,-9.8122 0.45027,-19.75672 -0.17818,-29.63033 -0.56697,-8.90765 -0.97965,-17.82511 -1.23779,-26.74705 l -38.15789,-3.94738"
       inkscape:connector-curvature="0"
       sodipodi:nodetypes="caaaaaac" />
    <path
       style="fill:#ffeeaa;stroke:#000000;stroke-width:30;stroke-linecap:butt;stroke-linejoin:round;stroke-miterlimit:4;stroke-opacity:1;stroke-dasharray:none"
       inkscape:path-effect="#path-effect3843"
       inkscape:original-d="m 224.56826,303.48202 c 23.94341,-33.5047 79.87635,-45.31642 120.35785,-27.86856 23.8409,15.09665 -8.45763,48.73907 5.21905,66.10203 7.60188,9.65082 23.94649,31.269 35.03991,11.42567 19.42657,-15.9333 16.45582,-65.228 43.41036,-69.31847 35.14368,-5.3332 53.61833,48.95416 80.86393,69.51777 77.08152,-6.23251 65.97846,-39.45648 63.62779,16.7276 -0.76041,18.17486 32.85934,104.06571 -1.09029,132.12123 -15.36976,12.70137 -38.95884,-9.21856 -58.83598,-10.78511 -66.40381,-5.2334 -133.21208,2.20988 -199.77162,4.79484 -22.90148,0.88942 -51.23826,18.58058 -68.65736,3.68615 -50.01942,-42.76978 -58.42813,-142.85854 -20.16364,-196.40315 z"
       id="path3021"
       d="m 224.56826,303.48202 c 33.76576,-25.7031 78.73121,-36.11474 120.35785,-27.86856 -7.8687,9.38303 -11.87516,21.91082 -10.91131,34.11854 0.96386,12.20773 6.88667,23.95156 16.13036,31.98349 9.52571,8.27698 22.46609,12.49653 35.03991,11.42567 -2.20327,-14.67805 1.00885,-30.10744 8.88662,-42.6868 7.87776,-12.57936 20.35657,-22.20553 34.52374,-26.63167 10.12721,-3.16396 21.06133,-3.70661 31.45205,-1.56091 10.39071,2.1457 20.21551,6.97508 28.26105,13.89174 8.04554,6.91666 14.29441,15.90561 17.97488,25.85675 3.68047,9.95113 4.78457,20.8429 3.17595,31.33019 22.22236,-0.64072 44.59376,5.24066 63.62779,16.7276 12.23717,7.38506 23.15595,17.10935 31.23052,28.90294 8.07457,11.79359 13.23399,25.69354 13.99442,39.96621 0.76043,14.27267 -3.00157,28.8763 -11.23125,40.56218 -8.22968,11.68588 -20.99895,20.26102 -35.08398,22.6899 -9.92573,1.71163 -20.15521,0.42595 -29.93384,-1.98821 -9.77864,-2.41416 -19.24384,-5.93911 -28.90214,-8.7969 -64.50873,-19.08748 -133.65658,-7.63533 -199.77162,4.79484 -22.68676,4.2653 -46.10826,8.6278 -68.65736,3.68615 -20.16181,-4.41847 -38.46263,-16.342 -51.25313,-32.54152 -12.79051,-16.19951 -20.10455,-36.50891 -21.34711,-57.11176 -1.24255,-20.60285 3.48906,-41.43215 12.82318,-59.84127 9.33412,-18.40911 23.19005,-34.40683 39.61342,-46.9086"
       inkscape:connector-curvature="0"
       sodipodi:nodetypes="acacacsaaaaa" />
    <path
       style="fill:#ffffff;stroke:#000000;stroke-width:30;stroke-linecap:butt;stroke-linejoin:round;stroke-miterlimit:4;stroke-opacity:1;stroke-dasharray:none"
       inkscape:path-effect="#path-effect3023"
       inkscape:original-d="m 241.2199,490.29346 c -1.82022,23.58878 0.13395,52.83593 17.64123,68.74942 18.00776,16.36841 47.88084,9.18019 72.12059,11.33392 41.01126,3.6439 82.44749,5.90759 123.49029,2.6381 24.52174,-1.95341 55.36218,4.31113 72.60141,-13.23711 16.41846,-16.71276 13.87727,-46.06346 11.37658,-69.35785 -2.83237,-26.38409 -8.76525,-57.1843 -29.26623,-74.03222 -20.54574,-16.88471 -51.99852,-11.86155 -78.4709,-14.39813 -26.38204,-2.52792 -53.14289,-3.49088 -79.50496,-0.76257 -26.89563,2.78353 -58.394,0.14672 -79.2356,17.37318 -20.04322,16.56656 -28.75181,45.76684 -30.75241,71.69326 z"
       id="path3029"
       d="m 241.2199,490.29346 c -1.28839,12.25101 -1.89323,24.72059 0.44739,36.81475 2.34063,12.09415 7.86564,23.88906 17.19384,31.93467 9.48359,8.17963 22.14283,11.8819 34.62745,12.87136 12.48462,0.98947 25.01199,-0.50517 37.49314,-1.53744 41.09481,-3.39879 82.49295,-1.78381 123.49029,2.6381 12.69828,1.36962 25.49259,3.00977 38.20119,1.73953 12.70861,-1.27025 25.55189,-5.76636 34.40022,-14.97664 8.41158,-8.75566 12.44762,-20.97788 13.51294,-33.07257 1.06532,-12.09468 -0.5797,-24.24398 -2.13636,-36.28528 -1.74612,-13.50685 -3.40573,-27.12219 -7.58016,-40.08592 -4.17443,-12.96372 -11.08503,-25.39634 -21.68607,-33.9463 -10.59118,-8.54201 -24.17017,-12.65946 -37.69145,-14.18067 -13.52128,-1.52121 -27.17927,-0.63492 -40.77945,-0.21746 -26.49403,0.81323 -53.00527,-0.16136 -79.50496,-0.76257 -13.8164,-0.31346 -27.72195,-0.51956 -41.36406,1.6904 -13.64212,2.20995 -27.13479,6.98144 -37.87154,15.68278 -10.37362,8.40704 -17.71759,20.12993 -22.42906,32.62362 -4.71147,12.4937 -6.92682,25.79033 -8.32335,39.06964"
       inkscape:connector-curvature="0"
       sodipodi:nodetypes="aaaaaaaaaaa" />
    <path
       sodipodi:nodetypes="aaaa"
       inkscape:connector-curvature="0"
       d="m 444.01392,471.01273 c 2.30847,2.15575 4.05942,4.90357 5.03822,7.9066 0.97879,3.00304 1.18333,6.25489 0.58855,9.3569 -0.59478,3.10202 -1.98762,6.04759 -4.00776,8.47561 -2.02015,2.42802 -4.66329,4.33331 -7.60541,5.48231 -4.25686,1.66245 -9.12639,1.69816 -13.40717,0.0983 -4.28079,-1.59983 -7.93335,-4.82045 -10.05652,-8.86727 -2.12317,-4.04682 -2.69736,-8.88251 -1.58092,-13.314 1.11644,-4.4315 3.91322,-8.41792 7.70032,-10.97575 3.48954,-2.35685 7.78859,-3.49 11.98649,-3.15942 4.19789,0.33058 8.26659,2.12268 11.3442,4.99669"
       id="path3811"
       inkscape:original-d="m 444.01392,471.01273 c 6.42466,8.42699 4.49624,29.67071 -5.9864,31.22142 -12.31014,1.82106 -24.19624,-22.67089 -17.34429,-33.05869 4.29536,-6.51192 18.60105,-4.36642 23.33069,1.83727 z"
       inkscape:path-effect="#path-effect3813"
       style="fill:none;stroke:#000000;stroke-width:20;stroke-linecap:butt;stroke-linejoin:round;stroke-miterlimit:4;stroke-opacity:1;stroke-dasharray:none" />
    <path
       style="opacity:0.25000000000000000;fill:#000080;stroke:none;stroke-width:30;stroke-miterlimit:4;stroke-dasharray:none"
       inkscape:path-effect="#path-effect3834"
       inkscape:original-d="m 409.67742,572.79229 c -3.36249,6.10929 4.93929,13.07297 8.10275,19.28766 3.34309,6.56757 7.28208,12.83417 11.44207,18.91724 4.93891,7.22207 10.69236,13.85209 16.00277,20.80555 4.64666,6.08435 6.60396,15.91117 13.87723,18.30081 5.70637,1.87483 13.16474,-0.72955 17.28167,-5.10317 5.58349,-5.93162 5.72341,-15.67031 5.49255,-23.81317 -0.18436,-6.50267 -1.85617,-13.31942 -5.45658,-18.73752 -6.20667,-9.34013 -16.45922,-15.51615 -26.13555,-21.18443 -8.36957,-4.9028 -17.39268,-9.73185 -27.03816,-10.75745 -4.56086,-0.48495 -11.35719,-1.73369 -13.56875,2.28448 z m -111.82795,-9.67742 c -7.89586,7.66949 3.12966,21.80421 4.05228,32.773 1.21386,14.43129 -5.36394,30.90122 1.94614,43.40315 4.68434,8.0113 14.59277,16.85089 23.62681,14.72717 6.44879,-1.51598 8.45355,-10.59849 10.41533,-16.92593 4.49131,-14.48606 4.9257,-30.51292 2.2587,-45.44293 -1.50351,-8.41676 -3.30894,-18.35197 -10.06415,-23.59311 -8.58864,-6.66364 -24.43751,-12.5154 -32.23511,-4.94135 z"
       id="path3832"
       d="m 409.67742,572.79229 c -1.13204,1.5313 -1.55713,3.51768 -1.37932,5.41367 0.17781,1.89599 0.92386,3.70667 1.93731,5.31891 2.02691,3.22447 5.06437,5.66488 7.54476,8.55508 4.80763,5.60195 7.40428,12.73732 11.44207,18.91724 4.79096,7.33267 11.56742,13.25247 16.00277,20.80555 1.98108,3.37364 3.46398,7.02413 5.50099,10.3643 2.03701,3.34017 4.75823,6.44784 8.37624,7.93651 2.96939,1.22178 6.37529,1.24464 9.43332,0.26563 3.05803,-0.979 5.76791,-2.92304 7.84835,-5.3688 2.7125,-3.18881 4.36426,-7.18969 5.15111,-11.3015 0.78685,-4.11182 0.74276,-8.34453 0.34144,-12.51167 -0.62848,-6.52584 -2.16808,-13.0659 -5.45658,-18.73752 -2.85351,-4.92141 -6.94398,-9.04482 -11.49381,-12.45978 -4.54982,-3.41495 -9.56622,-6.15524 -14.64174,-8.72465 -8.6714,-4.38977 -17.62533,-8.33632 -27.03816,-10.75745 -2.36328,-0.60787 -4.796,-1.12174 -7.22722,-0.91249 -1.21561,0.10462 -2.42179,0.39305 -3.52245,0.91956 -1.10065,0.52651 -2.09378,1.29629 -2.81908,2.27741 m -111.82795,-9.67742 c -1.60047,2.36711 -2.38811,5.22519 -2.53281,8.07892 -0.1447,2.85373 0.32906,5.71109 1.08803,8.46585 1.51794,5.50952 4.16762,10.67022 5.49706,16.22823 1.69228,7.0749 1.17563,14.46461 0.7303,21.72544 -0.44533,7.26083 -0.7923,14.6859 1.21584,21.67771 1.46092,5.08654 4.27404,9.93273 8.59495,12.98837 2.16045,1.52782 4.6725,2.58052 7.29597,2.92577 2.62347,0.34524 5.35525,-0.0318 7.73589,-1.18697 3.08302,-1.49596 5.44616,-4.21498 7.05969,-7.23813 1.61353,-3.02315 2.54196,-6.35901 3.35564,-9.6878 3.62981,-14.84965 5.20258,-30.44223 2.2587,-45.44293 -1.66127,-8.46512 -4.8099,-16.75125 -10.06415,-23.59311 -3.87133,-5.04109 -9.07897,-9.34504 -15.27281,-10.77196 -3.09692,-0.71346 -6.38933,-0.67582 -9.41513,0.296 -3.02581,0.97182 -5.76711,2.90187 -7.54717,5.53461"
       inkscape:connector-curvature="0"
       sodipodi:nodetypes="aaaaaaaaaaaaaaaaaaa" />
    <path
       style="fill:none;stroke:#000000;stroke-width:20;stroke-linecap:butt;stroke-linejoin:miter;stroke-miterlimit:4;stroke-opacity:1;stroke-dasharray:none"
       inkscape:path-effect="#path-effect3847"
       inkscape:original-d="m 303.2753,426.10464 c 6.60677,3.4358 18.34428,17.56247 30.07846,21.00736 11.63383,3.41543 31.40497,-3.45548 36.34743,-1.40207"
       id="path3845"
       d="m 303.2753,426.10464 c 7.38976,10.01734 18.12938,17.51809 30.07846,21.00736 11.84319,3.45835 24.80584,2.95832 36.34743,-1.40207"
       inkscape:connector-curvature="0"
       sodipodi:nodetypes="cac" />
    <path
       sodipodi:nodetypes="cac"
       inkscape:connector-curvature="0"
       d="m 454.64743,446.53475 c -7.55113,2.8629 -15.55934,4.51639 -23.62685,4.87833 -9.00661,0.40408 -18.08323,-0.80499 -26.67001,-3.55261"
       id="path3853"
       inkscape:original-d="m 454.64743,446.53475 c -6.60677,3.4358 -15.5902,4.59216 -23.62685,4.87833 -8.96285,0.31915 -21.72755,-5.60602 -26.67001,-3.55261"
       inkscape:path-effect="#path-effect3855"
       style="fill:none;stroke:#000000;stroke-width:20;stroke-linecap:butt;stroke-linejoin:miter;stroke-miterlimit:4;stroke-opacity:1;stroke-dasharray:none" />
    <path
       style="fill:none;stroke:#000000;stroke-width:20;stroke-linecap:butt;stroke-linejoin:round;stroke-miterlimit:4;stroke-opacity:1;stroke-dasharray:none"
       inkscape:path-effect="#path-effect3824"
       inkscape:original-d="m 352.01392,467.01273 c 6.42466,8.42699 4.49624,29.67071 -5.9864,31.22142 -12.31014,1.82106 -24.19624,-22.67089 -17.34429,-33.05869 4.29536,-6.51192 18.60105,-4.36642 23.33069,1.83727 z"
       id="path3822"
       d="m 352.01392,467.01273 c 2.30847,2.15575 4.05942,4.90357 5.03822,7.9066 0.97879,3.00304 1.18333,6.25489 0.58855,9.3569 -0.59478,3.10202 -1.98762,6.04759 -4.00776,8.47561 -2.02015,2.42802 -4.66329,4.33331 -7.60541,5.48231 -4.25686,1.66245 -9.12639,1.69816 -13.40717,0.0983 -4.28079,-1.59983 -7.93335,-4.82045 -10.05652,-8.86727 -2.12317,-4.04682 -2.69736,-8.88251 -1.58092,-13.314 1.11644,-4.4315 3.91322,-8.41792 7.70032,-10.97575 3.48954,-2.35685 7.78859,-3.49 11.98649,-3.15942 4.19789,0.33058 8.26659,2.12268 11.3442,4.99669"
       inkscape:connector-curvature="0"
       sodipodi:nodetypes="aaaa" />
  </g>
</svg>
