<?xml version="1.0" encoding="UTF-8" standalone="no"?>
<!-- Created with Inkscape (http://www.inkscape.org/) -->

<svg
   xmlns:dc="http://purl.org/dc/elements/1.1/"
   xmlns:cc="http://creativecommons.org/ns#"
   xmlns:rdf="http://www.w3.org/1999/02/22-rdf-syntax-ns#"
   xmlns:svg="http://www.w3.org/2000/svg"
   xmlns="http://www.w3.org/2000/svg"
   xmlns:sodipodi="http://sodipodi.sourceforge.net/DTD/sodipodi-0.dtd"
   xmlns:inkscape="http://www.inkscape.org/namespaces/inkscape"
   width="512"
   height="512"
   id="svg2"
   version="1.1"
   inkscape:version="0.48.5 r10040"
   sodipodi:docname="player-hurting.svg"
   inkscape:export-filename="/Users/darabos/Documents/fragmented-space/images/player-hurting.png"
   inkscape:export-xdpi="5.6199999"
   inkscape:export-ydpi="5.6199999">
  <defs
     id="defs4">
    <inkscape:path-effect
       is_visible="true"
       id="path-effect5357"
       effect="spiro" />
    <inkscape:path-effect
       effect="spiro"
       id="path-effect5353"
       is_visible="true" />
    <inkscape:path-effect
       effect="spiro"
       id="path-effect4832"
       is_visible="true" />
    <inkscape:path-effect
       effect="spiro"
       id="path-effect4828"
       is_visible="true" />
    <inkscape:path-effect
       effect="spiro"
       id="path-effect4718"
       is_visible="true" />
    <inkscape:path-effect
       effect="spiro"
       id="path-effect4714"
       is_visible="true" />
    <inkscape:path-effect
       effect="spiro"
       id="path-effect4198"
       is_visible="true" />
    <inkscape:path-effect
       effect="spiro"
       id="path-effect4194"
       is_visible="true" />
    <inkscape:path-effect
       is_visible="true"
       id="path-effect4190"
       effect="spiro" />
    <inkscape:path-effect
       is_visible="true"
       id="path-effect3855"
       effect="spiro" />
    <inkscape:path-effect
       effect="spiro"
       id="path-effect3847"
       is_visible="true" />
    <inkscape:path-effect
       is_visible="true"
       id="path-effect3843"
       effect="spiro" />
    <inkscape:path-effect
       is_visible="true"
       id="path-effect3841"
       effect="spiro" />
    <inkscape:path-effect
       is_visible="true"
       id="path-effect3839"
       effect="spiro" />
    <inkscape:path-effect
       effect="spiro"
       id="path-effect3834"
       is_visible="true" />
    <inkscape:path-effect
       effect="spiro"
       id="path-effect3830"
       is_visible="true" />
    <inkscape:path-effect
       effect="spiro"
       id="path-effect3821"
       is_visible="true" />
    <inkscape:path-effect
       effect="spiro"
       id="path-effect3813"
       is_visible="true" />
    <inkscape:path-effect
       is_visible="true"
       id="path-effect3809"
       effect="spiro" />
    <inkscape:path-effect
       effect="spiro"
       id="path-effect3023"
       is_visible="true" />
    <inkscape:path-effect
       effect="spiro"
       id="path-effect3019"
       is_visible="true" />
    <inkscape:path-effect
       effect="spiro"
       id="path-effect3015"
       is_visible="true" />
    <inkscape:path-effect
       effect="spiro"
       id="path-effect2999"
       is_visible="true" />
    <inkscape:path-effect
       effect="spiro"
       id="path-effect2995"
       is_visible="true" />
    <inkscape:path-effect
       effect="spiro"
       id="path-effect2991"
       is_visible="true" />
    <inkscape:path-effect
       effect="spiro"
       id="path-effect2987"
       is_visible="true" />
    <inkscape:path-effect
       is_visible="true"
       id="path-effect2987-5"
       effect="spiro" />
    <inkscape:path-effect
       is_visible="true"
       id="path-effect2991-1"
       effect="spiro" />
    <inkscape:path-effect
       is_visible="true"
       id="path-effect2995-7"
       effect="spiro" />
    <inkscape:path-effect
       is_visible="true"
       id="path-effect2999-9"
       effect="spiro" />
    <inkscape:path-effect
       is_visible="true"
       id="path-effect3015-0"
       effect="spiro" />
    <inkscape:path-effect
       is_visible="true"
       id="path-effect3019-2"
       effect="spiro" />
    <inkscape:path-effect
       is_visible="true"
       id="path-effect3023-1"
       effect="spiro" />
    <inkscape:path-effect
       effect="spiro"
       id="path-effect3809-2"
       is_visible="true" />
    <inkscape:path-effect
       is_visible="true"
       id="path-effect3813-2"
       effect="spiro" />
    <inkscape:path-effect
       is_visible="true"
       id="path-effect3821-8"
       effect="spiro" />
    <inkscape:path-effect
       is_visible="true"
       id="path-effect3830-5"
       effect="spiro" />
    <inkscape:path-effect
       is_visible="true"
       id="path-effect3834-2"
       effect="spiro" />
    <inkscape:path-effect
       effect="spiro"
       id="path-effect3839-1"
       is_visible="true" />
    <inkscape:path-effect
       effect="spiro"
       id="path-effect3841-8"
       is_visible="true" />
    <inkscape:path-effect
       effect="spiro"
       id="path-effect3843-3"
       is_visible="true" />
    <inkscape:path-effect
       is_visible="true"
       id="path-effect3847-5"
       effect="spiro" />
    <inkscape:path-effect
       effect="spiro"
       id="path-effect3855-8"
       is_visible="true" />
    <inkscape:path-effect
       effect="spiro"
       id="path-effect3824"
       is_visible="true" />
    <inkscape:path-effect
       is_visible="true"
       id="path-effect2987-1"
       effect="spiro" />
    <inkscape:path-effect
       is_visible="true"
       id="path-effect2991-7"
       effect="spiro" />
    <inkscape:path-effect
       is_visible="true"
       id="path-effect2995-9"
       effect="spiro" />
    <inkscape:path-effect
       is_visible="true"
       id="path-effect2999-95"
       effect="spiro" />
    <inkscape:path-effect
       is_visible="true"
       id="path-effect3015-1"
       effect="spiro" />
    <inkscape:path-effect
       is_visible="true"
       id="path-effect3019-3"
       effect="spiro" />
    <inkscape:path-effect
       is_visible="true"
       id="path-effect3023-7"
       effect="spiro" />
    <inkscape:path-effect
       effect="spiro"
       id="path-effect3809-6"
       is_visible="true" />
    <inkscape:path-effect
       is_visible="true"
       id="path-effect3813-9"
       effect="spiro" />
    <inkscape:path-effect
       is_visible="true"
       id="path-effect3821-82"
       effect="spiro" />
    <inkscape:path-effect
       is_visible="true"
       id="path-effect3830-1"
       effect="spiro" />
    <inkscape:path-effect
       is_visible="true"
       id="path-effect3834-0"
       effect="spiro" />
    <inkscape:path-effect
       effect="spiro"
       id="path-effect3839-7"
       is_visible="true" />
    <inkscape:path-effect
       effect="spiro"
       id="path-effect3841-83"
       is_visible="true" />
    <inkscape:path-effect
       effect="spiro"
       id="path-effect3843-8"
       is_visible="true" />
    <inkscape:path-effect
       is_visible="true"
       id="path-effect3847-9"
       effect="spiro" />
    <inkscape:path-effect
       effect="spiro"
       id="path-effect3855-3"
       is_visible="true" />
    <inkscape:path-effect
       effect="spiro"
       id="path-effect3824-5"
       is_visible="true" />
  </defs>
  <sodipodi:namedview
     id="base"
     pagecolor="#ffffff"
     bordercolor="#666666"
     borderopacity="1.0"
     inkscape:pageopacity="0.0"
     inkscape:pageshadow="2"
     inkscape:zoom="0.58"
     inkscape:cx="261.10028"
     inkscape:cy="249.66622"
     inkscape:document-units="px"
     inkscape:current-layer="layer1"
     showgrid="false"
     fit-margin-top="0"
     fit-margin-left="0"
     fit-margin-right="0"
     fit-margin-bottom="0"
     inkscape:window-width="869"
     inkscape:window-height="714"
     inkscape:window-x="388"
     inkscape:window-y="0"
     inkscape:window-maximized="0" />
  <metadata
     id="metadata7">
    <rdf:RDF>
      <cc:Work
         rdf:about="">
        <dc:format>image/svg+xml</dc:format>
        <dc:type
           rdf:resource="http://purl.org/dc/dcmitype/StillImage" />
        <dc:title></dc:title>
      </cc:Work>
    </rdf:RDF>
  </metadata>
  <g
     inkscape:label="Layer 1"
     inkscape:groupmode="layer"
     id="layer1"
     transform="translate(-136.60863,-227.00786)">
    <path
       style="opacity:0.25;fill:#000080;stroke:none"
       inkscape:path-effect="#path-effect3821"
       inkscape:original-d="m 239.66284,702.98138 c 33.17294,2.80818 67.57315,7.15928 99.87056,-0.91583 11.45515,-2.86406 19.79396,-14.24657 31.40668,-16.38386 26.52679,-4.88219 53.60852,6.0294 80.36556,9.43041 32.64094,4.1489 65.27808,18.39431 97.79857,13.38808 12.85546,-1.97898 33.87146,-3.74396 35.27851,-16.67452 1.44441,-13.27394 -19.60976,-18.80987 -31.68606,-24.50606 -30.82942,-14.54172 -65.64291,-22.0442 -99.72471,-22.63216 -21.30254,-0.3675 -41.60836,9.62742 -62.78294,11.98763 -15.58778,1.73748 -31.35537,2.2046 -47.02679,1.56873 -29.47733,-1.19604 -58.48907,-12.06354 -87.92573,-10.10738 -18.81769,1.2505 -45.9236,-2.76658 -54.85821,13.84191 -6.05851,11.26212 2.93884,27.91419 12.66889,36.21279 6.85868,5.84966 17.63336,4.02988 26.61567,4.79026 z"
       id="path3819"
       d="m 239.66284,702.98138 c 16.81675,1.18094 33.43291,4.45165 50.24691,5.67106 16.814,1.21941 34.22331,0.27075 49.62365,-6.58689 10.79955,-4.80895 20.28449,-12.37721 31.40668,-16.38386 12.9198,-4.65422 27.1893,-4.15743 40.66631,-1.52053 13.477,2.6369 26.45567,7.31906 39.69925,10.95094 31.79044,8.71813 64.89839,11.33475 97.79857,13.38808 7.21984,0.4506 14.65334,0.84968 21.50767,-1.46278 3.42716,-1.15623 6.65926,-3.00292 9.16675,-5.6096 2.50749,-2.60668 4.25657,-6.00193 4.60409,-9.60214 0.35284,-3.65532 -0.75209,-7.37453 -2.75349,-10.45354 -2.00139,-3.079 -4.8587,-5.54382 -8.02737,-7.4 -6.33732,-3.71236 -13.7461,-5.01221 -20.9052,-6.65252 -16.69097,-3.82427 -32.80093,-9.79735 -49.2164,-14.67033 -16.41547,-4.87298 -33.39962,-8.67345 -50.50831,-7.96183 -21.31611,0.88663 -41.70272,8.70329 -62.78294,11.98763 -15.52508,2.41884 -31.33446,2.36232 -47.02679,1.56873 -29.4777,-1.49074 -58.76329,-5.55665 -87.92573,-10.10738 -9.9775,-1.55697 -20.13599,-3.1736 -30.12382,-1.68439 -4.99392,0.7446 -9.90482,2.28074 -14.24807,4.85559 -4.34325,2.57485 -8.1039,6.219 -10.48632,10.67071 -3.36507,6.28785 -3.77879,14.02528 -1.34282,20.72803 2.43598,6.70275 7.62697,12.30736 14.01171,15.48476 8.12834,4.04512 17.55872,4.15424 26.61567,4.79026"
       inkscape:connector-curvature="0"
       sodipodi:nodetypes="aaaaaaaaaaaaaa" />
    <path
       style="fill:#d5e5ff;stroke:#000000;stroke-width:30;stroke-linecap:butt;stroke-linejoin:round;stroke-miterlimit:4;stroke-opacity:1;stroke-dasharray:none"
       inkscape:path-effect="#path-effect3839"
       inkscape:original-d="m 461.12055,568.06674 c -4.03167,17.64733 15.03033,29.22894 28.94737,35.52632 19.16452,8.67184 46.14974,-14.85755 63.06185,-2.34916 13.84013,10.23632 19.98399,34.05607 13.27254,49.90813 -7.80624,18.43789 -32.6262,26.3449 -52.42672,29.31687 -16.90796,2.53781 -35.41668,-2.10455 -50.14472,-10.78812 -15.42697,-9.09566 -25.73517,-25.35795 -35.31458,-40.48929 -10.09961,-15.95303 -18.80103,-33.4313 -22.6589,-51.91422 -0.89615,-4.29344 -0.11356,-9.02091 0,-13.15789 z"
       id="path3033"
       d="m 461.12055,568.06674 c -0.13047,8.29694 2.75373,16.60894 7.99533,23.04182 5.2416,6.43287 12.79975,10.93648 20.95204,12.4845 10.47339,1.98878 21.17893,-0.78557 31.61589,-2.95743 5.21849,-1.08592 10.49403,-2.02725 15.82298,-2.14588 5.32895,-0.11862 10.742,0.61222 15.62298,2.75415 4.43477,1.94612 8.34724,5.03644 11.35595,8.83147 3.00871,3.79502 5.11728,8.28371 6.22703,12.99784 2.21951,9.42826 0.36464,19.59578 -4.31044,28.07882 -5.03315,9.13277 -13.17575,16.35301 -22.43515,21.1492 -9.25941,4.7962 -19.60312,7.26203 -29.99157,8.16767 -17.34107,1.51176 -35.45841,-1.4441 -50.14472,-10.78812 -15.23667,-9.69418 -25.57784,-25.27978 -35.31458,-40.48929 -10.27773,-16.05459 -20.66443,-32.95628 -22.6589,-51.91422 -0.45973,-4.36989 -0.45973,-8.788 0,-13.15789 l 55.26316,3.94736"
       inkscape:connector-curvature="0"
       sodipodi:nodetypes="caaaaaaacc" />
    <path
       style="fill:#d5e5ff;stroke:#000000;stroke-width:30;stroke-linecap:butt;stroke-linejoin:round;stroke-miterlimit:4;stroke-opacity:1;stroke-dasharray:none"
       inkscape:path-effect="#path-effect3841"
       inkscape:original-d="m 303.22581,568.06676 c -16.08456,11.17785 -11.32037,41.73537 -27.16551,54.35093 -9.83066,7.82696 -26.22915,1.83232 -36.63949,8.86994 -9.76414,6.60078 -24.83562,17.81887 -20.5272,28.78911 7.2175,18.37744 38.29752,12.93152 58.01641,11.93739 18.87738,-0.95171 41.43202,-2.93669 54.10957,-16.95599 12.85103,-14.21114 10.09944,-37.19595 11.6019,-56.29695 0.69988,-8.89774 -4.14345,-23.35368 -1.23779,-26.74705 z"
       id="path3031"
       d="m 303.22581,568.06676 c 2.79791,10.69622 1.57905,22.39339 -3.36395,32.283 -4.94299,9.8896 -13.56706,17.88553 -23.80156,22.06793 -11.65253,4.76189 -24.79854,4.59805 -36.63949,8.86994 -6.06913,2.18957 -11.82775,5.63087 -15.85055,10.67524 -2.0114,2.52218 -3.5647,5.42552 -4.41519,8.5374 -0.85049,3.11188 -0.98681,6.43306 -0.26146,9.57647 1.2419,5.38193 4.98644,10.00378 9.67158,12.92902 4.68513,2.92524 10.24263,4.25435 15.7616,4.47465 11.03793,0.44061 21.74318,-3.33947 32.58323,-5.46628 9.44532,-1.85316 19.10859,-2.46069 28.51976,-4.48013 9.41117,-2.01944 18.8142,-5.63924 25.58981,-12.47586 6.9644,-7.02711 10.51364,-16.85442 11.78008,-26.66662 1.26644,-9.8122 0.45027,-19.75672 -0.17818,-29.63033 -0.56697,-8.90765 -0.97965,-17.82511 -1.23779,-26.74705 l -38.15789,-3.94738"
       inkscape:connector-curvature="0"
       sodipodi:nodetypes="caaaaaac" />
    <path
       style="opacity:0.25;fill:#000080;stroke:none"
       inkscape:path-effect="#path-effect3834"
       inkscape:original-d="m 409.67742,572.79229 c -3.36249,6.10929 4.93929,13.07297 8.10275,19.28766 3.34309,6.56757 7.28208,12.83417 11.44207,18.91724 4.93891,7.22207 10.69236,13.85209 16.00277,20.80555 4.64666,6.08435 6.60396,15.91117 13.87723,18.30081 5.70637,1.87483 13.16474,-0.72955 17.28167,-5.10317 5.58349,-5.93162 5.72341,-15.67031 5.49255,-23.81317 -0.18436,-6.50267 -1.85617,-13.31942 -5.45658,-18.73752 -6.20667,-9.34013 -16.45922,-15.51615 -26.13555,-21.18443 -8.36957,-4.9028 -17.39268,-9.73185 -27.03816,-10.75745 -4.56086,-0.48495 -11.35719,-1.73369 -13.56875,2.28448 z m -111.82795,-9.67742 c -7.89586,7.66949 3.12966,21.80421 4.05228,32.773 1.21386,14.43129 -5.36394,30.90122 1.94614,43.40315 4.68434,8.0113 14.59277,16.85089 23.62681,14.72717 6.44879,-1.51598 8.45355,-10.59849 10.41533,-16.92593 4.49131,-14.48606 4.9257,-30.51292 2.2587,-45.44293 -1.50351,-8.41676 -3.30894,-18.35197 -10.06415,-23.59311 -8.58864,-6.66364 -24.43751,-12.5154 -32.23511,-4.94135 z"
       id="path3832"
       d="m 409.67742,572.79229 c -1.13204,1.5313 -1.55713,3.51768 -1.37932,5.41367 0.17781,1.89599 0.92386,3.70667 1.93731,5.31891 2.02691,3.22447 5.06437,5.66488 7.54476,8.55508 4.80763,5.60195 7.40428,12.73732 11.44207,18.91724 4.79096,7.33267 11.56742,13.25247 16.00277,20.80555 1.98108,3.37364 3.46398,7.02413 5.50099,10.3643 2.03701,3.34017 4.75823,6.44784 8.37624,7.93651 2.96939,1.22178 6.37529,1.24464 9.43332,0.26563 3.05803,-0.979 5.76791,-2.92304 7.84835,-5.3688 2.7125,-3.18881 4.36426,-7.18969 5.15111,-11.3015 0.78685,-4.11182 0.74276,-8.34453 0.34144,-12.51167 -0.62848,-6.52584 -2.16808,-13.0659 -5.45658,-18.73752 -2.85351,-4.92141 -6.94398,-9.04482 -11.49381,-12.45978 -4.54982,-3.41495 -9.56622,-6.15524 -14.64174,-8.72465 -8.6714,-4.38977 -17.62533,-8.33632 -27.03816,-10.75745 -2.36328,-0.60787 -4.796,-1.12174 -7.22722,-0.91249 -1.21561,0.10462 -2.42179,0.39305 -3.52245,0.91956 -1.10065,0.52651 -2.09378,1.29629 -2.81908,2.27741 m -111.82795,-9.67742 c -1.60047,2.36711 -2.38811,5.22519 -2.53281,8.07892 -0.1447,2.85373 0.32906,5.71109 1.08803,8.46585 1.51794,5.50952 4.16762,10.67022 5.49706,16.22823 1.69228,7.0749 1.17563,14.46461 0.7303,21.72544 -0.44533,7.26083 -0.7923,14.6859 1.21584,21.67771 1.46092,5.08654 4.27404,9.93273 8.59495,12.98837 2.16045,1.52782 4.6725,2.58052 7.29597,2.92577 2.62347,0.34524 5.35525,-0.0318 7.73589,-1.18697 3.08302,-1.49596 5.44616,-4.21498 7.05969,-7.23813 1.61353,-3.02315 2.54196,-6.35901 3.35564,-9.6878 3.62981,-14.84965 5.20258,-30.44223 2.2587,-45.44293 -1.66127,-8.46512 -4.8099,-16.75125 -10.06415,-23.59311 -3.87133,-5.04109 -9.07897,-9.34504 -15.27281,-10.77196 -3.09692,-0.71346 -6.38933,-0.67582 -9.41513,0.296 -3.02581,0.97182 -5.76711,2.90187 -7.54717,5.53461"
       inkscape:connector-curvature="0"
       sodipodi:nodetypes="aaaaaaaaaaaaaaaaaaa" />
    <path
       style="fill:#ffeeaa;stroke:#000000;stroke-width:30;stroke-linecap:butt;stroke-linejoin:round;stroke-miterlimit:4;stroke-opacity:1;stroke-dasharray:none"
       inkscape:path-effect="#path-effect3843-3"
       inkscape:original-d="m 223.63916,318.09166 c 24.30604,-30.0059 74.70394,-29.79918 115.18544,-12.35132 23.8409,15.09665 -1.07628,37.74725 10.39146,50.58479 8.1844,9.16201 23.94649,31.269 35.03991,11.42567 19.42657,-15.9333 12.35646,-84.04677 45.1345,-88.28399 39.24393,-5.07305 51.89419,67.91968 79.13979,88.48329 77.08152,-6.23251 65.97846,-39.45648 63.62779,16.7276 -0.76041,18.17486 32.85934,104.06571 -1.09029,132.12123 -15.36976,12.70137 -38.95884,-9.21856 -58.83598,-10.78511 -66.40381,-5.2334 -133.21208,2.20988 -199.77162,4.79484 -22.90148,0.88942 -51.23826,18.58058 -68.65736,3.68615 C 193.78338,471.72503 182.21446,369.2306 223.63916,318.09166 z"
       id="path3021-4"
       d="m 223.63916,318.09166 c 33.74902,-21.49602 77.64608,-26.2031 115.18544,-12.35132 -3.75326,8.38915 -4.80142,17.96369 -2.95207,26.96617 1.84935,9.00248 6.58707,17.38845 13.34353,23.61862 9.31563,8.58999 22.45129,12.87321 35.03991,11.42567 -6.68575,-17.39835 -5.61595,-37.61716 2.86846,-54.21284 8.48442,-16.59569 24.24763,-29.3026 42.26604,-34.07115 11.80295,-3.12364 24.468,-2.91803 36.16334,0.58707 11.69534,3.50509 22.38582,10.29916 30.52523,19.39953 8.1394,9.10037 13.70327,20.4797 15.88687,32.49214 2.18361,12.01243 0.98038,24.62187 -3.43565,36.00455 22.22226,-0.63916 44.59308,5.24208 63.62779,16.7276 12.23875,7.38485 23.15943,17.1089 31.23575,28.9028 8.07632,11.79391 13.23731,25.69477 13.99826,39.96867 0.76096,14.27389 -3.0017,28.87903 -11.23327,40.56511 -8.23157,11.68608 -21.00403,20.25988 -35.09103,22.68465 -9.92592,1.70853 -20.15447,0.41927 -29.93252,-1.99581 -9.77805,-2.41508 -19.24346,-5.93847 -28.90346,-8.7893 -64.50969,-19.0379 -133.60714,-7.29663 -199.77162,4.79484 -22.69308,4.14713 -46.05863,8.31994 -68.65736,3.68615 -20.63311,-4.23075 -39.57272,-15.89825 -53.04725,-32.08656 -13.47452,-16.18832 -21.47948,-36.74973 -23.03665,-57.75448 -1.55718,-21.00475 3.26251,-42.36664 13.21108,-60.9314 9.94858,-18.56475 24.94427,-34.31557 42.70918,-45.63071"
       inkscape:connector-curvature="0"
       sodipodi:nodetypes="acacacsaaaaa" />
    <path
       style="fill:#d7eef4;stroke:#000000;stroke-width:30;stroke-linecap:butt;stroke-linejoin:miter;stroke-miterlimit:4;stroke-opacity:1;stroke-dasharray:none"
       inkscape:path-effect="#path-effect4718"
       inkscape:original-d="m 301.91895,446.92 c 10.74082,-27.66 -35.1243,-48.18082 -48.34121,-74.74684 -6.43,-12.92431 -5.48642,-29.67884 -14.81857,-40.69218 -10.88226,-12.8427 -27.91255,-29.88171 -43.97131,-24.83446 -13.85481,4.35454 -16.24549,24.99036 -18.85782,39.27649 -2.43558,13.31954 -1.61138,27.92682 3.48531,40.47138 3.73664,9.19704 12.04206,15.83337 18.86316,23.04591 8.5665,9.05811 18.57117,16.64547 27.57743,25.26648 12.44975,11.9172 19.32657,36.32631 36.55914,36.55914 9.37997,0.12673 12.23006,-14.79863 20.43011,-19.35484 5.74477,-3.19197 16.69482,1.13523 19.07376,-4.99108 z"
       id="path4716"
       d="m 301.91895,446.92 c 4.05724,-1.89403 7.25857,-5.43424 9.01748,-9.55186 1.75892,-4.11761 2.11676,-8.77251 1.31067,-13.17691 -0.8061,-4.40441 -2.74286,-8.56199 -5.34496,-12.20584 -2.60211,-3.64384 -5.85872,-6.78895 -9.40375,-9.52416 -7.09005,-5.47041 -15.2759,-9.29855 -23.10463,-13.64657 -7.82872,-4.34801 -15.52879,-9.41382 -20.81602,-16.6415 -4.28338,-5.8554 -6.75672,-12.82767 -8.71591,-19.81298 -1.9592,-6.98532 -3.47049,-14.11867 -6.10266,-20.8792 -3.43551,-8.82385 -8.96891,-17.09562 -16.91896,-22.23952 -3.97502,-2.57195 -8.51216,-4.31717 -13.21718,-4.84489 -4.70503,-0.52773 -9.57378,0.18686 -13.83517,2.24995 -6.8469,3.31483 -11.70001,9.87212 -14.46354,16.95951 -2.76353,7.08739 -3.66632,14.74478 -4.39428,22.31698 -1.31061,13.63287 -2.03031,27.9354 3.48531,40.47138 4.03502,9.17085 11.13282,16.67194 18.86316,23.04591 9.66678,7.97064 20.76793,14.74943 27.57743,25.26648 5.17685,7.99548 7.46347,17.58593 12.61467,25.59797 2.5756,4.00602 5.92397,7.6244 10.14166,9.8364 2.10884,1.10601 4.41913,1.84678 6.78959,2.07345 2.37046,0.22667 4.80065,-0.0683 7.01322,-0.94868 2.20334,-0.87668 4.15149,-2.31143 5.8511,-3.9651 1.69962,-1.65366 3.16639,-3.52866 4.60173,-5.41627 2.87067,-3.77523 5.78492,-7.75598 9.97728,-9.97347 2.91731,-1.54307 6.23815,-2.1088 9.49975,-2.61248 3.2616,-0.50368 6.58355,-0.98258 9.57401,-2.3786"
       inkscape:connector-curvature="0"
       sodipodi:nodetypes="aaaaaaaaaaa" />
    <path
       style="fill:#d7eef4;stroke:#000000;stroke-width:30;stroke-linecap:butt;stroke-linejoin:miter;stroke-miterlimit:4;stroke-opacity:1;stroke-dasharray:none"
       inkscape:path-effect="#path-effect4714"
       inkscape:original-d="m 510.80218,430.40571 c 4.08103,-16.64055 25.47294,-22.93874 38.712,-33.81486 14.69454,-12.07182 26.35818,-37.72704 45.15897,-34.86538 13.50299,2.05528 20.83131,20.16439 23.51471,33.55672 2.34107,11.68382 -0.39258,25.47015 -7.65214,34.91955 -8.662,11.27488 -25.44646,12.70873 -37.90558,19.55881 -11.82404,6.50091 -21.77574,17.4962 -34.94624,20.43011 -3.86419,0.8608 -8.66543,1.3062 -11.82796,-1.07527 -8.29868,-6.24915 -7.51856,-19.36883 -11.28681,-29.04975 -1.25366,-3.22075 -4.59016,-6.30326 -3.76695,-9.65993 z"
       id="path4712"
       d="m 510.80218,430.40571 c -0.90962,-4.53629 0.49154,-9.34046 3.13698,-13.13611 2.64544,-3.79566 6.44065,-6.66701 10.50093,-8.885 8.12056,-4.43599 17.48464,-6.5002 25.07409,-11.79375 8.09891,-5.64889 13.37478,-14.39239 19.85361,-21.84403 3.23942,-3.72583 6.85908,-7.19372 11.1336,-9.66434 4.27453,-2.47063 9.26427,-3.89746 14.17176,-3.35701 3.67865,0.40512 7.20128,1.9057 10.17887,4.10354 2.9776,2.19784 5.42111,5.0768 7.3031,8.26344 3.76398,6.37327 5.25956,13.82846 6.03274,21.18974 0.64042,6.09732 0.82362,12.29219 -0.23487,18.33099 -1.05848,6.0388 -3.41719,11.9424 -7.41727,16.58856 -4.68307,5.43947 -11.28997,8.83821 -17.96232,11.48374 -6.67234,2.64552 -13.61491,4.6882 -19.94326,8.07507 -5.98606,3.20368 -11.27884,7.53338 -16.81691,11.461 -5.53808,3.92761 -11.4942,7.52986 -18.12933,8.96911 -1.97687,0.42881 -4.007,0.66059 -6.02562,0.52987 -2.01862,-0.13072 -4.02872,-0.63242 -5.80234,-1.60514 -2.35282,-1.29038 -4.21246,-3.37032 -5.52409,-5.71136 -1.31162,-2.34105 -2.10342,-4.94094 -2.65026,-7.56807 -1.09369,-5.25426 -1.25594,-10.73477 -3.11246,-15.77032 -1.19786,-3.24904 -3.08613,-6.2647 -3.76695,-9.65993"
       inkscape:connector-curvature="0"
       sodipodi:nodetypes="aaaaaaaaaa" />
    <path
       style="fill:#ffffff;stroke:#000000;stroke-width:30;stroke-linecap:butt;stroke-linejoin:round;stroke-miterlimit:4;stroke-opacity:1;stroke-dasharray:none"
       inkscape:path-effect="#path-effect3023-1"
       inkscape:original-d="m 240.2908,504.9031 c -2.25331,23.55136 0.13395,52.83593 17.64123,68.74942 18.00776,16.36841 47.88084,9.18019 72.12059,11.33392 41.01126,3.6439 82.44749,5.90759 123.49029,2.6381 24.52174,-1.95341 55.36218,4.31113 72.60141,-13.23711 16.41846,-16.71276 14.76516,-46.17597 11.37658,-69.35785 -3.41474,-23.3608 -12.19123,-49.40524 -30.99037,-63.68739 -21.17566,-16.08765 -51.99852,-11.86155 -78.4709,-14.39813 -26.38203,-2.52793 -53.14289,-3.49088 -79.50496,-0.76257 -26.89563,2.78352 -58.08102,0.53255 -79.2356,17.37318 -17.69957,14.09018 -26.87361,38.8281 -29.02827,61.34843 z"
       id="path3029-4"
       d="m 240.2908,504.9031 c -1.73742,12.24143 -2.41555,24.78869 0.009,36.91278 2.42436,12.12409 8.17876,23.86797 17.63241,31.83664 9.56471,8.06228 22.19446,11.7172 34.66317,12.72477 12.46872,1.00757 24.98607,-0.41644 37.45742,-1.39085 41.1032,-3.21145 82.47371,-1.53641 123.49029,2.6381 12.68154,1.29068 25.45806,2.82102 38.13866,1.52115 12.6806,-1.29987 25.47364,-5.72039 34.46275,-14.75826 8.60624,-8.65292 12.99171,-20.83111 14.17759,-32.97748 1.18588,-12.14637 -0.57422,-24.38112 -2.80101,-36.38037 -2.20488,-11.8812 -4.89746,-23.75689 -9.66578,-34.86038 -4.76832,-11.1035 -11.73605,-21.47281 -21.32459,-28.82701 -10.77489,-8.26411 -24.28761,-12.30191 -37.77493,-13.87858 -13.48732,-1.57667 -27.12094,-0.85457 -40.69597,-0.51955 -26.49754,0.65393 -53.00584,-0.17645 -79.50496,-0.76257 -13.82011,-0.30568 -27.72893,-0.53915 -41.37697,1.65629 -13.64804,2.19543 -27.15428,6.97013 -37.85863,15.71689 -8.96939,7.32909 -15.65358,17.20029 -20.24152,27.8359 -4.58794,10.63561 -7.1591,22.04448 -8.78675,33.51253"
       inkscape:connector-curvature="0"
       sodipodi:nodetypes="aaaaaaaaaaa" />
    <path
       style="fill:none;stroke:#000000;stroke-width:20;stroke-linecap:butt;stroke-linejoin:miter;stroke-miterlimit:4;stroke-opacity:1;stroke-dasharray:none"
       inkscape:path-effect="#path-effect4194"
       inkscape:original-d="m 296.60121,480.20178 c 7.41475,-0.72029 13.0616,-5.3709 18.71987,-9.48359 5.47557,-3.9799 9.88605,-9.28409 14.32047,-14.39853 5.45093,-6.28683 9.22909,-13.96434 15.02595,-19.93369 4.89397,-5.0396 10.60006,-9.61549 16.44984,-13.17344"
       id="path4192"
       d="m 296.60121,480.20178 c 6.72802,-2.04043 13.09485,-5.26591 18.71987,-9.48359 5.43187,-4.07286 10.14869,-9.04226 14.32047,-14.39853 5.11541,-6.56782 9.45211,-13.75017 15.02595,-19.93369 4.72405,-5.24077 10.30339,-9.70885 16.44984,-13.17344"
       inkscape:connector-curvature="0"
       sodipodi:nodetypes="caaac" />
    <path
       style="fill:none;stroke:#000000;stroke-width:20;stroke-linecap:butt;stroke-linejoin:miter;stroke-miterlimit:4;stroke-opacity:1;stroke-dasharray:none"
       inkscape:path-effect="#path-effect4198"
       inkscape:original-d="m 451.85148,482.70679 c -5.99395,5.17592 -10.83765,-4.08602 -15.69631,-7.16332 -7.89203,-4.99854 -14.17964,-12.16908 -21.41616,-18.0769 -6.68509,-5.45765 -13.98477,-10.18291 -20.32093,-16.04204 -4.87794,-4.51069 -12.89801,-7.2754 -13.53434,-14.63172"
       id="path4196"
       d="m 451.85148,482.70679 c -5.55309,-1.5788 -10.86499,-4.00299 -15.69631,-7.16332 -7.82548,-5.11891 -14.2625,-12.05473 -21.41616,-18.0769 -6.60331,-5.55887 -13.83228,-10.34974 -20.32093,-16.04204 -5.00343,-4.38936 -9.54757,-9.30195 -13.53434,-14.63172"
       inkscape:connector-curvature="0"
       sodipodi:nodetypes="caaac" />
    <path
       style="fill:#ff8080;stroke:#000000;stroke-width:20;stroke-linecap:butt;stroke-linejoin:miter;stroke-miterlimit:4;stroke-opacity:1;stroke-dasharray:none"
       inkscape:path-effect="#path-effect4832"
       inkscape:original-d="m 369.55588,575.7888 c -12.72999,-3.01568 -31.49216,-8.14162 -33.20171,-21.58314 -1.63333,-12.8422 15.19808,-21.12696 25.47837,-28.46489 10.53491,-7.51967 23.1318,-17.88413 35.58024,-14.86331 11.56315,2.80599 22.3099,15.34443 23.73425,27.5859 1.45392,12.49554 -7.04284,26.26996 -17.07125,33.33963 -9.57866,6.75262 -23.23237,6.65978 -34.5199,3.98581 z"
       id="path4830"
       d="m 369.55588,575.7888 c -7.18288,-0.70152 -14.5266,-1.62149 -20.94765,-4.91634 -3.21052,-1.64743 -6.14797,-3.88999 -8.36186,-6.73958 -2.21389,-2.84959 -3.67906,-6.32499 -3.8922,-9.92722 -0.19861,-3.35666 0.69015,-6.72998 2.26164,-9.7027 1.57148,-2.97272 3.80572,-5.56109 6.32683,-7.78609 5.04223,-4.44998 11.16432,-7.44847 16.8899,-10.9761 5.5909,-3.44465 10.85709,-7.43089 16.67607,-10.47446 5.81897,-3.04356 12.37974,-5.13425 18.90417,-4.38885 6.53013,0.74606 12.58505,4.37366 16.73707,9.46874 4.15203,5.09509 6.45779,11.56672 6.99718,18.11716 0.54167,6.57808 -0.66641,13.31548 -3.62141,19.21739 -2.955,5.90191 -7.66839,10.938 -13.44984,14.12224 -5.15401,2.83867 -11.03136,4.17609 -16.90027,4.59773 -5.86891,0.42164 -11.76346,-0.04 -17.61963,-0.61192"
       inkscape:connector-curvature="0"
       sodipodi:nodetypes="aaaaaaa" />
    <path
       sodipodi:nodetypes="aaaaaaa"
       inkscape:connector-curvature="0"
       d="m 378.75703,579.11986 c -4.65551,-0.0823 -9.43233,0.0926 -13.8264,-1.44778 -2.19703,-0.77018 -4.26877,-1.97961 -5.8481,-3.69013 -1.57932,-1.71051 -2.63937,-3.94511 -2.72913,-6.2715 -0.0787,-2.04003 0.58696,-4.07163 1.69633,-5.78545 1.10938,-1.71383 2.64573,-3.12372 4.34324,-4.25792 3.39501,-2.26839 7.37878,-3.44497 11.15256,-5.00391 3.93329,-1.62484 7.67559,-3.68468 11.61081,-5.30485 3.93521,-1.62017 8.14965,-2.8057 12.39779,-2.55228 3.92393,0.23408 7.78599,1.74308 10.72725,4.35095 2.94126,2.60787 4.91797,6.31822 5.28799,10.23167 0.35322,3.73577 -0.75485,7.55408 -2.87105,10.65286 -2.11621,3.09877 -5.20203,5.4865 -8.64818,6.97134 -3.61079,1.55578 -7.57303,2.13949 -11.50181,2.29088 -3.92878,0.15138 -7.86022,-0.11439 -11.7913,-0.18388"
       id="path5355"
       inkscape:original-d="m 378.75703,579.11986 c -8.58986,-1.59416 -21.25007,-4.30387 -22.40363,-11.40941 -1.10213,-6.78872 10.25526,-11.16826 17.19213,-15.04728 7.10867,-3.97509 15.60872,-9.45401 24.0086,-7.85713 7.8025,1.48332 15.05413,8.11147 16.01524,14.58262 0.98107,6.60547 -4.75232,13.88699 -11.51923,17.6242 -6.46342,3.56961 -15.67658,3.52053 -23.29311,2.107 z"
       inkscape:path-effect="#path-effect5357"
       style="opacity:0.25;fill:#000000;stroke:none" />
  </g>
</svg>
