<?xml version="1.0" encoding="UTF-8" standalone="no"?>
<!-- Created with Inkscape (http://www.inkscape.org/) -->

<svg
   xmlns:dc="http://purl.org/dc/elements/1.1/"
   xmlns:cc="http://creativecommons.org/ns#"
   xmlns:rdf="http://www.w3.org/1999/02/22-rdf-syntax-ns#"
   xmlns:svg="http://www.w3.org/2000/svg"
   xmlns="http://www.w3.org/2000/svg"
   xmlns:sodipodi="http://sodipodi.sourceforge.net/DTD/sodipodi-0.dtd"
   xmlns:inkscape="http://www.inkscape.org/namespaces/inkscape"
   width="512"
   height="512"
   id="svg2"
   version="1.1"
   inkscape:version="0.48.5 r10040"
   sodipodi:docname="player-down.svg"
   inkscape:export-filename="/Users/darabos/Documents/fragmented-space/images/player-down.png"
   inkscape:export-xdpi="5.6199999"
   inkscape:export-ydpi="5.6199999">
  <defs
     id="defs4">
    <inkscape:path-effect
       is_visible="true"
       id="path-effect3855"
       effect="spiro" />
    <inkscape:path-effect
       effect="spiro"
       id="path-effect3847"
       is_visible="true" />
    <inkscape:path-effect
       is_visible="true"
       id="path-effect3843"
       effect="spiro" />
    <inkscape:path-effect
       is_visible="true"
       id="path-effect3841"
       effect="spiro" />
    <inkscape:path-effect
       is_visible="true"
       id="path-effect3839"
       effect="spiro" />
    <inkscape:path-effect
       effect="spiro"
       id="path-effect3834"
       is_visible="true" />
    <inkscape:path-effect
       effect="spiro"
       id="path-effect3830"
       is_visible="true" />
    <inkscape:path-effect
       effect="spiro"
       id="path-effect3821"
       is_visible="true" />
    <inkscape:path-effect
       effect="spiro"
       id="path-effect3813"
       is_visible="true" />
    <inkscape:path-effect
       is_visible="true"
       id="path-effect3809"
       effect="spiro" />
    <inkscape:path-effect
       effect="spiro"
       id="path-effect3023"
       is_visible="true" />
    <inkscape:path-effect
       effect="spiro"
       id="path-effect3019"
       is_visible="true" />
    <inkscape:path-effect
       effect="spiro"
       id="path-effect3015"
       is_visible="true" />
    <inkscape:path-effect
       effect="spiro"
       id="path-effect2999"
       is_visible="true" />
    <inkscape:path-effect
       effect="spiro"
       id="path-effect2995"
       is_visible="true" />
    <inkscape:path-effect
       effect="spiro"
       id="path-effect2991"
       is_visible="true" />
    <inkscape:path-effect
       effect="spiro"
       id="path-effect2987"
       is_visible="true" />
    <inkscape:path-effect
       is_visible="true"
       id="path-effect2987-0"
       effect="spiro" />
    <inkscape:path-effect
       is_visible="true"
       id="path-effect2991-6"
       effect="spiro" />
    <inkscape:path-effect
       is_visible="true"
       id="path-effect2995-9"
       effect="spiro" />
    <inkscape:path-effect
       is_visible="true"
       id="path-effect2999-6"
       effect="spiro" />
    <inkscape:path-effect
       is_visible="true"
       id="path-effect3015-3"
       effect="spiro" />
    <inkscape:path-effect
       is_visible="true"
       id="path-effect3019-1"
       effect="spiro" />
    <inkscape:path-effect
       is_visible="true"
       id="path-effect3023-9"
       effect="spiro" />
    <inkscape:path-effect
       effect="spiro"
       id="path-effect3809-3"
       is_visible="true" />
    <inkscape:path-effect
       is_visible="true"
       id="path-effect3813-0"
       effect="spiro" />
    <inkscape:path-effect
       is_visible="true"
       id="path-effect3821-3"
       effect="spiro" />
    <inkscape:path-effect
       is_visible="true"
       id="path-effect3830-1"
       effect="spiro" />
    <inkscape:path-effect
       is_visible="true"
       id="path-effect3834-5"
       effect="spiro" />
    <inkscape:path-effect
       effect="spiro"
       id="path-effect3839-6"
       is_visible="true" />
    <inkscape:path-effect
       effect="spiro"
       id="path-effect3841-3"
       is_visible="true" />
    <inkscape:path-effect
       effect="spiro"
       id="path-effect3843-0"
       is_visible="true" />
    <inkscape:path-effect
       is_visible="true"
       id="path-effect3847-4"
       effect="spiro" />
    <inkscape:path-effect
       effect="spiro"
       id="path-effect3855-7"
       is_visible="true" />
    <inkscape:path-effect
       effect="spiro"
       id="path-effect3824"
       is_visible="true" />
  </defs>
  <sodipodi:namedview
     id="base"
     pagecolor="#ffffff"
     bordercolor="#666666"
     borderopacity="1.0"
     inkscape:pageopacity="0.0"
     inkscape:pageshadow="2"
     inkscape:zoom="0.93"
     inkscape:cx="273.22535"
     inkscape:cy="249.66622"
     inkscape:document-units="px"
     inkscape:current-layer="layer1"
     showgrid="false"
     fit-margin-top="0"
     fit-margin-left="0"
     fit-margin-right="0"
     fit-margin-bottom="0"
     inkscape:window-width="770"
     inkscape:window-height="703"
     inkscape:window-x="468"
     inkscape:window-y="0"
     inkscape:window-maximized="0" />
  <metadata
     id="metadata7">
    <rdf:RDF>
      <cc:Work
         rdf:about="">
        <dc:format>image/svg+xml</dc:format>
        <dc:type
           rdf:resource="http://purl.org/dc/dcmitype/StillImage" />
        <dc:title></dc:title>
      </cc:Work>
    </rdf:RDF>
  </metadata>
  <g
     inkscape:label="Layer 1"
     inkscape:groupmode="layer"
     id="layer1"
     transform="translate(-136.60863,-227.00786)">
    <path
       style="opacity:0.25;fill:#000080;stroke:none"
       inkscape:path-effect="#path-effect3821"
       inkscape:original-d="m 257.94241,695.4545 c -31.8977,9.53238 43.41406,-9.0122 65.46196,-10.59325 15.80701,-1.13352 31.76254,-0.71367 47.53571,0.82044 29.98324,2.91619 59.0861,12.06252 88.96771,15.88202 29.58123,3.78111 59.86685,12.333 89.19642,6.93647 12.79216,-2.35371 33.87146,-3.74396 35.27851,-16.67452 1.44441,-13.27394 -19.60976,-18.80987 -31.68606,-24.50606 -30.82942,-14.54172 -65.64291,-22.0442 -99.72471,-22.63216 -21.30254,-0.3675 -41.60836,9.62742 -62.78294,11.98763 -15.58778,1.73748 -31.35169,1.03104 -47.02679,1.56873 -26.44206,0.90702 -53.19758,-1.37999 -79.32358,2.79585 -15.11352,2.41566 -40.315,-2.06191 -44.10552,12.76664 -2.10022,8.21606 7.34572,15.79305 18.04523,17.93322 13.24939,2.65021 67.10632,-10.31334 20.16406,3.71499 z"
       id="path3819"
       d="m 257.94241,695.4545 c 22.14046,1.03419 43.49008,-7.67672 65.46196,-10.59325 15.75424,-2.0912 31.77025,-1.18443 47.53571,0.82044 29.88944,3.801 59.15629,11.51102 88.96771,15.88202 29.51838,4.32803 59.40412,5.35995 89.19642,6.93647 7.21287,0.38168 14.63015,0.76976 21.47791,-1.52792 3.42389,-1.14884 6.65635,-2.98197 9.1694,-5.57569 2.51304,-2.59372 4.27293,-5.97724 4.6312,-9.57091 0.36446,-3.65574 -0.73548,-7.37979 -2.73596,-10.46125 -2.00048,-3.08145 -4.86037,-5.54662 -8.03174,-7.40127 -6.34273,-3.70928 -13.75693,-4.99946 -20.91836,-6.64354 -16.69508,-3.83275 -32.78611,-9.88472 -49.19631,-14.79602 -16.4102,-4.91129 -33.42133,-8.71014 -50.5284,-7.83614 -21.30443,1.08844 -41.61527,9.34318 -62.78294,11.98763 -15.57146,1.94532 -31.35192,0.8251 -47.02679,1.56873 -26.52073,1.25817 -53.25514,7.83256 -79.32358,2.79585 -8.73125,-1.68697 -17.44978,-4.67655 -26.29122,-3.72285 -4.42072,0.47686 -8.81086,2.0003 -12.20809,4.86891 -1.69862,1.43431 -3.132,3.1938 -4.122,5.18439 -0.99,1.99059 -1.53008,4.21348 -1.48421,6.43619 0.0467,2.26496 0.69995,4.5006 1.77521,6.49461 1.07525,1.994 2.565,3.75058 4.27911,5.23181 3.42822,2.96247 7.68491,4.79709 11.99091,6.2068 6.51498,2.1329 13.31629,3.39513 20.16406,3.71499"
       inkscape:connector-curvature="0"
       sodipodi:nodetypes="saaaaaaaaaaass" />
    <path
       style="fill:#d5e5ff;stroke:#000000;stroke-width:30;stroke-linecap:butt;stroke-linejoin:round;stroke-miterlimit:4;stroke-opacity:1;stroke-dasharray:none"
       inkscape:path-effect="#path-effect3839"
       inkscape:original-d="m 463.27109,558.38932 c -4.03167,17.64733 12.87239,34.57653 26.79683,45.20374 13.78335,10.51953 35.74926,4.13562 50.15862,13.77987 11.83786,7.92314 29.01738,19.82073 26.17577,33.7791 -3.99416,19.61989 -32.6262,26.3449 -52.42672,29.31687 -16.90796,2.53781 -35.41668,-2.10455 -50.14472,-10.78812 -15.42697,-9.09566 -25.73517,-25.35795 -35.31458,-40.48929 -10.09961,-15.95303 -16.75208,-33.98071 -22.6589,-51.91422 -3.01786,-9.16244 -6.56517,-24.07467 -6.45161,-28.21165 z"
       id="path3033"
       d="m 463.27109,558.38932 c -0.16581,9.21976 2.28135,18.47234 6.98359,26.40459 4.70224,7.93224 11.64511,14.51976 19.81324,18.79915 7.70228,4.03533 16.30387,5.99047 24.84042,7.64461 8.53656,1.65414 17.18305,3.06472 25.3182,6.13526 7.17061,2.70648 13.9617,6.77686 18.9375,12.60645 4.9758,5.82958 7.99253,13.54547 7.23827,21.17265 -0.54324,5.49329 -3.00723,10.71709 -6.59615,14.91125 -3.58892,4.19416 -8.26425,7.38748 -13.32148,9.6001 -10.11447,4.42524 -21.46983,4.94711 -32.50909,4.80552 -17.29086,-0.22178 -35.19245,-2.10177 -50.14472,-10.78812 -15.6748,-9.1061 -26.41433,-24.6967 -35.31458,-40.48929 -9.28886,-16.48215 -17.18627,-33.8036 -22.6589,-51.91422 -2.79258,-9.24151 -4.94987,-18.67494 -6.45161,-28.21165 l 63.86531,9.3237"
       inkscape:connector-curvature="0"
       sodipodi:nodetypes="caaaaaaacc" />
    <path
       style="fill:#d5e5ff;stroke:#000000;stroke-width:30;stroke-linecap:butt;stroke-linejoin:round;stroke-miterlimit:4;stroke-opacity:1;stroke-dasharray:none"
       inkscape:path-effect="#path-effect3841"
       inkscape:original-d="m 292.47312,551.93773 c -16.08456,11.17785 -177.11632,1066.35267 -2.43433,29.61974 20.28914,-120.41548 -33.15387,-6.5596 -46.3169,-1.88274 -18.38441,6.53202 -19.49812,59.43181 -25.90355,52.44502 -13.34245,-14.55341 36.5284,23.57291 56.94114,22.69008 17.36148,-0.75087 33.62583,-11.82726 46.58269,-23.4076 9.68406,-8.65524 37.01627,-25.95308 21.27932,-32.64104 -155.10948,-65.91906 8.75978,-43.78379 11.66544,-47.17716 z"
       id="path3031"
       d="m 292.47312,551.93773 c 4.32091,3.79465 6.70384,9.69085 6.23281,15.42215 -0.47103,5.73131 -3.78466,11.15933 -8.66714,14.19759 -3.35392,2.08707 -7.3211,3.05346 -11.2674,3.23036 -3.94631,0.17691 -7.89085,-0.40401 -11.75427,-1.22778 -7.72684,-1.64755 -15.40499,-4.28859 -23.29523,-3.88532 -5.81771,0.29735 -11.52669,2.29408 -16.31283,5.61479 -4.78613,3.32071 -8.64245,7.94781 -11.1274,13.21652 -2.48494,5.26871 -3.60169,11.16398 -3.30561,16.98176 0.29608,5.81778 1.99633,11.54916 4.84229,16.63195 5.31177,9.48663 14.51841,16.49146 24.75421,20.15745 10.23581,3.66598 21.43581,4.15266 32.18693,2.53263 17.47848,-2.63374 34.10848,-10.88451 46.58269,-23.4076 9.22035,-9.25649 16.09151,-20.65004 21.27932,-32.64104 6.46193,-14.93598 10.4219,-30.95084 11.66544,-47.17716 l -61.81381,0.3537"
       inkscape:connector-curvature="0"
       sodipodi:nodetypes="csssaascc" />
    <path
       style="opacity:0.25;fill:#000080;stroke:none"
       inkscape:path-effect="#path-effect3834"
       inkscape:original-d="m 400,557.73853 c -6.27186,11.26174 11.47768,23.09679 17.78017,34.34142 3.60315,6.42857 7.28208,12.83417 11.44207,18.91724 4.93891,7.22207 10.69236,13.85209 16.00277,20.80555 4.64666,6.08435 6.60396,15.91117 13.87723,18.30081 5.70637,1.87483 13.16474,-0.72955 17.28167,-5.10317 5.58349,-5.93162 5.72341,-15.67031 5.49255,-23.81317 -0.18436,-6.50267 -3.22144,-12.62827 -5.45658,-18.73752 -4.94579,-13.51822 -6.07922,-30.74592 -17.5334,-39.464 -11.57717,-8.81169 -28.62742,-5.93496 -43.16719,-6.45637 -5.25187,-0.18834 -13.16234,-3.38204 -15.71929,1.20921 z m -97.84946,-4.30108 c -10.29035,6.76987 -11.65311,22.61326 -12.07675,34.92354 -0.60486,17.57619 -2.103,43.36657 13.7741,50.93003 7.42425,3.53673 16.12798,-4.86924 22.55154,-10.00401 6.88857,-5.50648 12.1985,-13.17327 15.79168,-21.22701 3.01894,-6.76666 4.49855,-14.37798 4.40923,-21.78701 -0.12382,-10.2703 0.94725,-23.34556 -6.83834,-30.04473 -9.52946,-8.1997 -27.10887,-9.70031 -37.61146,-2.79081 z"
       id="path3832"
       d="m 400,557.73853 c -1.51095,1.09852 -2.65845,2.6679 -3.33389,4.4096 -0.67543,1.74169 -0.88725,3.64934 -0.70337,5.50834 0.36776,3.71801 2.28323,7.14723 4.75988,9.94456 4.9533,5.59466 12.05893,8.92471 17.05755,14.47892 4.94094,5.49011 7.44152,12.70839 11.44207,18.91724 4.7444,7.3633 11.56657,13.25256 16.00277,20.80555 1.98221,3.37487 3.4561,7.03156 5.48944,10.37587 2.03335,3.34431 4.75998,6.45598 8.38779,7.92494 2.96876,1.2021 6.36514,1.1952 9.41256,0.20938 3.04743,-0.98582 5.74922,-2.91157 7.86911,-5.31255 2.78797,-3.15763 4.59109,-7.12259 5.43771,-11.24893 0.84661,-4.12634 0.76158,-8.41166 0.0548,-12.56424 -1.09243,-6.41873 -3.63096,-12.48767 -5.45658,-18.73752 -2.06314,-7.06297 -3.22061,-14.37869 -5.54814,-21.359 -2.32752,-6.98031 -6.01691,-13.8014 -11.98526,-18.105 -5.99313,-4.32147 -13.63703,-5.6564 -21.02038,-5.93707 -7.38336,-0.28067 -14.81165,0.36842 -22.14681,-0.5193 -2.67873,-0.32419 -5.34312,-0.85313 -8.04127,-0.87826 -2.69816,-0.0251 -5.49559,0.50076 -7.67802,2.08747 m -97.84946,-4.30108 c -4.48236,4.38828 -7.12788,10.34807 -8.72758,16.41351 -1.59971,6.06543 -2.24945,12.33434 -3.34917,18.51003 -1.73843,9.76249 -4.62226,19.55437 -3.55168,29.41247 0.53529,4.92905 2.10671,9.81872 5.05761,13.80297 2.95091,3.98424 7.36283,6.99366 12.26817,7.71459 4.21348,0.61925 8.55033,-0.45587 12.34287,-2.39326 3.79254,-1.9374 7.10008,-4.69982 10.20867,-7.61075 6.48541,-6.07304 12.34607,-13.03737 15.79168,-21.22701 2.88764,-6.86343 3.98237,-14.35311 4.40923,-21.78701 0.30112,-5.24408 0.27972,-10.54068 -0.68372,-15.70428 -0.96343,-5.16361 -2.90698,-10.21203 -6.15462,-14.34045 -4.38347,-5.57229 -11.13607,-9.23677 -18.20428,-9.78966 -7.06821,-0.55289 -14.34105,2.03905 -19.40718,6.99885"
       inkscape:connector-curvature="0"
       sodipodi:nodetypes="aaaaaaaaaaaaaaaaaaa" />
    <path
       style="fill:#ffeeaa;stroke:#000000;stroke-width:30;stroke-linecap:butt;stroke-linejoin:round;stroke-miterlimit:4;stroke-opacity:1;stroke-dasharray:none"
       inkscape:path-effect="#path-effect3843-0"
       inkscape:original-d="m 220.84346,282.67231 c 23.94341,-33.5047 79.87635,-45.31642 120.35785,-27.86856 23.8409,15.09665 -8.45763,48.73907 5.21905,66.10203 7.60188,9.65082 23.94649,31.269 35.03991,11.42567 19.42657,-15.9333 16.45582,-65.228 43.41036,-69.31847 35.14368,-5.3332 53.61833,48.95416 80.86393,69.51777 77.08152,-6.23251 65.97846,-39.45648 63.62779,16.7276 -0.76041,18.17486 32.85934,104.06571 -1.09029,132.12123 -15.36976,12.70137 -38.95884,-9.21856 -58.83598,-10.78511 -66.40381,-5.2334 -133.21208,2.20988 -199.77162,4.79484 -22.90148,0.88942 -51.23826,18.58058 -68.65736,3.68615 -50.01942,-42.76978 -58.42813,-142.85854 -20.16364,-196.40315 z"
       id="path3021-3"
       d="m 220.84346,282.67231 c 33.76576,-25.7031 78.73121,-36.11474 120.35785,-27.86856 -7.8687,9.38303 -11.87516,21.91082 -10.91131,34.11854 0.96386,12.20773 6.88667,23.95156 16.13036,31.98349 9.52571,8.27698 22.46609,12.49653 35.03991,11.42567 -2.20327,-14.67805 1.00885,-30.10744 8.88662,-42.6868 7.87776,-12.57936 20.35657,-22.20553 34.52374,-26.63167 10.12721,-3.16396 21.06133,-3.70661 31.45205,-1.56091 10.39071,2.1457 20.21551,6.97508 28.26105,13.89174 8.04554,6.91666 14.29441,15.90561 17.97488,25.85675 3.68047,9.95113 4.78457,20.8429 3.17595,31.33019 22.22236,-0.64072 44.59376,5.24066 63.62779,16.7276 12.23717,7.38506 23.15595,17.10935 31.23052,28.90294 8.07457,11.79359 13.23399,25.69354 13.99442,39.96621 0.76043,14.27267 -3.00157,28.8763 -11.23125,40.56218 -8.22968,11.68588 -20.99895,20.26102 -35.08398,22.6899 -9.92573,1.71163 -20.15521,0.42595 -29.93384,-1.98821 -9.77864,-2.41416 -19.24384,-5.93911 -28.90214,-8.7969 -64.50873,-19.08748 -133.65658,-7.63533 -199.77162,4.79484 -22.68676,4.2653 -46.10826,8.6278 -68.65736,3.68615 -20.16181,-4.41847 -38.46263,-16.342 -51.25313,-32.54152 -12.79051,-16.19951 -20.10455,-36.50891 -21.34711,-57.11176 -1.24255,-20.60285 3.48906,-41.43215 12.82318,-59.84127 9.33412,-18.40911 23.19005,-34.40683 39.61342,-46.9086"
       inkscape:connector-curvature="0"
       sodipodi:nodetypes="acacacsaaaaa" />
    <path
       style="fill:#ffffff;stroke:#000000;stroke-width:30;stroke-linecap:butt;stroke-linejoin:round;stroke-miterlimit:4;stroke-opacity:1;stroke-dasharray:none"
       inkscape:path-effect="#path-effect3023-9"
       inkscape:original-d="m 237.4951,469.48375 c -1.82022,23.58878 0.13395,52.83593 17.64123,68.74942 18.00776,16.36841 47.88084,9.18019 72.12059,11.33392 41.01126,3.6439 82.44749,5.90759 123.49029,2.6381 24.52174,-1.95341 55.36218,4.31113 72.60141,-13.23711 16.41846,-16.71276 13.87727,-46.06346 11.37658,-69.35785 -2.83237,-26.38409 -8.76525,-57.1843 -29.26623,-74.03222 -20.54574,-16.88471 -51.99852,-11.86155 -78.4709,-14.39813 -26.38204,-2.52792 -53.14289,-3.49088 -79.50496,-0.76257 -26.89563,2.78353 -58.394,0.14672 -79.2356,17.37318 -20.04322,16.56656 -28.75181,45.76684 -30.75241,71.69326 z"
       id="path3029-8"
       d="m 237.4951,469.48375 c -1.28839,12.25101 -1.89323,24.72059 0.44739,36.81475 2.34063,12.09415 7.86564,23.88906 17.19384,31.93467 9.48359,8.17963 22.14283,11.8819 34.62745,12.87136 12.48462,0.98947 25.01199,-0.50517 37.49314,-1.53744 41.09481,-3.39879 82.49295,-1.78381 123.49029,2.6381 12.69828,1.36962 25.49259,3.00977 38.20119,1.73953 12.70861,-1.27025 25.55189,-5.76636 34.40022,-14.97664 8.41158,-8.75566 12.44762,-20.97788 13.51294,-33.07257 1.06532,-12.09468 -0.5797,-24.24398 -2.13636,-36.28528 -1.74612,-13.50685 -3.40573,-27.12219 -7.58016,-40.08592 -4.17443,-12.96372 -11.08503,-25.39634 -21.68607,-33.9463 -10.59118,-8.54201 -24.17017,-12.65946 -37.69145,-14.18067 -13.52128,-1.52121 -27.17927,-0.63492 -40.77945,-0.21746 -26.49403,0.81323 -53.00527,-0.16136 -79.50496,-0.76257 -13.8164,-0.31346 -27.72195,-0.51956 -41.36406,1.6904 -13.64212,2.20995 -27.13479,6.98144 -37.87154,15.68278 -10.37362,8.40704 -17.71759,20.12993 -22.42906,32.62362 -4.71147,12.4937 -6.92682,25.79033 -8.32335,39.06964"
       inkscape:connector-curvature="0"
       sodipodi:nodetypes="aaaaaaaaaaa" />
    <path
       sodipodi:nodetypes="aaaa"
       inkscape:connector-curvature="0"
       d="m 440.28912,450.20302 c 2.30847,2.15575 4.05942,4.90357 5.03822,7.9066 0.97879,3.00304 1.18333,6.25489 0.58855,9.3569 -0.59478,3.10202 -1.98762,6.04759 -4.00776,8.47561 -2.02015,2.42802 -4.66329,4.33331 -7.60541,5.48231 -4.25686,1.66245 -9.12639,1.69816 -13.40717,0.0983 -4.28079,-1.59983 -7.93335,-4.82045 -10.05652,-8.86727 -2.12317,-4.04682 -2.69736,-8.88251 -1.58092,-13.314 1.11644,-4.4315 3.91322,-8.41792 7.70032,-10.97575 3.48954,-2.35685 7.78859,-3.49 11.98649,-3.15942 4.19789,0.33058 8.26659,2.12268 11.3442,4.99669"
       id="path3811-3"
       inkscape:original-d="m 440.28912,450.20302 c 6.42466,8.42699 4.49624,29.67071 -5.9864,31.22142 -12.31014,1.82106 -24.19624,-22.67089 -17.34429,-33.05869 4.29536,-6.51192 18.60105,-4.36642 23.33069,1.83727 z"
       inkscape:path-effect="#path-effect3813-0"
       style="fill:none;stroke:#000000;stroke-width:20;stroke-linecap:butt;stroke-linejoin:round;stroke-miterlimit:4;stroke-opacity:1;stroke-dasharray:none" />
    <path
       style="fill:none;stroke:#000000;stroke-width:20;stroke-linecap:butt;stroke-linejoin:miter;stroke-miterlimit:4;stroke-opacity:1;stroke-dasharray:none"
       inkscape:path-effect="#path-effect3847-4"
       inkscape:original-d="m 299.5505,405.29493 c 6.60677,3.4358 18.34428,17.56247 30.07846,21.00736 11.63383,3.41543 31.40497,-3.45548 36.34743,-1.40207"
       id="path3845-3"
       d="m 299.5505,405.29493 c 7.38976,10.01734 18.12938,17.51809 30.07846,21.00736 11.84319,3.45835 24.80584,2.95832 36.34743,-1.40207"
       inkscape:connector-curvature="0"
       sodipodi:nodetypes="cac" />
    <path
       sodipodi:nodetypes="cac"
       inkscape:connector-curvature="0"
       d="m 450.92263,425.72504 c -7.55113,2.8629 -15.55934,4.51639 -23.62685,4.87833 -9.00661,0.40408 -18.08323,-0.80499 -26.67001,-3.55261"
       id="path3853-4"
       inkscape:original-d="m 450.92263,425.72504 c -6.60677,3.4358 -15.5902,4.59216 -23.62685,4.87833 -8.96285,0.31915 -21.72755,-5.60602 -26.67001,-3.55261"
       inkscape:path-effect="#path-effect3855-7"
       style="fill:none;stroke:#000000;stroke-width:20;stroke-linecap:butt;stroke-linejoin:miter;stroke-miterlimit:4;stroke-opacity:1;stroke-dasharray:none" />
    <path
       style="fill:none;stroke:#000000;stroke-width:20;stroke-linecap:butt;stroke-linejoin:round;stroke-miterlimit:4;stroke-opacity:1;stroke-dasharray:none"
       inkscape:path-effect="#path-effect3824"
       inkscape:original-d="m 348.28912,446.20302 c 6.42466,8.42699 4.49624,29.67071 -5.9864,31.22142 -12.31014,1.82106 -24.19624,-22.67089 -17.34429,-33.05869 4.29536,-6.51192 18.60105,-4.36642 23.33069,1.83727 z"
       id="path3822"
       d="m 348.28912,446.20302 c 2.30847,2.15575 4.05942,4.90357 5.03822,7.9066 0.97879,3.00304 1.18333,6.25489 0.58855,9.3569 -0.59478,3.10202 -1.98762,6.04759 -4.00776,8.47561 -2.02015,2.42802 -4.66329,4.33331 -7.60541,5.48231 -4.25686,1.66245 -9.12639,1.69816 -13.40717,0.0983 -4.28079,-1.59983 -7.93335,-4.82045 -10.05652,-8.86727 -2.12317,-4.04682 -2.69736,-8.88251 -1.58092,-13.314 1.11644,-4.4315 3.91322,-8.41792 7.70032,-10.97575 3.48954,-2.35685 7.78859,-3.49 11.98649,-3.15942 4.19789,0.33058 8.26659,2.12268 11.3442,4.99669"
       inkscape:connector-curvature="0"
       sodipodi:nodetypes="aaaa" />
  </g>
</svg>
