<?xml version="1.0" encoding="UTF-8" standalone="no"?>
<!-- Created with Inkscape (http://www.inkscape.org/) -->

<svg
   xmlns:dc="http://purl.org/dc/elements/1.1/"
   xmlns:cc="http://creativecommons.org/ns#"
   xmlns:rdf="http://www.w3.org/1999/02/22-rdf-syntax-ns#"
   xmlns:svg="http://www.w3.org/2000/svg"
   xmlns="http://www.w3.org/2000/svg"
   xmlns:sodipodi="http://sodipodi.sourceforge.net/DTD/sodipodi-0.dtd"
   xmlns:inkscape="http://www.inkscape.org/namespaces/inkscape"
   width="512"
   height="512"
   id="svg2"
   version="1.1"
   inkscape:version="0.48.5 r10040"
   sodipodi:docname="player-idling.svg"
   inkscape:export-filename="/Users/darabos/Documents/fragmented-space/images/player-idling.png"
   inkscape:export-xdpi="5.6199999"
   inkscape:export-ydpi="5.6199999">
  <defs
     id="defs4">
    <inkscape:path-effect
       is_visible="true"
       id="path-effect3855"
       effect="spiro" />
    <inkscape:path-effect
       effect="spiro"
       id="path-effect3847"
       is_visible="true" />
    <inkscape:path-effect
       is_visible="true"
       id="path-effect3843"
       effect="spiro" />
    <inkscape:path-effect
       is_visible="true"
       id="path-effect3841"
       effect="spiro" />
    <inkscape:path-effect
       is_visible="true"
       id="path-effect3839"
       effect="spiro" />
    <inkscape:path-effect
       effect="spiro"
       id="path-effect3834"
       is_visible="true" />
    <inkscape:path-effect
       effect="spiro"
       id="path-effect3830"
       is_visible="true" />
    <inkscape:path-effect
       effect="spiro"
       id="path-effect3821"
       is_visible="true" />
    <inkscape:path-effect
       effect="spiro"
       id="path-effect3813"
       is_visible="true" />
    <inkscape:path-effect
       is_visible="true"
       id="path-effect3809"
       effect="spiro" />
    <inkscape:path-effect
       effect="spiro"
       id="path-effect3023"
       is_visible="true" />
    <inkscape:path-effect
       effect="spiro"
       id="path-effect3019"
       is_visible="true" />
    <inkscape:path-effect
       effect="spiro"
       id="path-effect3015"
       is_visible="true" />
    <inkscape:path-effect
       effect="spiro"
       id="path-effect2999"
       is_visible="true" />
    <inkscape:path-effect
       effect="spiro"
       id="path-effect2995"
       is_visible="true" />
    <inkscape:path-effect
       effect="spiro"
       id="path-effect2991"
       is_visible="true" />
    <inkscape:path-effect
       effect="spiro"
       id="path-effect2987"
       is_visible="true" />
  </defs>
  <sodipodi:namedview
     id="base"
     pagecolor="#ffffff"
     bordercolor="#666666"
     borderopacity="1.0"
     inkscape:pageopacity="0.0"
     inkscape:pageshadow="2"
     inkscape:zoom="0.93"
     inkscape:cx="273.22535"
     inkscape:cy="249.66622"
     inkscape:document-units="px"
     inkscape:current-layer="layer1"
     showgrid="false"
     fit-margin-top="0"
     fit-margin-left="0"
     fit-margin-right="0"
     fit-margin-bottom="0"
     inkscape:window-width="1249"
     inkscape:window-height="718"
     inkscape:window-x="4"
     inkscape:window-y="0"
     inkscape:window-maximized="0" />
  <metadata
     id="metadata7">
    <rdf:RDF>
      <cc:Work
         rdf:about="">
        <dc:format>image/svg+xml</dc:format>
        <dc:type
           rdf:resource="http://purl.org/dc/dcmitype/StillImage" />
        <dc:title></dc:title>
      </cc:Work>
    </rdf:RDF>
  </metadata>
  <g
     inkscape:label="Layer 1"
     inkscape:groupmode="layer"
     id="layer1"
     transform="translate(-136.60863,-227.00786)">
    <path
       style="opacity:0.25;fill:#000080;stroke:none"
       inkscape:path-effect="#path-effect3821"
       inkscape:original-d="m 257.94241,695.4545 c -31.8977,9.53238 43.41406,-9.0122 65.46196,-10.59325 15.80701,-1.13352 31.76254,-0.71367 47.53571,0.82044 29.98324,2.91619 59.0861,12.06252 88.96771,15.88202 29.58123,3.78111 59.86685,12.333 89.19642,6.93647 12.79216,-2.35371 33.87146,-3.74396 35.27851,-16.67452 1.44441,-13.27394 -19.60976,-18.80987 -31.68606,-24.50606 -30.82942,-14.54172 -65.64291,-22.0442 -99.72471,-22.63216 -21.30254,-0.3675 -41.60836,9.62742 -62.78294,11.98763 -15.58778,1.73748 -31.35169,1.03104 -47.02679,1.56873 -26.44206,0.90702 -53.19758,-1.37999 -79.32358,2.79585 -15.11352,2.41566 -40.315,-2.06191 -44.10552,12.76664 -2.10022,8.21606 7.34572,15.79305 18.04523,17.93322 13.24939,2.65021 67.10632,-10.31334 20.16406,3.71499 z"
       id="path3819"
       d="m 257.94241,695.4545 c 22.14046,1.03419 43.49008,-7.67672 65.46196,-10.59325 15.75424,-2.0912 31.77025,-1.18443 47.53571,0.82044 29.88944,3.801 59.15629,11.51102 88.96771,15.88202 29.51838,4.32803 59.40412,5.35995 89.19642,6.93647 7.21287,0.38168 14.63015,0.76976 21.47791,-1.52792 3.42389,-1.14884 6.65635,-2.98197 9.1694,-5.57569 2.51304,-2.59372 4.27293,-5.97724 4.6312,-9.57091 0.36446,-3.65574 -0.73548,-7.37979 -2.73596,-10.46125 -2.00048,-3.08145 -4.86037,-5.54662 -8.03174,-7.40127 -6.34273,-3.70928 -13.75693,-4.99946 -20.91836,-6.64354 -16.69508,-3.83275 -32.78611,-9.88472 -49.19631,-14.79602 -16.4102,-4.91129 -33.42133,-8.71014 -50.5284,-7.83614 -21.30443,1.08844 -41.61527,9.34318 -62.78294,11.98763 -15.57146,1.94532 -31.35192,0.8251 -47.02679,1.56873 -26.52073,1.25817 -53.25514,7.83256 -79.32358,2.79585 -8.73125,-1.68697 -17.44978,-4.67655 -26.29122,-3.72285 -4.42072,0.47686 -8.81086,2.0003 -12.20809,4.86891 -1.69862,1.43431 -3.132,3.1938 -4.122,5.18439 -0.99,1.99059 -1.53008,4.21348 -1.48421,6.43619 0.0467,2.26496 0.69995,4.5006 1.77521,6.49461 1.07525,1.994 2.565,3.75058 4.27911,5.23181 3.42822,2.96247 7.68491,4.79709 11.99091,6.2068 6.51498,2.1329 13.31629,3.39513 20.16406,3.71499"
       inkscape:connector-curvature="0"
       sodipodi:nodetypes="saaaaaaaaaaass" />
    <path
       style="fill:#d5e5ff;stroke:#000000;stroke-width:30.29999924;stroke-linecap:butt;stroke-linejoin:round;stroke-miterlimit:4;stroke-opacity:1;stroke-dasharray:none"
       inkscape:path-effect="#path-effect3839"
       inkscape:original-d="m 463.27109,558.38932 c -4.03167,17.64733 12.87239,34.57653 26.79683,45.20374 13.78335,10.51953 35.74926,4.13562 50.15862,13.77987 11.83786,7.92314 29.01738,19.82073 26.17577,33.7791 -3.99416,19.61989 -32.6262,26.3449 -52.42672,29.31687 -16.90796,2.53781 -35.41668,-2.10455 -50.14472,-10.78812 -15.42697,-9.09566 -25.73517,-25.35795 -35.31458,-40.48929 -10.09961,-15.95303 -16.75208,-33.98071 -22.6589,-51.91422 -3.01786,-9.16244 -6.56517,-24.07467 -6.45161,-28.21165 z"
       id="path3033"
       d="m 463.27109,558.38932 c -0.16581,9.21976 2.28135,18.47234 6.98359,26.40459 4.70224,7.93224 11.64511,14.51976 19.81324,18.79915 7.70228,4.03533 16.30387,5.99047 24.84042,7.64461 8.53656,1.65414 17.18305,3.06472 25.3182,6.13526 7.17061,2.70648 13.9617,6.77686 18.9375,12.60645 4.9758,5.82958 7.99253,13.54547 7.23827,21.17265 -0.54324,5.49329 -3.00723,10.71709 -6.59615,14.91125 -3.58892,4.19416 -8.26425,7.38748 -13.32148,9.6001 -10.11447,4.42524 -21.46983,4.94711 -32.50909,4.80552 -17.29086,-0.22178 -35.19245,-2.10177 -50.14472,-10.78812 -15.6748,-9.1061 -26.41433,-24.6967 -35.31458,-40.48929 -9.28886,-16.48215 -17.18627,-33.8036 -22.6589,-51.91422 -2.79258,-9.24151 -4.94987,-18.67494 -6.45161,-28.21165 l 63.86531,9.3237"
       inkscape:connector-curvature="0"
       sodipodi:nodetypes="caaaaaaacc" />
    <path
       style="fill:#d5e5ff;stroke:#000000;stroke-width:30.29999924;stroke-linecap:butt;stroke-linejoin:round;stroke-miterlimit:4;stroke-opacity:1;stroke-dasharray:none"
       inkscape:path-effect="#path-effect3841"
       inkscape:original-d="m 292.47312,551.93773 c -16.08456,11.17785 -177.11632,1066.35267 -2.43433,29.61974 20.28914,-120.41548 -33.15387,-6.5596 -46.3169,-1.88274 -18.38441,6.53202 -19.49812,59.43181 -25.90355,52.44502 -13.34245,-14.55341 36.5284,23.57291 56.94114,22.69008 17.36148,-0.75087 33.62583,-11.82726 46.58269,-23.4076 9.68406,-8.65524 37.01627,-25.95308 21.27932,-32.64104 -155.10948,-65.91906 8.75978,-43.78379 11.66544,-47.17716 z"
       id="path3031"
       d="m 292.47312,551.93773 c 4.32091,3.79465 6.70384,9.69085 6.23281,15.42215 -0.47103,5.73131 -3.78466,11.15933 -8.66714,14.19759 -3.35392,2.08707 -7.3211,3.05346 -11.2674,3.23036 -3.94631,0.17691 -7.89085,-0.40401 -11.75427,-1.22778 -7.72684,-1.64755 -15.40499,-4.28859 -23.29523,-3.88532 -5.81771,0.29735 -11.52669,2.29408 -16.31283,5.61479 -4.78613,3.32071 -8.64245,7.94781 -11.1274,13.21652 -2.48494,5.26871 -3.60169,11.16398 -3.30561,16.98176 0.29608,5.81778 1.99633,11.54916 4.84229,16.63195 5.31177,9.48663 14.51841,16.49146 24.75421,20.15745 10.23581,3.66598 21.43581,4.15266 32.18693,2.53263 17.47848,-2.63374 34.10848,-10.88451 46.58269,-23.4076 9.22035,-9.25649 16.09151,-20.65004 21.27932,-32.64104 6.46193,-14.93598 10.4219,-30.95084 11.66544,-47.17716 l -61.81381,0.3537"
       inkscape:connector-curvature="0"
       sodipodi:nodetypes="csssaascc" />
    <path
       style="fill:#ffeeaa;stroke:#000000;stroke-width:30.29999924;stroke-linecap:butt;stroke-linejoin:round;stroke-miterlimit:4;stroke-opacity:1;stroke-dasharray:none"
       inkscape:path-effect="#path-effect3843"
       inkscape:original-d="m 168.91302,498.03692 c -13.62277,-10.59896 -9.83924,-33.79811 -8.80233,-51.02723 0.91641,-15.22698 6.76387,-29.97724 13.13194,-43.83902 9.8232,-21.38279 21.61988,-42.63592 38.10889,-59.42376 14.99758,-15.26938 34.21074,-26.18379 53.41771,-35.627 27.08567,-13.31683 55.9338,-24.52475 85.7866,-28.97248 24.25536,-3.61378 49.43428,-2.3251 73.53641,2.19927 21.78606,4.08961 42.30391,13.49261 62.66594,22.25302 16.38009,7.04726 32.82835,14.39559 47.66132,24.29274 16.25492,10.84593 32.36726,22.79616 44.63214,38.00896 13.89665,17.23679 22.80945,38.1308 31.35845,58.55477 7.56196,18.06587 24.32808,37.78068 17.42814,56.1096 -3.36648,8.94269 -15.0974,12.99196 -24.44527,14.97243 -16.99522,3.60068 -34.39665,-4.95132 -51.664,-6.85941 -24.55088,-2.71293 -49.11551,-6.18008 -73.81346,-6.5209 -27.23489,-0.37583 -54.38995,3.0677 -81.56288,4.94194 -28.68781,1.97874 -57.27327,5.62671 -86.01088,6.65455 -26.7902,0.9582 -53.63066,-1.42236 -80.4207,-0.45941 -20.38418,0.7327 -44.90933,17.26725 -61.00802,4.74193 z"
       id="path3021"
       d="m 168.91302,498.03692 c -3.64564,-2.76376 -6.4942,-6.51233 -8.44376,-10.65096 -1.94957,-4.13863 -3.01959,-8.66058 -3.42265,-13.21762 -0.80611,-9.11408 1.01222,-18.24203 3.06408,-27.15865 3.42412,-14.87991 7.53668,-29.63236 13.13194,-43.83902 8.68844,-22.06042 21.10226,-42.9033 38.10889,-59.42376 15.41426,-14.9736 34.18397,-26.04204 53.41771,-35.627 27.12495,-13.51747 55.82018,-24.44493 85.7866,-28.97248 24.3829,-3.68395 49.44379,-3.05841 73.53641,2.19927 21.69702,4.73489 42.41312,13.1424 62.66594,22.25302 16.27144,7.31962 32.35062,15.13201 47.66132,24.29274 16.88495,10.10264 33.06351,22.09256 44.63214,38.00896 13.03412,17.93265 19.50453,39.82104 31.35845,58.55477 5.53121,8.74143 12.23939,16.80609 16.53859,26.21479 2.1496,4.70435 3.67507,9.74088 3.99538,14.90316 0.32031,5.16228 -0.60839,10.46236 -3.10583,14.99165 -2.38983,4.33413 -6.14586,7.83612 -10.44022,10.29671 -4.29436,2.46059 -9.1145,3.91512 -14.00505,4.67572 -17.28231,2.68782 -34.58262,-3.10055 -51.664,-6.85941 -24.17299,-5.31941 -49.06232,-6.62402 -73.81346,-6.5209 -27.25033,0.11353 -54.48133,1.91156 -81.56288,4.94194 -28.60954,3.20136 -57.24504,7.78641 -86.01088,6.65455 -26.9114,-1.0589 -54.31252,-7.07056 -80.4207,-0.45941 -10.30131,2.60851 -20.06844,7.12751 -30.46009,9.34892 -5.19583,1.11071 -10.5582,1.63621 -15.83552,1.01966 -5.27733,-0.61654 -10.47836,-2.41681 -14.71241,-5.62665"
       inkscape:connector-curvature="0"
       sodipodi:nodetypes="aaaaaaaaaaaaaaaaaaa" />
    <path
       style="fill:#ffffff;stroke:#000000;stroke-width:30.29999924;stroke-linecap:butt;stroke-linejoin:round;stroke-miterlimit:4;stroke-opacity:1;stroke-dasharray:none"
       inkscape:path-effect="#path-effect3023"
       inkscape:original-d="m 239.2199,472.29346 c -0.11748,20.37927 -6.10418,45.34082 7.28734,60.70297 15.87417,18.21014 46.21683,14.77784 70.10536,18.37458 12.88432,1.9399 26.03032,1.24746 39.05324,1.66264 27.90351,0.88958 55.84174,2.96005 83.73425,1.77475 27.31671,-1.16083 60.18141,8.35202 81.56256,-8.689 11.6059,-9.25004 12.4371,-27.40451 14.47369,-42.10527 2.65466,-19.16222 1.71944,-39.24549 -3.23534,-57.94544 -4.40078,-16.60909 -9.75223,-35.18022 -22.98767,-46.13704 -14.85448,-12.29712 -36.53525,-13.42609 -55.68744,-15.67741 -21.46979,-2.52375 -43.18416,2.33668 -64.79993,2.61926 -31.14552,0.40717 -64.12998,-11.8876 -93.43505,-1.33193 -18.46488,6.65104 -34.61692,21.41904 -44.81521,38.18754 -8.63475,14.19765 -11.15662,31.35918 -11.2558,48.56435 z"
       id="path3029"
       d="m 239.2199,472.29346 c -1.40692,10.40372 -3.05243,20.85567 -2.56935,31.34297 0.48308,10.4873 3.27642,21.17973 9.85669,29.36 3.92515,4.87955 9.07447,8.70416 14.69975,11.45605 5.62529,2.75189 11.72326,4.45662 17.90359,5.46671 12.36066,2.02018 24.97832,1.29678 37.50202,1.45182 13.02931,0.1613 26.02857,1.27947 39.05324,1.66264 27.9253,0.82152 56.01766,-1.73063 83.73425,1.77475 14.13384,1.78754 28.13349,5.14672 42.37976,5.21347 7.12314,0.0334 14.29459,-0.7729 21.07169,-2.96634 6.77709,-2.19344 13.15927,-5.81563 18.11111,-10.93613 5.26902,-5.44848 8.7698,-12.4254 10.92348,-19.69247 2.15368,-7.26706 3.02145,-14.85178 3.55021,-22.4128 1.35352,-19.35488 0.53199,-38.91256 -3.23534,-57.94544 -1.69982,-8.58761 -4.01134,-17.09999 -7.66518,-25.05524 -3.65383,-7.95524 -8.69565,-15.36154 -15.32249,-21.0818 -7.46341,-6.44237 -16.73281,-10.56626 -26.31739,-12.87764 -9.58457,-2.31139 -19.51103,-2.87922 -29.37005,-2.79977 -21.6252,0.17426 -43.18863,3.41381 -64.79993,2.61926 -15.67202,-0.57619 -31.18461,-3.26825 -46.80748,-4.63579 -15.62287,-1.36754 -31.65631,-1.36579 -46.62757,3.30386 -19.26865,6.01005 -36.02592,20.01751 -44.81521,38.18754 -7.26929,15.02773 -9.01865,32.02136 -11.2558,48.56435"
       inkscape:connector-curvature="0"
       sodipodi:nodetypes="aaaaaaaaaaaaaa" />
    <path
       style="fill:none;stroke:#000000;stroke-width:30.29999924;stroke-linecap:butt;stroke-linejoin:round;stroke-miterlimit:4;stroke-opacity:1;stroke-dasharray:none"
       inkscape:path-effect="#path-effect3809"
       inkscape:original-d="m 325.26109,443.6484 c 5.86097,-7.17689 22.09434,-5.18643 27.7122,2.18231 7.63122,10.00958 5.34064,35.24289 -7.11065,37.08482 -14.62198,2.16306 -30.38027,-27.29287 -20.60155,-39.26713 z"
       id="path3035"
       d="m 325.26109,443.6484 c 4.14487,-2.79947 9.2513,-4.14543 14.23755,-3.75276 4.98626,0.39266 9.81906,2.52133 13.47465,5.93507 2.742,2.5606 4.82179,5.82446 5.9844,9.39147 1.16261,3.56701 1.40557,7.42955 0.69908,11.11413 -0.70648,3.68458 -2.36089,7.18332 -4.76042,10.06733 -2.39953,2.884 -5.53906,5.14711 -9.03371,6.51189 -5.0563,1.97466 -10.84032,2.01708 -15.92505,0.1168 -5.08472,-1.90029 -9.42322,-5.72574 -11.94513,-10.53256 -2.5219,-4.80681 -3.20393,-10.55064 -1.87782,-15.81437 1.32611,-5.26374 4.64813,-9.99881 9.14645,-13.037"
       inkscape:connector-curvature="0"
       sodipodi:nodetypes="aaaa" />
    <path
       sodipodi:nodetypes="aaaa"
       inkscape:connector-curvature="0"
       d="m 442.01392,453.01273 c 2.30847,2.15575 4.05942,4.90357 5.03822,7.9066 0.97879,3.00304 1.18333,6.25489 0.58855,9.3569 -0.59478,3.10202 -1.98762,6.04759 -4.00776,8.47561 -2.02015,2.42802 -4.66329,4.33331 -7.60541,5.48231 -4.25686,1.66245 -9.12639,1.69816 -13.40717,0.0983 -4.28079,-1.59983 -7.93335,-4.82045 -10.05652,-8.86727 -2.12317,-4.04682 -2.69736,-8.88251 -1.58092,-13.314 1.11644,-4.4315 3.91322,-8.41792 7.70032,-10.97575 3.48954,-2.35685 7.78859,-3.49 11.98649,-3.15942 4.19789,0.33058 8.26659,2.12268 11.3442,4.99669"
       id="path3811"
       inkscape:original-d="m 442.01392,453.01273 c 6.42466,8.42699 4.49624,29.67071 -5.9864,31.22142 -12.31014,1.82106 -24.19624,-22.67089 -17.34429,-33.05869 4.29536,-6.51192 18.60105,-4.36642 23.33069,1.83727 z"
       inkscape:path-effect="#path-effect3813"
       style="fill:none;stroke:#000000;stroke-width:20.29999924;stroke-linecap:butt;stroke-linejoin:round;stroke-miterlimit:4;stroke-opacity:1;stroke-dasharray:none" />
    <path
       style="opacity:0.25;fill:#000080;stroke:none"
       inkscape:path-effect="#path-effect3834"
       inkscape:original-d="m 400,557.73853 c -6.27186,11.26174 11.47768,23.09679 17.78017,34.34142 3.60315,6.42857 7.28208,12.83417 11.44207,18.91724 4.93891,7.22207 10.69236,13.85209 16.00277,20.80555 4.64666,6.08435 6.60396,15.91117 13.87723,18.30081 5.70637,1.87483 13.16474,-0.72955 17.28167,-5.10317 5.58349,-5.93162 5.72341,-15.67031 5.49255,-23.81317 -0.18436,-6.50267 -3.22144,-12.62827 -5.45658,-18.73752 -4.94579,-13.51822 -6.07922,-30.74592 -17.5334,-39.464 -11.57717,-8.81169 -28.62742,-5.93496 -43.16719,-6.45637 -5.25187,-0.18834 -13.16234,-3.38204 -15.71929,1.20921 z m -97.84946,-4.30108 c -10.29035,6.76987 -11.65311,22.61326 -12.07675,34.92354 -0.60486,17.57619 -2.103,43.36657 13.7741,50.93003 7.42425,3.53673 16.12798,-4.86924 22.55154,-10.00401 6.88857,-5.50648 12.1985,-13.17327 15.79168,-21.22701 3.01894,-6.76666 4.49855,-14.37798 4.40923,-21.78701 -0.12382,-10.2703 0.94725,-23.34556 -6.83834,-30.04473 -9.52946,-8.1997 -27.10887,-9.70031 -37.61146,-2.79081 z"
       id="path3832"
       d="m 400,557.73853 c -1.51095,1.09852 -2.65845,2.6679 -3.33389,4.4096 -0.67543,1.74169 -0.88725,3.64934 -0.70337,5.50834 0.36776,3.71801 2.28323,7.14723 4.75988,9.94456 4.9533,5.59466 12.05893,8.92471 17.05755,14.47892 4.94094,5.49011 7.44152,12.70839 11.44207,18.91724 4.7444,7.3633 11.56657,13.25256 16.00277,20.80555 1.98221,3.37487 3.4561,7.03156 5.48944,10.37587 2.03335,3.34431 4.75998,6.45598 8.38779,7.92494 2.96876,1.2021 6.36514,1.1952 9.41256,0.20938 3.04743,-0.98582 5.74922,-2.91157 7.86911,-5.31255 2.78797,-3.15763 4.59109,-7.12259 5.43771,-11.24893 0.84661,-4.12634 0.76158,-8.41166 0.0548,-12.56424 -1.09243,-6.41873 -3.63096,-12.48767 -5.45658,-18.73752 -2.06314,-7.06297 -3.22061,-14.37869 -5.54814,-21.359 -2.32752,-6.98031 -6.01691,-13.8014 -11.98526,-18.105 -5.99313,-4.32147 -13.63703,-5.6564 -21.02038,-5.93707 -7.38336,-0.28067 -14.81165,0.36842 -22.14681,-0.5193 -2.67873,-0.32419 -5.34312,-0.85313 -8.04127,-0.87826 -2.69816,-0.0251 -5.49559,0.50076 -7.67802,2.08747 m -97.84946,-4.30108 c -4.48236,4.38828 -7.12788,10.34807 -8.72758,16.41351 -1.59971,6.06543 -2.24945,12.33434 -3.34917,18.51003 -1.73843,9.76249 -4.62226,19.55437 -3.55168,29.41247 0.53529,4.92905 2.10671,9.81872 5.05761,13.80297 2.95091,3.98424 7.36283,6.99366 12.26817,7.71459 4.21348,0.61925 8.55033,-0.45587 12.34287,-2.39326 3.79254,-1.9374 7.10008,-4.69982 10.20867,-7.61075 6.48541,-6.07304 12.34607,-13.03737 15.79168,-21.22701 2.88764,-6.86343 3.98237,-14.35311 4.40923,-21.78701 0.30112,-5.24408 0.27972,-10.54068 -0.68372,-15.70428 -0.96343,-5.16361 -2.90698,-10.21203 -6.15462,-14.34045 -4.38347,-5.57229 -11.13607,-9.23677 -18.20428,-9.78966 -7.06821,-0.55289 -14.34105,2.03905 -19.40718,6.99885"
       inkscape:connector-curvature="0"
       sodipodi:nodetypes="aaaaaaaaaaaaaaaaaaa" />
    <path
       style="fill:none;stroke:#000000;stroke-width:30;stroke-linecap:butt;stroke-linejoin:miter;stroke-miterlimit:4;stroke-opacity:1;stroke-dasharray:none"
       inkscape:path-effect="#path-effect3847"
       inkscape:original-d="m 303.2753,420.10464 c 6.60677,3.4358 18.34428,17.56247 30.07846,21.00736 11.63383,3.41543 31.40497,-3.45548 36.34743,-1.40207"
       id="path3845"
       d="m 303.2753,420.10464 c 7.38976,10.01734 18.12938,17.51809 30.07846,21.00736 11.84319,3.45835 24.80584,2.95832 36.34743,-1.40207"
       inkscape:connector-curvature="0"
       sodipodi:nodetypes="cac" />
    <path
       sodipodi:nodetypes="cac"
       inkscape:connector-curvature="0"
       d="m 454.64743,440.53475 c -7.55113,2.8629 -15.55934,4.51639 -23.62685,4.87833 -9.00661,0.40408 -18.08323,-0.80499 -26.67001,-3.55261"
       id="path3853"
       inkscape:original-d="m 454.64743,440.53475 c -6.60677,3.4358 -15.5902,4.59216 -23.62685,4.87833 -8.96285,0.31915 -21.72755,-5.60602 -26.67001,-3.55261"
       inkscape:path-effect="#path-effect3855"
       style="fill:none;stroke:#000000;stroke-width:30;stroke-linecap:butt;stroke-linejoin:miter;stroke-miterlimit:4;stroke-opacity:1;stroke-dasharray:none" />
  </g>
</svg>
