<?xml version="1.0" encoding="UTF-8" standalone="no"?>
<!-- Created with Inkscape (http://www.inkscape.org/) -->

<svg
   xmlns:dc="http://purl.org/dc/elements/1.1/"
   xmlns:cc="http://creativecommons.org/ns#"
   xmlns:rdf="http://www.w3.org/1999/02/22-rdf-syntax-ns#"
   xmlns:svg="http://www.w3.org/2000/svg"
   xmlns="http://www.w3.org/2000/svg"
   xmlns:sodipodi="http://sodipodi.sourceforge.net/DTD/sodipodi-0.dtd"
   xmlns:inkscape="http://www.inkscape.org/namespaces/inkscape"
   width="512"
   height="512"
   id="svg2"
   version="1.1"
   inkscape:version="0.48.5 r10040"
   sodipodi:docname="player-flyup.svg"
   inkscape:export-filename="/Users/darabos/Documents/fragmented-space/images/player-flyup.png"
   inkscape:export-xdpi="5.6199999"
   inkscape:export-ydpi="5.6199999">
  <defs
     id="defs4">
    <inkscape:path-effect
       effect="spiro"
       id="path-effect3936"
       is_visible="true" />
    <inkscape:path-effect
       is_visible="true"
       id="path-effect3855"
       effect="spiro" />
    <inkscape:path-effect
       effect="spiro"
       id="path-effect3847"
       is_visible="true" />
    <inkscape:path-effect
       is_visible="true"
       id="path-effect3843"
       effect="spiro" />
    <inkscape:path-effect
       is_visible="true"
       id="path-effect3841"
       effect="spiro" />
    <inkscape:path-effect
       is_visible="true"
       id="path-effect3839"
       effect="spiro" />
    <inkscape:path-effect
       effect="spiro"
       id="path-effect3834"
       is_visible="true" />
    <inkscape:path-effect
       effect="spiro"
       id="path-effect3830"
       is_visible="true" />
    <inkscape:path-effect
       effect="spiro"
       id="path-effect3821"
       is_visible="true" />
    <inkscape:path-effect
       effect="spiro"
       id="path-effect3813"
       is_visible="true" />
    <inkscape:path-effect
       is_visible="true"
       id="path-effect3809"
       effect="spiro" />
    <inkscape:path-effect
       effect="spiro"
       id="path-effect3023"
       is_visible="true" />
    <inkscape:path-effect
       effect="spiro"
       id="path-effect3019"
       is_visible="true" />
    <inkscape:path-effect
       effect="spiro"
       id="path-effect3015"
       is_visible="true" />
    <inkscape:path-effect
       effect="spiro"
       id="path-effect2999"
       is_visible="true" />
    <inkscape:path-effect
       effect="spiro"
       id="path-effect2995"
       is_visible="true" />
    <inkscape:path-effect
       effect="spiro"
       id="path-effect2991"
       is_visible="true" />
    <inkscape:path-effect
       effect="spiro"
       id="path-effect2987"
       is_visible="true" />
    <inkscape:path-effect
       is_visible="true"
       id="path-effect2987-4"
       effect="spiro" />
    <inkscape:path-effect
       is_visible="true"
       id="path-effect2991-6"
       effect="spiro" />
    <inkscape:path-effect
       is_visible="true"
       id="path-effect2995-8"
       effect="spiro" />
    <inkscape:path-effect
       is_visible="true"
       id="path-effect2999-2"
       effect="spiro" />
    <inkscape:path-effect
       is_visible="true"
       id="path-effect3015-8"
       effect="spiro" />
    <inkscape:path-effect
       is_visible="true"
       id="path-effect3019-6"
       effect="spiro" />
    <inkscape:path-effect
       is_visible="true"
       id="path-effect3023-3"
       effect="spiro" />
    <inkscape:path-effect
       effect="spiro"
       id="path-effect3809-2"
       is_visible="true" />
    <inkscape:path-effect
       is_visible="true"
       id="path-effect3813-9"
       effect="spiro" />
    <inkscape:path-effect
       is_visible="true"
       id="path-effect3821-2"
       effect="spiro" />
    <inkscape:path-effect
       is_visible="true"
       id="path-effect3830-7"
       effect="spiro" />
    <inkscape:path-effect
       is_visible="true"
       id="path-effect3834-8"
       effect="spiro" />
    <inkscape:path-effect
       effect="spiro"
       id="path-effect3839-1"
       is_visible="true" />
    <inkscape:path-effect
       effect="spiro"
       id="path-effect3841-3"
       is_visible="true" />
    <inkscape:path-effect
       effect="spiro"
       id="path-effect3843-9"
       is_visible="true" />
    <inkscape:path-effect
       is_visible="true"
       id="path-effect3847-8"
       effect="spiro" />
    <inkscape:path-effect
       effect="spiro"
       id="path-effect3855-4"
       is_visible="true" />
    <inkscape:path-effect
       effect="spiro"
       id="path-effect3824"
       is_visible="true" />
    <inkscape:path-effect
       is_visible="true"
       id="path-effect3824-5"
       effect="spiro" />
    <inkscape:path-effect
       is_visible="true"
       id="path-effect3855-3"
       effect="spiro" />
    <inkscape:path-effect
       effect="spiro"
       id="path-effect3847-9"
       is_visible="true" />
    <inkscape:path-effect
       is_visible="true"
       id="path-effect3843-8"
       effect="spiro" />
    <inkscape:path-effect
       is_visible="true"
       id="path-effect3841-83"
       effect="spiro" />
    <inkscape:path-effect
       is_visible="true"
       id="path-effect3839-7"
       effect="spiro" />
    <inkscape:path-effect
       effect="spiro"
       id="path-effect3834-0"
       is_visible="true" />
    <inkscape:path-effect
       effect="spiro"
       id="path-effect3830-1"
       is_visible="true" />
    <inkscape:path-effect
       effect="spiro"
       id="path-effect3821-82"
       is_visible="true" />
    <inkscape:path-effect
       effect="spiro"
       id="path-effect3813-9-0"
       is_visible="true" />
    <inkscape:path-effect
       is_visible="true"
       id="path-effect3809-6"
       effect="spiro" />
    <inkscape:path-effect
       effect="spiro"
       id="path-effect3023-7"
       is_visible="true" />
    <inkscape:path-effect
       effect="spiro"
       id="path-effect3019-3"
       is_visible="true" />
    <inkscape:path-effect
       effect="spiro"
       id="path-effect3015-1"
       is_visible="true" />
    <inkscape:path-effect
       effect="spiro"
       id="path-effect2999-95"
       is_visible="true" />
    <inkscape:path-effect
       effect="spiro"
       id="path-effect2995-9"
       is_visible="true" />
    <inkscape:path-effect
       effect="spiro"
       id="path-effect2991-7"
       is_visible="true" />
    <inkscape:path-effect
       effect="spiro"
       id="path-effect2987-1"
       is_visible="true" />
    <inkscape:path-effect
       is_visible="true"
       id="path-effect3824-0"
       effect="spiro" />
    <inkscape:path-effect
       is_visible="true"
       id="path-effect3855-8"
       effect="spiro" />
    <inkscape:path-effect
       effect="spiro"
       id="path-effect3847-5"
       is_visible="true" />
    <inkscape:path-effect
       is_visible="true"
       id="path-effect3843-3"
       effect="spiro" />
    <inkscape:path-effect
       is_visible="true"
       id="path-effect3841-8"
       effect="spiro" />
    <inkscape:path-effect
       is_visible="true"
       id="path-effect3839-1-5"
       effect="spiro" />
    <inkscape:path-effect
       effect="spiro"
       id="path-effect3834-2"
       is_visible="true" />
    <inkscape:path-effect
       effect="spiro"
       id="path-effect3830-5"
       is_visible="true" />
    <inkscape:path-effect
       effect="spiro"
       id="path-effect3821-8"
       is_visible="true" />
    <inkscape:path-effect
       effect="spiro"
       id="path-effect3813-2"
       is_visible="true" />
    <inkscape:path-effect
       is_visible="true"
       id="path-effect3809-2-3"
       effect="spiro" />
    <inkscape:path-effect
       effect="spiro"
       id="path-effect3023-1"
       is_visible="true" />
    <inkscape:path-effect
       effect="spiro"
       id="path-effect3019-2"
       is_visible="true" />
    <inkscape:path-effect
       effect="spiro"
       id="path-effect3015-0"
       is_visible="true" />
    <inkscape:path-effect
       effect="spiro"
       id="path-effect2999-9"
       is_visible="true" />
    <inkscape:path-effect
       effect="spiro"
       id="path-effect2995-7"
       is_visible="true" />
    <inkscape:path-effect
       effect="spiro"
       id="path-effect2991-1"
       is_visible="true" />
    <inkscape:path-effect
       effect="spiro"
       id="path-effect2987-5"
       is_visible="true" />
    <inkscape:path-effect
       is_visible="true"
       id="path-effect2987-11"
       effect="spiro" />
    <inkscape:path-effect
       is_visible="true"
       id="path-effect2991-4"
       effect="spiro" />
    <inkscape:path-effect
       is_visible="true"
       id="path-effect2995-86"
       effect="spiro" />
    <inkscape:path-effect
       is_visible="true"
       id="path-effect2999-93"
       effect="spiro" />
    <inkscape:path-effect
       is_visible="true"
       id="path-effect3015-5"
       effect="spiro" />
    <inkscape:path-effect
       is_visible="true"
       id="path-effect3019-8"
       effect="spiro" />
    <inkscape:path-effect
       is_visible="true"
       id="path-effect3023-5"
       effect="spiro" />
    <inkscape:path-effect
       effect="spiro"
       id="path-effect3809-4"
       is_visible="true" />
    <inkscape:path-effect
       is_visible="true"
       id="path-effect3813-0"
       effect="spiro" />
    <inkscape:path-effect
       is_visible="true"
       id="path-effect3821-1"
       effect="spiro" />
    <inkscape:path-effect
       is_visible="true"
       id="path-effect3830-3"
       effect="spiro" />
    <inkscape:path-effect
       is_visible="true"
       id="path-effect3834-9"
       effect="spiro" />
    <inkscape:path-effect
       effect="spiro"
       id="path-effect3839-9"
       is_visible="true" />
    <inkscape:path-effect
       effect="spiro"
       id="path-effect3841-5"
       is_visible="true" />
    <inkscape:path-effect
       effect="spiro"
       id="path-effect3843-0"
       is_visible="true" />
    <inkscape:path-effect
       is_visible="true"
       id="path-effect3847-2"
       effect="spiro" />
    <inkscape:path-effect
       effect="spiro"
       id="path-effect3855-85"
       is_visible="true" />
    <inkscape:path-effect
       effect="spiro"
       id="path-effect4190"
       is_visible="true" />
    <inkscape:path-effect
       is_visible="true"
       id="path-effect4194"
       effect="spiro" />
    <inkscape:path-effect
       is_visible="true"
       id="path-effect4198"
       effect="spiro" />
    <inkscape:path-effect
       is_visible="true"
       id="path-effect4714"
       effect="spiro" />
    <inkscape:path-effect
       is_visible="true"
       id="path-effect4718"
       effect="spiro" />
  </defs>
  <sodipodi:namedview
     id="base"
     pagecolor="#ffffff"
     bordercolor="#666666"
     borderopacity="1.0"
     inkscape:pageopacity="0.0"
     inkscape:pageshadow="2"
     inkscape:zoom="0.93"
     inkscape:cx="279.40843"
     inkscape:cy="249.66622"
     inkscape:document-units="px"
     inkscape:current-layer="layer1"
     showgrid="false"
     fit-margin-top="0"
     fit-margin-left="0"
     fit-margin-right="0"
     fit-margin-bottom="0"
     inkscape:window-width="751"
     inkscape:window-height="723"
     inkscape:window-x="462"
     inkscape:window-y="0"
     inkscape:window-maximized="0" />
  <metadata
     id="metadata7">
    <rdf:RDF>
      <cc:Work
         rdf:about="">
        <dc:format>image/svg+xml</dc:format>
        <dc:type
           rdf:resource="http://purl.org/dc/dcmitype/StillImage" />
        <dc:title></dc:title>
      </cc:Work>
    </rdf:RDF>
  </metadata>
  <g
     inkscape:label="Layer 1"
     inkscape:groupmode="layer"
     id="layer1"
     transform="translate(-136.60863,-227.00786)">
    <path
       style="fill:#d5e5ff;stroke:#000000;stroke-width:30;stroke-linecap:butt;stroke-linejoin:round;stroke-miterlimit:4;stroke-opacity:1;stroke-dasharray:none"
       inkscape:path-effect="#path-effect3839-9"
       inkscape:original-d="m 460.10815,537.62945 c -4.03167,17.64733 19.77237,23.31319 28.94737,35.52632 8.24088,10.9697 19.70985,20.64486 23.40668,33.85774 3.40446,12.16793 3.00177,26.34466 -2.2447,37.83916 -5.80699,12.72253 -16.03492,28.87063 -30.01293,29.31687 -15.21045,0.48559 -25.79854,-17.35835 -34.62748,-29.75364 -9.49686,-13.33299 -11.78596,-30.54781 -18.0732,-45.6617 -7.25197,-17.43302 -18.80103,-33.4313 -22.6589,-51.91422 -0.89615,-4.29344 -0.11356,-9.02091 0,-13.15789 z"
       id="path3033"
       d="m 460.10815,537.62945 c 9.04492,12.31778 18.71035,24.17989 28.94737,35.52632 9.27047,10.27513 19.31529,20.63728 23.40668,33.85774 3.79909,12.27594 1.94245,25.6901 -2.2447,37.83916 -2.42209,7.02771 -5.67718,13.90011 -10.67385,19.40361 -4.99667,5.5035 -11.91499,9.54164 -19.33908,9.91326 -4.04957,0.20271 -8.12258,-0.68402 -11.81924,-2.34981 -3.69666,-1.66579 -7.02407,-4.09644 -9.90006,-6.95456 -5.75198,-5.71623 -9.64518,-13.02543 -12.90818,-20.44927 -6.58903,-14.99108 -10.96087,-30.9117 -18.0732,-45.6617 -4.12489,-8.55446 -9.14063,-16.649 -13.47211,-25.10074 -4.33147,-8.45173 -8.01069,-17.38956 -9.18679,-26.81348 -0.54455,-4.3634 -0.54455,-8.79449 0,-13.15789 l 55.26316,3.94736"
       inkscape:connector-curvature="0"
       sodipodi:nodetypes="caaaaaaacc" />
    <path
       style="fill:#d5e5ff;stroke:#000000;stroke-width:30;stroke-linecap:butt;stroke-linejoin:round;stroke-miterlimit:4;stroke-opacity:1;stroke-dasharray:none"
       inkscape:path-effect="#path-effect3841-5"
       inkscape:original-d="m 302.21341,537.62947 c -16.08456,11.17785 -19.48439,35.61003 -27.16551,54.35093 -3.70022,9.02804 -6.54318,18.40696 -9.05328,27.83546 -2.82419,10.60824 -12.96433,23.19885 -6.7341,32.23738 8.14111,11.81076 29.0804,11.8353 42.49917,6.76498 13.83067,-5.22596 21.85887,-20.86383 28.2475,-34.19737 8.27905,-17.27897 10.09944,-37.19595 11.6019,-56.29695 0.69988,-8.89774 -4.14345,-23.35368 -1.23779,-26.74705 z"
       id="path3031"
       d="m 302.21341,537.62947 c -11.74822,16.59507 -20.94406,34.99349 -27.16551,54.35093 -2.98676,9.29301 -5.30022,18.82461 -9.05328,27.83546 -2.16849,5.20639 -4.81464,10.23162 -6.46549,15.62454 -1.65086,5.39291 -2.2468,11.33121 -0.26861,16.61284 1.44255,3.8515 4.21081,7.15542 7.62704,9.44549 3.41623,2.29006 7.45632,3.58614 11.55333,3.94596 8.19404,0.71965 16.35615,-2.24679 23.3188,-6.62647 12.69401,-7.98485 22.02408,-20.55315 28.2475,-34.19737 8.00703,-17.55462 11.22136,-37.00621 11.6019,-56.29695 0.17616,-8.92996 -0.23764,-17.87152 -1.23779,-26.74705 l -38.15789,-3.94738"
       inkscape:connector-curvature="0"
       sodipodi:nodetypes="caaaaaacc" />
    <path
       style="opacity:0.25;fill:#000080;stroke:none"
       inkscape:path-effect="#path-effect3834-9"
       inkscape:original-d="m 408.66502,542.355 c -3.36249,6.10929 4.93929,13.07297 8.10275,19.28766 3.34309,6.56757 9.39134,11.83884 11.44207,18.91724 2.25019,7.76684 -2.25942,16.64775 0.48553,24.25383 3.14639,8.71842 8.35645,19.41097 17.3255,21.74908 10.22781,2.66626 22.48708,-3.96177 29.35064,-11.99972 6.82836,-7.99673 7.35271,-20.19517 7.21669,-30.70972 -0.12196,-9.4275 -0.37164,-20.83677 -7.18072,-27.35821 -6.43788,-6.16593 -17.60917,-3.06609 -26.13555,-5.66719 -9.27774,-2.83031 -17.39268,-9.73185 -27.03816,-10.75745 -4.56086,-0.48495 -11.35719,-1.73369 -13.56875,2.28448 z m -111.82795,-9.67742 c -7.89586,7.66949 3.12966,21.80421 4.05228,32.773 1.21386,14.43129 -5.36394,30.90122 1.94614,43.40315 4.68434,8.0113 14.59277,16.85089 23.62681,14.72717 6.44879,-1.51598 8.45355,-10.59849 10.41533,-16.92593 4.49131,-14.48606 4.9257,-30.51292 2.2587,-45.44293 -1.50351,-8.41676 -3.30894,-18.35197 -10.06415,-23.59311 -8.58864,-6.66364 -24.43751,-12.5154 -32.23511,-4.94135 z"
       id="path3832"
       d="m 408.66502,542.355 c -1.15759,1.53648 -1.64209,3.52185 -1.52541,5.44205 0.11667,1.9202 0.80455,3.77692 1.79111,5.42843 1.97313,3.30302 5.05463,5.75986 7.83705,8.41718 5.4144,5.17097 9.98016,11.57439 11.44207,18.91724 1.58249,7.94849 -0.58335,16.22013 0.48553,24.25383 0.64559,4.85226 2.50168,9.56394 5.49947,13.43362 2.9978,3.86968 7.14923,6.87022 11.82603,8.31546 5.42445,1.67629 11.4323,1.20684 16.65024,-1.03096 5.21794,-2.23781 9.63942,-6.18702 12.7004,-10.96876 2.86727,-4.47913 4.55678,-9.62941 5.55506,-14.85313 0.99827,-5.22372 1.33022,-10.54867 1.66163,-15.85659 0.30627,-4.90522 0.61087,-9.86743 -0.26292,-14.7039 -0.87378,-4.83648 -3.05849,-9.61117 -6.9178,-12.65431 -3.54927,-2.79866 -8.15283,-3.88368 -12.64756,-4.36037 -4.49473,-0.47669 -9.05487,-0.42519 -13.48799,-1.30682 -9.53426,-1.89611 -17.73658,-7.93291 -27.03816,-10.75745 -2.34126,-0.71095 -4.79145,-1.21808 -7.22648,-0.97808 -1.21751,0.12001 -2.42181,0.42912 -3.51943,0.96947 -1.09762,0.54034 -2.08667,1.31596 -2.82284,2.29309 m -111.82795,-9.67742 c -1.60047,2.36711 -2.38811,5.22519 -2.53281,8.07892 -0.1447,2.85373 0.32906,5.71109 1.08803,8.46585 1.51794,5.50952 4.16762,10.67022 5.49706,16.22823 1.69228,7.0749 1.17563,14.46461 0.7303,21.72544 -0.44533,7.26083 -0.7923,14.6859 1.21584,21.67771 1.46092,5.08654 4.27404,9.93273 8.59495,12.98837 2.16045,1.52782 4.6725,2.58052 7.29597,2.92577 2.62347,0.34524 5.35525,-0.0318 7.73589,-1.18697 3.08302,-1.49596 5.44616,-4.21498 7.05969,-7.23813 1.61353,-3.02315 2.54196,-6.35901 3.35564,-9.6878 3.62981,-14.84965 5.20258,-30.44223 2.2587,-45.44293 -1.66127,-8.46512 -4.8099,-16.75125 -10.06415,-23.59311 -3.87133,-5.04109 -9.07897,-9.34504 -15.27281,-10.77196 -3.09692,-0.71346 -6.38933,-0.67582 -9.41513,0.296 -3.02581,0.97182 -5.76711,2.90187 -7.54717,5.53461"
       inkscape:connector-curvature="0"
       sodipodi:nodetypes="aaaaaaaaaaaaaaaaaaa" />
    <path
       style="fill:#ffffff;stroke:#000000;stroke-width:30;stroke-linecap:butt;stroke-linejoin:round;stroke-miterlimit:4;stroke-opacity:1;stroke-dasharray:none"
       inkscape:path-effect="#path-effect3023"
       inkscape:original-d="m 241.2199,473.08916 c -0.11748,20.37927 -6.10418,45.34082 7.28734,60.70297 15.87417,18.21014 46.21683,14.77784 70.10536,18.37458 12.88432,1.9399 26.03032,1.24746 39.05324,1.66264 27.90351,0.88958 55.84174,2.96005 83.73425,1.77475 27.31671,-1.16083 60.18141,8.35202 81.56256,-8.689 11.6059,-9.25004 12.4371,-27.40451 14.47369,-42.10527 2.65466,-19.16222 1.71944,-39.24549 -3.23534,-57.94544 -4.40078,-16.60909 -9.75223,-35.18022 -22.98767,-46.13704 -14.85448,-12.29712 -36.53525,-13.42609 -55.68744,-15.67741 -21.46979,-2.52375 -43.18416,2.33668 -64.79993,2.61926 -31.14552,0.40717 -64.12998,-11.8876 -93.43505,-1.33193 -18.46488,6.65104 -34.61692,21.41904 -44.81521,38.18754 -8.63475,14.19765 -11.15662,31.35918 -11.2558,48.56435 z"
       id="path3029"
       d="m 241.2199,473.08916 c -1.40692,10.40372 -3.05243,20.85567 -2.56935,31.34297 0.48308,10.4873 3.27642,21.17973 9.85669,29.36 3.92515,4.87955 9.07447,8.70416 14.69975,11.45605 5.62529,2.75189 11.72326,4.45662 17.90359,5.46671 12.36066,2.02018 24.97832,1.29678 37.50202,1.45182 13.02931,0.1613 26.02857,1.27947 39.05324,1.66264 27.9253,0.82152 56.01766,-1.73063 83.73425,1.77475 14.13384,1.78754 28.13349,5.14672 42.37976,5.21347 7.12314,0.0334 14.29459,-0.7729 21.07169,-2.96634 6.77709,-2.19344 13.15927,-5.81563 18.11111,-10.93613 5.26902,-5.44848 8.7698,-12.4254 10.92348,-19.69247 2.15368,-7.26706 3.02145,-14.85178 3.55021,-22.4128 1.35352,-19.35488 0.53199,-38.91256 -3.23534,-57.94544 -1.69982,-8.58761 -4.01134,-17.09999 -7.66518,-25.05524 -3.65383,-7.95524 -8.69565,-15.36154 -15.32249,-21.0818 -7.46341,-6.44237 -16.73281,-10.56626 -26.31739,-12.87764 -9.58457,-2.31139 -19.51103,-2.87922 -29.37005,-2.79977 -21.6252,0.17426 -43.18863,3.41381 -64.79993,2.61926 -15.67202,-0.57619 -31.18461,-3.26825 -46.80748,-4.63579 -15.62287,-1.36754 -31.65631,-1.36579 -46.62757,3.30386 -19.26865,6.01005 -36.02592,20.01751 -44.81521,38.18754 -7.26929,15.02773 -9.01865,32.02136 -11.2558,48.56435"
       inkscape:connector-curvature="0"
       sodipodi:nodetypes="aaaaaaaaaaaaaa" />
    <path
       style="fill:#ffeeaa;stroke:#000000;stroke-width:30;stroke-linecap:butt;stroke-linejoin:round;stroke-miterlimit:4;stroke-opacity:1;stroke-dasharray:none"
       inkscape:path-effect="#path-effect3843-9"
       inkscape:original-d="m 568.74867,304.00564 c -23.94341,-33.5047 -79.87635,-45.31642 -120.35785,-27.86856 -23.8409,15.09665 8.45763,48.73907 -5.21905,66.10203 -7.60188,9.65082 -23.94649,31.269 -35.03991,11.42567 -19.42657,-15.9333 -16.45582,-65.228 -43.41036,-69.31847 -35.14368,-5.3332 -53.61833,48.95416 -80.86393,69.51777 -77.08152,-6.23251 -65.97846,-39.45648 -63.62779,16.7276 0.76041,18.17486 -22.32473,94.8194 1.09029,132.12123 11.62454,18.51874 37.52268,24.11956 58.83598,28.99984 69.45465,15.90358 144.75363,16.12969 213.75011,-1.65678 20.07669,-5.17553 43.17602,-12.39772 54.67887,-29.64718 36.5129,-54.75404 58.42813,-142.85854 20.16364,-196.40315 z"
       id="path3021-3"
       d="m 568.74867,304.00564 c -15.28903,-15.42231 -34.9988,-26.41193 -56.15546,-31.3107 -21.15665,-4.89877 -43.69079,-3.69063 -64.20239,3.44214 7.8687,9.38303 11.87516,21.91082 10.91131,34.11854 -0.96386,12.20773 -6.88667,23.95156 -16.13036,31.98349 -9.52571,8.27698 -22.46609,12.49653 -35.03991,11.42567 2.20327,-14.67805 -1.00885,-30.10744 -8.88662,-42.6868 -7.87776,-12.57936 -20.35657,-22.20553 -34.52374,-26.63167 -10.12721,-3.16396 -21.06133,-3.70661 -31.45205,-1.56091 -10.39071,2.1457 -20.21551,6.97508 -28.26105,13.89174 -8.04554,6.91666 -14.29441,15.90561 -17.97488,25.85675 -3.68047,9.95113 -4.78457,20.8429 -3.17595,31.33019 -22.28613,-3.78804 -46.08611,2.46892 -63.62779,16.7276 -19.45678,15.81536 -30.66796,41.02981 -30.18974,66.09898 0.47822,25.06916 12.38414,49.54084 31.28003,66.02225 16.60689,14.48489 37.72249,22.68943 58.83598,28.99984 69.46818,20.76267 145.74315,23.48225 213.75011,-1.65678 19.52811,-7.21864 38.35114,-16.7297 54.67887,-29.64718 29.12625,-23.04288 49.6019,-57.32382 54.05936,-94.19445 4.45746,-36.87064 -7.74863,-75.83367 -33.89572,-102.2087"
       inkscape:connector-curvature="0"
       sodipodi:nodetypes="acacacsaaaaa" />
  </g>
</svg>
