<?xml version="1.0" encoding="UTF-8" standalone="no"?>
<!-- Created with Inkscape (http://www.inkscape.org/) -->

<svg
   xmlns:dc="http://purl.org/dc/elements/1.1/"
   xmlns:cc="http://creativecommons.org/ns#"
   xmlns:rdf="http://www.w3.org/1999/02/22-rdf-syntax-ns#"
   xmlns:svg="http://www.w3.org/2000/svg"
   xmlns="http://www.w3.org/2000/svg"
   xmlns:sodipodi="http://sodipodi.sourceforge.net/DTD/sodipodi-0.dtd"
   xmlns:inkscape="http://www.inkscape.org/namespaces/inkscape"
   width="512"
   height="512"
   id="svg2"
   version="1.1"
   inkscape:version="0.48.5 r10040"
   sodipodi:docname="player-left.svg"
   inkscape:export-filename="/Users/darabos/Documents/fragmented-space/images/player-left.png"
   inkscape:export-xdpi="5.6199999"
   inkscape:export-ydpi="5.6199999">
  <defs
     id="defs4">
    <inkscape:path-effect
       is_visible="true"
       id="path-effect3855"
       effect="spiro" />
    <inkscape:path-effect
       effect="spiro"
       id="path-effect3847"
       is_visible="true" />
    <inkscape:path-effect
       is_visible="true"
       id="path-effect3843"
       effect="spiro" />
    <inkscape:path-effect
       is_visible="true"
       id="path-effect3841"
       effect="spiro" />
    <inkscape:path-effect
       is_visible="true"
       id="path-effect3839"
       effect="spiro" />
    <inkscape:path-effect
       effect="spiro"
       id="path-effect3834"
       is_visible="true" />
    <inkscape:path-effect
       effect="spiro"
       id="path-effect3830"
       is_visible="true" />
    <inkscape:path-effect
       effect="spiro"
       id="path-effect3821"
       is_visible="true" />
    <inkscape:path-effect
       effect="spiro"
       id="path-effect3813"
       is_visible="true" />
    <inkscape:path-effect
       is_visible="true"
       id="path-effect3809"
       effect="spiro" />
    <inkscape:path-effect
       effect="spiro"
       id="path-effect3023"
       is_visible="true" />
    <inkscape:path-effect
       effect="spiro"
       id="path-effect3019"
       is_visible="true" />
    <inkscape:path-effect
       effect="spiro"
       id="path-effect3015"
       is_visible="true" />
    <inkscape:path-effect
       effect="spiro"
       id="path-effect2999"
       is_visible="true" />
    <inkscape:path-effect
       effect="spiro"
       id="path-effect2995"
       is_visible="true" />
    <inkscape:path-effect
       effect="spiro"
       id="path-effect2991"
       is_visible="true" />
    <inkscape:path-effect
       effect="spiro"
       id="path-effect2987"
       is_visible="true" />
  </defs>
  <sodipodi:namedview
     id="base"
     pagecolor="#ffffff"
     bordercolor="#666666"
     borderopacity="1.0"
     inkscape:pageopacity="0.0"
     inkscape:pageshadow="2"
     inkscape:zoom="0.93"
     inkscape:cx="273.22535"
     inkscape:cy="249.66622"
     inkscape:document-units="px"
     inkscape:current-layer="layer1"
     showgrid="false"
     fit-margin-top="0"
     fit-margin-left="0"
     fit-margin-right="0"
     fit-margin-bottom="0"
     inkscape:window-width="1249"
     inkscape:window-height="718"
     inkscape:window-x="4"
     inkscape:window-y="0"
     inkscape:window-maximized="0" />
  <metadata
     id="metadata7">
    <rdf:RDF>
      <cc:Work
         rdf:about="">
        <dc:format>image/svg+xml</dc:format>
        <dc:type
           rdf:resource="http://purl.org/dc/dcmitype/StillImage" />
        <dc:title></dc:title>
      </cc:Work>
    </rdf:RDF>
  </metadata>
  <g
     inkscape:label="Layer 1"
     inkscape:groupmode="layer"
     id="layer1"
     transform="translate(-136.60863,-227.00786)">
    <path
       style="opacity:0.25;fill:#000080;stroke:none"
       inkscape:path-effect="#path-effect3821"
       inkscape:original-d="m 239.66284,702.98138 c 33.17294,2.80818 67.57315,7.15928 99.87056,-0.91583 11.45515,-2.86406 19.92473,-13.6292 31.40668,-16.38386 27.09627,-6.50072 55.77544,-0.82735 83.59137,0.82826 21.21856,1.26293 42.82956,12.3302 63.38996,6.93647 11.01054,-2.88847 29.40631,-8.63813 27.75163,-19.90033 -1.73324,-11.79691 -22.24665,-8.80204 -33.8366,-11.60283 -14.69521,-3.55121 -29.79863,-5.53779 -44.886,-6.50313 -25.53823,-1.63403 -51.17879,0.6025 -76.76143,1.23494 -15.67953,0.38762 -31.35537,2.2046 -47.02679,1.56873 -29.47733,-1.19604 -58.48907,-12.06354 -87.92573,-10.10738 -18.81769,1.2505 -45.9236,-2.76658 -54.85821,13.84191 -6.05851,11.26212 2.93884,27.91419 12.66889,36.21279 6.85868,5.84966 17.63336,4.02988 26.61567,4.79026 z"
       id="path3819"
       d="m 239.66284,702.98138 c 16.80256,1.14351 33.42213,4.27257 50.22366,5.4312 16.80152,1.15863 34.14867,0.24377 49.6469,-6.34703 10.87388,-4.62424 20.47911,-11.88798 31.40668,-16.38386 13.08113,-5.38191 27.56921,-6.57217 41.68448,-5.65557 14.11526,0.91661 28.00737,3.86006 41.90689,6.48383 20.92271,3.94952 42.09937,7.19939 63.38996,6.93647 6.5512,-0.0809 13.35434,-0.56549 19.08406,-3.74277 2.86486,-1.58864 5.39625,-3.85392 7.03309,-6.69152 1.63683,-2.8376 2.33097,-6.26509 1.63448,-9.46604 -0.69394,-3.18922 -2.72755,-6.00087 -5.33388,-7.96547 -2.60634,-1.96461 -5.75448,-3.12626 -8.96617,-3.70744 -6.42336,-1.16234 -13.01068,-0.0839 -19.53655,0.0701 -15.14266,0.35717 -29.9051,-4.26699 -44.886,-6.50313 -25.36989,-3.78685 -51.18382,-0.70343 -76.76143,1.23494 -15.64599,1.18572 -31.34035,1.94069 -47.02679,1.56873 -29.51786,-0.69992 -58.78043,-5.38027 -87.92573,-10.10738 -9.97546,-1.61793 -20.14403,-3.24516 -30.13778,-1.74435 -4.99688,0.75041 -9.90883,2.29784 -14.24954,4.88436 -4.34072,2.58653 -8.09509,6.24236 -10.47089,10.7019 -3.3518,6.29157 -3.76045,14.02307 -1.32662,20.72344 2.43384,6.70036 7.61689,12.30633 13.99551,15.48935 8.12473,4.05435 17.55649,4.17373 26.61567,4.79026"
       inkscape:connector-curvature="0"
       sodipodi:nodetypes="aaaaaaaaaaaaaa" />
    <path
       style="fill:#d5e5ff;stroke:#000000;stroke-width:30.29999924;stroke-linecap:butt;stroke-linejoin:round;stroke-miterlimit:4;stroke-opacity:1;stroke-dasharray:none"
       inkscape:path-effect="#path-effect3839"
       inkscape:original-d="m 461.12055,550.86244 c -4.03167,17.64733 10.31512,24.47295 21.42049,25.8489 13.9547,1.72899 20.56292,-28.97604 34.02959,-24.9298 25.04373,7.52471 39.68611,50.56015 27.25103,73.56404 -5.55251,10.27171 -22.50841,6.87422 -34.14715,7.81149 -11.32528,0.91204 -22.93633,0.33234 -34.01568,-2.18597 -16.5191,-3.75474 -34.99307,-7.17845 -47.14254,-18.98391 -13.54139,-13.15797 -18.80103,-33.4313 -22.6589,-51.91422 -0.89615,-4.29344 -0.11356,-9.02091 0,-13.15789 z"
       id="path3033"
       d="m 461.12055,550.86244 c -1.05802,3.16972 -1.29447,6.60984 -0.68007,9.89451 0.61439,3.28467 2.07829,6.40674 4.21048,8.97973 2.1322,2.57299 4.92803,4.59131 8.04143,5.8051 3.1134,1.2138 6.53757,1.62043 9.84865,1.16956 3.53735,-0.48168 6.8978,-1.92103 9.90935,-3.83816 3.01155,-1.91714 5.69574,-4.30574 8.23843,-6.81164 5.08539,-5.01181 9.75606,-10.61195 15.88181,-14.28 8.95995,-5.36515 20.52756,-5.89361 30.1258,-1.77788 9.59824,4.11574 17.0919,12.65571 20.36633,22.57254 3.27442,9.91684 2.40303,21.04819 -1.95102,30.5407 -4.35406,9.49251 -12.07352,17.31741 -21.29008,22.22868 -10.39521,5.53935 -22.37557,7.39361 -34.14715,7.81149 -11.37164,0.40368 -22.7696,-0.45312 -34.01568,-2.18597 -16.97976,-2.61633 -34.29729,-7.57527 -47.14254,-18.98391 -7.24361,-6.43348 -12.75908,-14.70014 -16.45638,-23.655 -3.69729,-8.95487 -5.61187,-18.58913 -6.20252,-28.25922 -0.26756,-4.38052 -0.26756,-8.77737 0,-13.15789 l 55.26316,3.94736"
       inkscape:connector-curvature="0"
       sodipodi:nodetypes="caaaaaaacc" />
    <path
       style="fill:#d5e5ff;stroke:#000000;stroke-width:30.29999924;stroke-linecap:butt;stroke-linejoin:round;stroke-miterlimit:4;stroke-opacity:1;stroke-dasharray:none"
       inkscape:path-effect="#path-effect3841"
       inkscape:original-d="m 303.22581,550.86246 c -16.08456,11.17785 -14.49337,38.551 -27.16551,54.35093 -8.97893,11.19514 -28.99999,13.49405 -33.41368,27.14951 -4.19834,12.98915 -0.84949,32.19489 10.65559,39.5418 12.24842,7.82158 29.64839,-1.59238 42.96265,-7.41745 13.37165,-5.85018 27.00082,-14.26804 34.75473,-26.63341 10.17889,-16.23256 10.09944,-37.19595 11.6019,-56.29695 0.69988,-8.89774 -4.14345,-23.35368 -1.23779,-26.74705 z"
       id="path3031"
       d="m 303.22581,550.86246 c -0.3214,20.94566 -10.60558,41.52156 -27.16551,54.35093 -5.72262,4.43345 -12.09171,7.95144 -18.06866,12.03554 -5.97696,4.0841 -11.67927,8.87169 -15.34502,15.11397 -3.88537,6.61627 -5.22442,14.75359 -3.33516,22.19011 1.88925,7.43652 7.0693,14.04039 13.99075,17.35169 6.81451,3.26014 14.83449,3.25187 22.1679,1.4388 7.3334,-1.81308 14.12644,-5.30665 20.79475,-8.85625 13.00926,-6.92494 26.28829,-14.57044 34.75473,-26.63341 5.60194,-7.98163 8.75128,-17.4861 10.29382,-27.11463 1.54254,-9.62854 1.54441,-19.43387 1.30808,-29.18232 -0.21632,-8.92332 -0.62905,-17.84189 -1.23779,-26.74705 l -38.15789,-3.94738"
       inkscape:connector-curvature="0"
       sodipodi:nodetypes="caaaaaacc" />
    <path
       style="fill:#ffffff;stroke:#000000;stroke-width:30.29999924;stroke-linecap:butt;stroke-linejoin:round;stroke-miterlimit:4;stroke-opacity:1;stroke-dasharray:none"
       inkscape:path-effect="#path-effect3023"
       inkscape:original-d="m 241.2199,473.08916 c -0.11748,20.37927 -6.10418,45.34082 7.28734,60.70297 15.87417,18.21014 46.21683,14.77784 70.10536,18.37458 12.88432,1.9399 26.03032,1.24746 39.05324,1.66264 27.90351,0.88958 55.84174,2.96005 83.73425,1.77475 27.31671,-1.16083 60.18141,8.35202 81.56256,-8.689 11.6059,-9.25004 12.4371,-27.40451 14.47369,-42.10527 2.65466,-19.16222 1.71944,-39.24549 -3.23534,-57.94544 -4.40078,-16.60909 -9.75223,-35.18022 -22.98767,-46.13704 -14.85448,-12.29712 -36.53525,-13.42609 -55.68744,-15.67741 -21.46979,-2.52375 -43.18416,2.33668 -64.79993,2.61926 -31.14552,0.40717 -64.12998,-11.8876 -93.43505,-1.33193 -18.46488,6.65104 -34.61692,21.41904 -44.81521,38.18754 -8.63475,14.19765 -11.15662,31.35918 -11.2558,48.56435 z"
       id="path3029"
       d="m 241.2199,473.08916 c -1.40692,10.40372 -3.05243,20.85567 -2.56935,31.34297 0.48308,10.4873 3.27642,21.17973 9.85669,29.36 3.92515,4.87955 9.07447,8.70416 14.69975,11.45605 5.62529,2.75189 11.72326,4.45662 17.90359,5.46671 12.36066,2.02018 24.97832,1.29678 37.50202,1.45182 13.02931,0.1613 26.02857,1.27947 39.05324,1.66264 27.9253,0.82152 56.01766,-1.73063 83.73425,1.77475 14.13384,1.78754 28.13349,5.14672 42.37976,5.21347 7.12314,0.0334 14.29459,-0.7729 21.07169,-2.96634 6.77709,-2.19344 13.15927,-5.81563 18.11111,-10.93613 5.26902,-5.44848 8.7698,-12.4254 10.92348,-19.69247 2.15368,-7.26706 3.02145,-14.85178 3.55021,-22.4128 1.35352,-19.35488 0.53199,-38.91256 -3.23534,-57.94544 -1.69982,-8.58761 -4.01134,-17.09999 -7.66518,-25.05524 -3.65383,-7.95524 -8.69565,-15.36154 -15.32249,-21.0818 -7.46341,-6.44237 -16.73281,-10.56626 -26.31739,-12.87764 -9.58457,-2.31139 -19.51103,-2.87922 -29.37005,-2.79977 -21.6252,0.17426 -43.18863,3.41381 -64.79993,2.61926 -15.67202,-0.57619 -31.18461,-3.26825 -46.80748,-4.63579 -15.62287,-1.36754 -31.65631,-1.36579 -46.62757,3.30386 -19.26865,6.01005 -36.02592,20.01751 -44.81521,38.18754 -7.26929,15.02773 -9.01865,32.02136 -11.2558,48.56435"
       inkscape:connector-curvature="0"
       sodipodi:nodetypes="aaaaaaaaaaaaaa" />
    <path
       sodipodi:nodetypes="aaaa"
       inkscape:connector-curvature="0"
       d="m 323.58381,461.33531 c 2.30847,2.15575 4.05942,4.90357 5.03822,7.9066 0.97879,3.00304 1.18333,6.25489 0.58855,9.3569 -0.59478,3.10202 -1.98762,6.04759 -4.00776,8.47561 -2.02015,2.42802 -4.66329,4.33331 -7.60541,5.48231 -4.25686,1.66245 -9.12639,1.69816 -13.40717,0.0983 -4.28079,-1.59983 -7.93335,-4.82045 -10.05652,-8.86727 -2.12317,-4.04682 -2.69736,-8.88251 -1.58092,-13.314 1.11644,-4.4315 3.91322,-8.41792 7.70032,-10.97575 3.48954,-2.35685 7.78859,-3.49 11.98649,-3.15942 4.19789,0.33058 8.26659,2.12268 11.3442,4.99669"
       id="path3811"
       inkscape:original-d="m 323.58381,461.33531 c 6.42466,8.42699 4.49624,29.67071 -5.9864,31.22142 -12.31014,1.82106 -24.19624,-22.67089 -17.34429,-33.05869 4.29536,-6.51192 18.60105,-4.36642 23.33069,1.83727 z"
       inkscape:path-effect="#path-effect3813"
       style="fill:none;stroke:#000000;stroke-width:20.29999924;stroke-linecap:butt;stroke-linejoin:round;stroke-miterlimit:4;stroke-opacity:1;stroke-dasharray:none" />
    <path
       style="fill:#ffeeaa;stroke:#000000;stroke-width:30.29999924;stroke-linecap:butt;stroke-linejoin:round;stroke-miterlimit:4;stroke-opacity:1;stroke-dasharray:none"
       inkscape:path-effect="#path-effect3843"
       inkscape:original-d="m 198.39546,419.02972 c -12.89665,-7.16109 -23.90152,-21.98599 -24.70667,-36.71543 -0.83261,-15.2318 12.36167,-28.13494 21.25863,-40.52627 13.72421,-19.11453 29.36084,-37.72508 48.75119,-51.05676 17.63649,-12.12582 38.57975,-19.17207 59.23611,-24.77536 29.1296,-7.90175 59.5867,-13.39696 89.73958,-12.0645 24.49919,1.08262 48.96915,7.15385 71.76447,16.19573 20.60484,8.17301 38.95054,21.31963 57.26595,33.80574 14.7337,10.04436 29.47684,20.39728 42.14788,32.94382 13.88572,13.7493 27.42069,28.55538 36.55618,45.82962 10.35091,19.57249 15.11151,41.78363 19.60472,63.46392 3.97443,19.17714 16.66903,41.72982 6.39728,58.40463 -5.0116,8.13566 -17.29976,9.87123 -26.85378,10.03093 -17.37004,0.29036 -32.81907,-11.42603 -49.40469,-16.59508 -23.5816,-7.34941 -48.80735,-10.09081 -71.2115,-20.49078 -20.46294,-9.49887 -36.40778,-26.91126 -56.27531,-37.59966 -35.16723,-18.91939 -70.499,-46.08526 -110.43079,-46.44501 -24.44429,-0.22022 -44.01874,23.01501 -68.1016,27.2088 -15.0292,2.61719 -32.40042,5.79138 -45.73765,-1.61434 z"
       id="path3021"
       d="m 198.39546,419.02972 c -7.09519,-3.27451 -13.43676,-8.29182 -17.91509,-14.69563 -4.47832,-6.40381 -7.03294,-14.20917 -6.79158,-22.0198 0.24025,-7.7749 3.18545,-15.26643 7.20465,-21.92622 4.0192,-6.65979 9.10063,-12.60245 14.05398,-18.60005 15.03574,-18.20553 29.4131,-37.50858 48.75119,-51.05676 17.62194,-12.34585 38.44467,-19.23742 59.23611,-24.77536 29.27669,-7.79805 59.46601,-13.26664 89.73958,-12.0645 24.6425,0.97853 49.12242,6.42087 71.76447,16.19573 20.3885,8.80197 39.12272,20.99994 57.26595,33.80574 14.57682,10.28857 28.86854,21.02756 42.14788,32.94382 14.6445,13.1413 28.23403,27.99995 36.55618,45.82962 9.37649,20.08853 11.56442,42.80427 19.60472,63.46392 3.74985,9.63528 8.77586,18.83526 11.19281,28.88804 1.20848,5.02639 1.74421,10.25805 1.0792,15.38472 -0.66501,5.12668 -2.57544,10.15196 -5.87473,14.13187 -3.16194,3.81422 -7.50984,6.55917 -12.19737,8.16331 -4.68752,1.60414 -9.7076,2.10318 -14.65641,1.86762 -8.72465,-0.41529 -17.19778,-3.06337 -25.29868,-6.32947 -8.1009,-3.2661 -15.93925,-7.16785 -24.10601,-10.26561 -23.11877,-8.76924 -48.40828,-10.93096 -71.2115,-20.49078 -20.88209,-8.75442 -38.72008,-23.29877 -56.27531,-37.59966 -15.99554,-13.03033 -32.18219,-26.12551 -50.60499,-35.41244 -18.42281,-9.28692 -39.50352,-14.58949 -59.8258,-11.03257 -12.07318,2.11312 -23.39219,7.23318 -34.40257,12.61823 -11.01037,5.38504 -21.94518,11.11579 -33.69903,14.59057 -14.95217,4.42029 -31.58072,4.91925 -45.73765,-1.61434"
       inkscape:connector-curvature="0"
       sodipodi:nodetypes="aaaaaaaaaaaaaaaaaaa" />
    <path
       id="path3832"
       style="opacity:0.25;fill:#000080;stroke:none"
       inkscape:path-effect="#path-effect3834"
       inkscape:original-d="m 409.67742,555.58799 c -1.26247,2.07144 1.34444,4.66802 2.21521,6.93219 1.27074,3.30414 2.71507,6.55075 4.37897,9.67542 2.57114,4.82842 5.79894,9.27786 8.62835,13.95962 1.72609,2.85612 2.926,6.08121 5.09225,8.61974 1.28077,1.50088 3.24755,2.30098 4.5594,3.77477 2.56935,2.88652 4.16142,6.51347 6.30862,9.72643 1.8972,2.83887 3.90573,5.6022 5.80804,8.43765 3.13795,4.67722 4.68366,10.83986 9.24572,14.143 3.87408,2.80501 9.50976,5.69669 13.8608,3.71048 7.91464,-3.61295 9.59112,-14.96466 11.41773,-23.47104 1.13866,-5.30263 0.77884,-10.98876 -0.48338,-16.26335 -0.5991,-2.50352 -2.24178,-4.63563 -3.28977,-6.98685 -1.50409,-3.37451 -2.11727,-7.23502 -4.30108,-10.21505 -2.78055,-3.79434 -6.67811,-6.78899 -10.75269,-9.13979 -5.41165,-3.12221 -11.85598,-3.96789 -17.65713,-6.28756 -4.2178,-1.68654 -8.24515,-3.82277 -12.45039,-5.54039 -2.96791,-1.21224 -5.82043,-3.05556 -9.0119,-3.35975 -4.56588,-0.43519 -11.18178,-1.63203 -13.56875,2.28448 z m -105.37634,0 c 4.6176,5.0583 -0.79843,13.6969 -1.86779,20.46189 -0.74565,4.71716 -2.72843,9.21793 -3.16185,13.97395 -0.52867,5.80117 -0.36627,11.7366 0.71211,17.46112 1.34226,7.12528 2.91715,14.63161 7.08215,20.56659 2.11627,3.01561 5.19022,5.55154 8.60364,6.93758 4.14489,1.68306 9.34571,3.21248 13.36292,1.24403 4.19654,-2.05632 6.00357,-7.40994 7.52688,-11.82796 4.10482,-11.90515 3.53987,-25.00776 3.67121,-37.60002 0.0854,-8.18847 0.32255,-16.60691 -1.87679,-24.49495 -0.99757,-3.57786 -1.91224,-7.91415 -5.02022,-9.94804 -5.40673,-3.53822 -12.99351,-2.20895 -19.35484,-1.07527 -3.21375,0.57274 -6.08442,2.39674 -8.98843,3.88769 -0.12469,0.064 -0.24038,0.14423 -0.36057,0.21634 -0.10947,0.0657 -0.3625,0.074 -0.32842,0.19705 z"
       d="m 409.67742,555.58799 c -0.26399,1.21409 9.6e-4,2.49055 0.47339,3.63969 0.47243,1.14914 1.14516,2.20268 1.74182,3.2925 1.70069,3.10639 2.7854,6.51274 4.37897,9.67542 2.46309,4.88837 6.09555,9.10701 8.62835,13.95962 1.55143,2.9724 2.73115,6.23913 5.09225,8.61974 1.3904,1.40189 3.1229,2.42016 4.5594,3.77477 2.82317,2.66222 4.30247,6.40482 6.30862,9.72643 1.76569,2.92347 3.97058,5.55874 5.80804,8.43765 3.04177,4.76581 5.13147,10.26509 9.24572,14.143 1.8275,1.72252 4.02852,3.07251 6.44054,3.77182 2.41202,0.6993 5.03666,0.72943 7.42026,-0.0613 2.19287,-0.7275 4.13251,-2.12827 5.65309,-3.86775 1.52058,-1.73948 2.63487,-3.80931 3.42533,-5.98028 1.58091,-4.34195 1.87946,-9.02515 2.33931,-13.62301 0.54442,-5.44337 1.31296,-11.09616 -0.48338,-16.26335 -0.84588,-2.43318 -2.22712,-4.64023 -3.28977,-6.98685 -1.52595,-3.36972 -2.40154,-7.04088 -4.30108,-10.21505 -2.45045,-4.09475 -6.45269,-7.07057 -10.75269,-9.13979 -5.6338,-2.71106 -11.8335,-4.01273 -17.65713,-6.28756 -4.23179,-1.65303 -8.24821,-3.81346 -12.45039,-5.54039 -2.9655,-1.2187 -6.0158,-2.21835 -9.0119,-3.35975 -2.45396,-0.93486 -4.96128,-1.98202 -7.5863,-1.91004 -1.3125,0.036 -2.63478,0.36666 -3.73677,1.08051 -1.10199,0.71386 -1.96671,1.83099 -2.24568,3.11401 m -105.37634,0 c 0.29008,6.86318 -0.33989,13.76466 -1.86779,20.46189 -1.0629,4.65901 -2.56026,9.23325 -3.16185,13.97395 -0.73561,5.79678 -0.11092,11.67611 0.71211,17.46112 1.03382,7.26663 2.52261,14.81478 7.08215,20.56659 2.30552,2.90839 5.31272,5.22179 8.60364,6.93758 2.0613,1.0747 4.26333,1.92957 6.56706,2.24066 2.30373,0.31108 4.72163,0.0529 6.79586,-0.99663 2.15091,-1.08834 3.82649,-2.96934 5.00794,-5.07055 1.18144,-2.10122 1.90539,-4.42622 2.51894,-6.75741 3.21406,-12.2118 3.59801,-24.97255 3.67121,-37.60002 0.0476,-8.20807 -0.0371,-16.49556 -1.87679,-24.49495 -0.42332,-1.84069 -0.94173,-3.66897 -1.73307,-5.38393 -0.79135,-1.71497 -1.86617,-3.31986 -3.28715,-4.56411 -2.54869,-2.2317 -6.05159,-3.14723 -9.439,-3.10533 -3.38742,0.0419 -6.70109,0.96155 -9.91584,2.03006 -3.10387,1.03165 -6.1765,2.21696 -8.98843,3.88769 -0.1205,0.0716 -0.24048,0.14406 -0.36057,0.21634 -0.10938,0.0658 -0.21886,0.13152 -0.32842,0.19705"
       inkscape:connector-curvature="0"
       sodipodi:nodetypes="aaaaaaaaaaaaaaaaaaaaaaaaaaaaaaaaaa" />
    <path
       sodipodi:nodetypes="cac"
       inkscape:connector-curvature="0"
       d="m 334.21732,436.85733 c -7.55113,2.8629 -15.55934,4.51639 -23.62685,4.87833 -9.00661,0.40408 -18.08323,-0.80499 -26.67001,-3.55261"
       id="path3853"
       inkscape:original-d="m 334.21732,436.85733 c -6.60677,3.4358 -15.5902,4.59216 -23.62685,4.87833 -8.96285,0.31915 -21.72755,-5.60602 -26.67001,-3.55261"
       inkscape:path-effect="#path-effect3855"
       style="fill:none;stroke:#000000;stroke-width:30;stroke-linecap:butt;stroke-linejoin:miter;stroke-miterlimit:4;stroke-opacity:1;stroke-dasharray:none" />
  </g>
</svg>
