<?xml version="1.0" encoding="UTF-8" standalone="no"?>
<!-- Created with Inkscape (http://www.inkscape.org/) -->

<svg
   xmlns:dc="http://purl.org/dc/elements/1.1/"
   xmlns:cc="http://creativecommons.org/ns#"
   xmlns:rdf="http://www.w3.org/1999/02/22-rdf-syntax-ns#"
   xmlns:svg="http://www.w3.org/2000/svg"
   xmlns="http://www.w3.org/2000/svg"
   xmlns:sodipodi="http://sodipodi.sourceforge.net/DTD/sodipodi-0.dtd"
   xmlns:inkscape="http://www.inkscape.org/namespaces/inkscape"
   width="512"
   height="512"
   id="svg2"
   version="1.1"
   inkscape:version="0.48.5 r10040"
   sodipodi:docname="corruption.svg"
   inkscape:export-filename="/Users/darabos/Documents/fragmented-space/images/corruption.png"
   inkscape:export-xdpi="5.6199999"
   inkscape:export-ydpi="5.6199999">
  <defs
     id="defs4">
    <inkscape:path-effect
       is_visible="true"
       id="path-effect5088"
       effect="spiro" />
    <inkscape:path-effect
       effect="spiro"
       id="path-effect5074"
       is_visible="true" />
    <inkscape:path-effect
       effect="spiro"
       id="path-effect5070"
       is_visible="true" />
    <inkscape:path-effect
       effect="spiro"
       id="path-effect5059"
       is_visible="true" />
    <inkscape:path-effect
       effect="spiro"
       id="path-effect5055"
       is_visible="true" />
    <inkscape:path-effect
       effect="spiro"
       id="path-effect5051"
       is_visible="true" />
    <inkscape:path-effect
       effect="spiro"
       id="path-effect5047"
       is_visible="true" />
    <inkscape:path-effect
       effect="spiro"
       id="path-effect5043"
       is_visible="true" />
    <inkscape:path-effect
       effect="spiro"
       id="path-effect5039"
       is_visible="true" />
    <inkscape:path-effect
       effect="spiro"
       id="path-effect5035"
       is_visible="true" />
    <inkscape:path-effect
       effect="spiro"
       id="path-effect5024"
       is_visible="true" />
    <inkscape:path-effect
       effect="spiro"
       id="path-effect5020"
       is_visible="true" />
    <inkscape:path-effect
       effect="spiro"
       id="path-effect5016"
       is_visible="true" />
    <inkscape:path-effect
       effect="spiro"
       id="path-effect5012"
       is_visible="true" />
    <inkscape:path-effect
       effect="spiro"
       id="path-effect5008"
       is_visible="true" />
    <inkscape:path-effect
       effect="spiro"
       id="path-effect5004"
       is_visible="true" />
    <inkscape:path-effect
       effect="spiro"
       id="path-effect5000"
       is_visible="true" />
    <inkscape:path-effect
       effect="spiro"
       id="path-effect4996"
       is_visible="true" />
    <inkscape:path-effect
       effect="spiro"
       id="path-effect4986"
       is_visible="true" />
    <inkscape:path-effect
       effect="spiro"
       id="path-effect4982"
       is_visible="true" />
    <inkscape:path-effect
       effect="spiro"
       id="path-effect4978"
       is_visible="true" />
    <inkscape:path-effect
       effect="spiro"
       id="path-effect4974"
       is_visible="true" />
    <inkscape:path-effect
       effect="spiro"
       id="path-effect4970"
       is_visible="true" />
    <inkscape:path-effect
       effect="spiro"
       id="path-effect4966"
       is_visible="true" />
    <inkscape:path-effect
       effect="spiro"
       id="path-effect4959"
       is_visible="true" />
    <inkscape:path-effect
       effect="spiro"
       id="path-effect4955"
       is_visible="true" />
    <inkscape:path-effect
       effect="spiro"
       id="path-effect4949"
       is_visible="true" />
    <inkscape:path-effect
       effect="spiro"
       id="path-effect4938"
       is_visible="true" />
    <inkscape:path-effect
       effect="spiro"
       id="path-effect4934"
       is_visible="true" />
    <inkscape:path-effect
       effect="spiro"
       id="path-effect4930"
       is_visible="true" />
    <inkscape:path-effect
       effect="spiro"
       id="path-effect4926"
       is_visible="true" />
    <inkscape:path-effect
       effect="spiro"
       id="path-effect4922"
       is_visible="true" />
    <inkscape:path-effect
       effect="spiro"
       id="path-effect4918"
       is_visible="true" />
    <inkscape:path-effect
       effect="spiro"
       id="path-effect4914"
       is_visible="true" />
    <inkscape:path-effect
       effect="spiro"
       id="path-effect4909"
       is_visible="true" />
    <inkscape:path-effect
       effect="spiro"
       id="path-effect4897"
       is_visible="true" />
    <inkscape:path-effect
       effect="spiro"
       id="path-effect4889"
       is_visible="true" />
    <inkscape:path-effect
       effect="spiro"
       id="path-effect4877"
       is_visible="true" />
    <inkscape:path-effect
       effect="spiro"
       id="path-effect4873"
       is_visible="true" />
    <inkscape:path-effect
       effect="spiro"
       id="path-effect4869"
       is_visible="true" />
    <inkscape:path-effect
       effect="spiro"
       id="path-effect4865"
       is_visible="true" />
    <inkscape:path-effect
       effect="spiro"
       id="path-effect4861"
       is_visible="true" />
    <inkscape:path-effect
       effect="spiro"
       id="path-effect4857"
       is_visible="true" />
    <inkscape:path-effect
       effect="spiro"
       id="path-effect4853"
       is_visible="true" />
    <inkscape:path-effect
       effect="spiro"
       id="path-effect4779"
       is_visible="true" />
    <inkscape:path-effect
       effect="spiro"
       id="path-effect4775"
       is_visible="true" />
    <inkscape:path-effect
       is_visible="true"
       id="path-effect4769"
       effect="spiro" />
    <inkscape:path-effect
       effect="spiro"
       id="path-effect4764"
       is_visible="true" />
    <inkscape:path-effect
       effect="spiro"
       id="path-effect4718"
       is_visible="true" />
    <inkscape:path-effect
       effect="spiro"
       id="path-effect4714"
       is_visible="true" />
    <inkscape:path-effect
       effect="spiro"
       id="path-effect4198"
       is_visible="true" />
    <inkscape:path-effect
       effect="spiro"
       id="path-effect4194"
       is_visible="true" />
    <inkscape:path-effect
       is_visible="true"
       id="path-effect4190"
       effect="spiro" />
    <inkscape:path-effect
       is_visible="true"
       id="path-effect3855"
       effect="spiro" />
    <inkscape:path-effect
       effect="spiro"
       id="path-effect3847"
       is_visible="true" />
    <inkscape:path-effect
       is_visible="true"
       id="path-effect3843"
       effect="spiro" />
    <inkscape:path-effect
       is_visible="true"
       id="path-effect3841"
       effect="spiro" />
    <inkscape:path-effect
       is_visible="true"
       id="path-effect3839"
       effect="spiro" />
    <inkscape:path-effect
       effect="spiro"
       id="path-effect3834"
       is_visible="true" />
    <inkscape:path-effect
       effect="spiro"
       id="path-effect3830"
       is_visible="true" />
    <inkscape:path-effect
       effect="spiro"
       id="path-effect3821"
       is_visible="true" />
    <inkscape:path-effect
       effect="spiro"
       id="path-effect3813"
       is_visible="true" />
    <inkscape:path-effect
       is_visible="true"
       id="path-effect3809"
       effect="spiro" />
    <inkscape:path-effect
       effect="spiro"
       id="path-effect3023"
       is_visible="true" />
    <inkscape:path-effect
       effect="spiro"
       id="path-effect3019"
       is_visible="true" />
    <inkscape:path-effect
       effect="spiro"
       id="path-effect3015"
       is_visible="true" />
    <inkscape:path-effect
       effect="spiro"
       id="path-effect2999"
       is_visible="true" />
    <inkscape:path-effect
       effect="spiro"
       id="path-effect2995"
       is_visible="true" />
    <inkscape:path-effect
       effect="spiro"
       id="path-effect2991"
       is_visible="true" />
    <inkscape:path-effect
       effect="spiro"
       id="path-effect2987"
       is_visible="true" />
  </defs>
  <sodipodi:namedview
     id="base"
     pagecolor="#ffffff"
     bordercolor="#666666"
     borderopacity="1.0"
     inkscape:pageopacity="0.0"
     inkscape:pageshadow="2"
     inkscape:zoom="0.93"
     inkscape:cx="249.07849"
     inkscape:cy="249.66622"
     inkscape:document-units="px"
     inkscape:current-layer="layer1"
     showgrid="false"
     fit-margin-top="0"
     fit-margin-left="0"
     fit-margin-right="0"
     fit-margin-bottom="0"
     inkscape:window-width="1249"
     inkscape:window-height="718"
     inkscape:window-x="15"
     inkscape:window-y="0"
     inkscape:window-maximized="0" />
  <metadata
     id="metadata7">
    <rdf:RDF>
      <cc:Work
         rdf:about="">
        <dc:format>image/svg+xml</dc:format>
        <dc:type
           rdf:resource="http://purl.org/dc/dcmitype/StillImage" />
        <dc:title></dc:title>
      </cc:Work>
    </rdf:RDF>
  </metadata>
  <g
     inkscape:label="Layer 1"
     inkscape:groupmode="layer"
     id="layer1"
     transform="translate(-136.60863,-227.00786)">
    <path
       style="opacity:0.25;fill:#000080;stroke:none"
       inkscape:path-effect="#path-effect5074"
       inkscape:original-d="m 421.12476,687.39496 c -20.24003,0.0508 -40.24802,4.33985 -60.39787,6.24896 -21.5679,2.04346 -44.47738,-2.05733 -64.7542,5.5716 -7.16935,2.69739 -17.34238,6.04093 -18.51576,13.61052 -1.21984,7.8693 6.74557,16.16865 14.06179,19.31296 9.07544,3.90037 19.59038,-2.55398 29.38554,-3.83124 13.82233,-1.80239 27.53841,-4.85735 41.46688,-5.40793 13.95993,-0.55182 27.88936,1.91929 41.85871,2.12268 14.0016,0.20386 28.29047,1.94936 41.99951,-0.90521 7.67504,-1.59814 16.68669,-2.94517 21.76153,-8.92064 4.72492,-5.56345 9.04248,-15.31846 4.91508,-21.33854 -5.79146,-8.44721 -20.2467,-3.1322 -30.41464,-4.36076 -7.10491,-0.85846 -14.21001,-2.12035 -21.36657,-2.1024 z"
       id="path5072"
       d="m 421.12476,687.39496 c -20.19784,-1.99316 -40.22523,4.01513 -60.39787,6.24896 -21.56377,2.38787 -43.66375,0.48328 -64.7542,5.5716 -3.91737,0.94511 -7.8327,2.15274 -11.23188,4.31713 -3.39919,2.16438 -6.26593,5.39431 -7.28388,9.29339 -0.56032,2.1462 -0.543,4.43177 -0.0175,6.58676 0.52552,2.15499 1.55278,4.17835 2.92808,5.91867 2.7506,3.48062 6.83976,5.76254 11.1512,6.80753 4.85687,1.17719 9.96857,0.86648 14.87813,-0.0669 4.90955,-0.93339 9.67935,-2.47406 14.50741,-3.76434 13.50204,-3.60838 27.49179,-5.25834 41.46688,-5.40793 13.97425,-0.14959 27.91491,1.18859 41.85871,2.12268 14.00558,0.93823 28.16362,1.46221 41.99951,-0.90521 7.82488,-1.33889 15.74996,-3.73582 21.76153,-8.92064 3.03638,-2.6188 5.53827,-5.97494 6.62413,-9.83482 0.54293,-1.92993 0.72414,-3.96871 0.45455,-5.95535 -0.26959,-1.98664 -0.99583,-3.91873 -2.1636,-5.54837 -1.56849,-2.18885 -3.89108,-3.77376 -6.41371,-4.71588 -2.52262,-0.94211 -5.24231,-1.27021 -7.93509,-1.25679 -5.38555,0.0268 -10.68501,1.3847 -16.06584,1.61191 -7.15961,0.30233 -14.23522,-1.39866 -21.36657,-2.1024"
       inkscape:connector-curvature="0"
       sodipodi:nodetypes="aaaaaaaaaaaaa" />
    <path
       style="fill:#d5f6ff;stroke:#000000;stroke-width:30;stroke-linecap:butt;stroke-linejoin:round;stroke-miterlimit:4;stroke-opacity:1;stroke-dasharray:none"
       inkscape:path-effect="#path-effect5035"
       inkscape:original-d="m 246.86179,352.37706 c -12.4358,15.27286 -9.7048,39.97154 -4.35238,58.92571 8.41057,29.78382 40.42875,47.65419 54.26127,75.33947 17.80145,35.62892 21.85539,76.67719 35.60026,114.05887 9.05547,24.62798 12.47501,53.66944 30.81108,72.43983 5.13307,5.25466 12.96284,10.94826 20.07165,9.09767 22.17412,-5.77243 27.70936,-36.51504 40.82416,-55.30373 24.21596,-34.69259 52.04633,-67.59307 69.86453,-105.96624 15.17173,-32.67375 24.50222,-68.15282 30.54502,-103.66676 3.74716,-22.02235 17.52341,-49.6352 3.38554,-66.93103 -12.66852,-15.49827 -39.41341,-7.53199 -59.3798,-8.95717 -34.02979,-2.42901 -68.24121,-0.13396 -102.34646,0.73694 -32.88701,0.83979 -66.12508,-0.94081 -98.59827,4.32727 -7.0779,1.14824 -16.15915,0.33884 -20.6866,5.89917 z"
       id="path5033"
       d="m 246.86179,352.37706 c -4.58564,2.91572 -8.17846,7.28174 -10.4659,12.21096 -2.28743,4.92921 -3.29959,10.40308 -3.26807,15.83709 0.063,10.86803 4.19657,21.32603 9.38159,30.87766 14.78189,27.23056 38.14948,48.87406 54.26127,75.33947 20.83613,34.22567 28.49483,74.6247 35.60026,114.05887 2.37469,13.17923 4.74843,26.43602 9.29098,39.03351 4.54256,12.59748 11.40913,24.62568 21.5201,33.40632 5.65578,4.91163 12.58562,8.83059 20.07165,9.09767 6.18903,0.22081 12.31599,-2.11775 17.24614,-5.86561 4.93015,-3.74786 8.72784,-8.83498 11.59466,-14.32443 5.73364,-10.97892 7.84547,-23.4394 11.98336,-35.11369 7.09471,-20.01642 20.00991,-37.38169 33.24681,-53.98821 13.2369,-16.60652 27.10894,-32.98921 36.61772,-51.97803 16.162,-32.27515 18.55803,-69.61963 30.54502,-103.66676 3.91092,-11.10836 8.87076,-21.96097 10.80407,-33.57791 0.96666,-5.80847 1.15415,-11.7896 0.0427,-17.57212 -1.1114,-5.78252 -3.56382,-11.36709 -7.46128,-15.781 -3.46198,-3.92073 -7.98499,-6.83347 -12.85857,-8.7323 -4.87359,-1.89884 -10.0947,-2.81009 -15.31856,-3.07218 -10.44772,-0.52419 -20.82879,1.5011 -31.20267,2.84731 -33.87278,4.39564 -68.1998,1.56929 -102.34646,0.73694 -32.91817,-0.8024 -65.92228,0.26159 -98.59827,4.32727 -7.17718,0.89301 -14.58335,2.01849 -20.6866,5.89917"
       inkscape:connector-curvature="0"
       sodipodi:nodetypes="aaaaaaaaaaaaaa" />
    <path
       style="fill:#ffffff;stroke:#000000;stroke-width:30;stroke-linecap:butt;stroke-linejoin:round;stroke-miterlimit:4;stroke-opacity:1;stroke-dasharray:none"
       inkscape:path-effect="#path-effect5051"
       inkscape:original-d="m 396.896,449.28959 c 2.8823,22.12319 47.36962,26.74137 65.50383,13.74546 13.27194,-9.51136 19.14953,-39.11583 5.87992,-48.63043 -12.93545,-9.27501 -28.77206,13.62511 -43.05936,20.64116 -9.48601,4.65828 -29.6897,3.7643 -28.32439,14.24381 z"
       id="path5049"
       d="m 396.896,449.28959 c -2.64275,3.33888 -4.04467,7.6059 -4.06167,11.86406 -0.017,4.25817 1.32482,8.48832 3.65517,12.05227 2.33035,3.56394 5.62719,6.46443 9.38215,8.47255 3.75496,2.00812 7.95785,3.13486 12.20473,3.4452 8.49374,0.62066 16.99443,-2.00724 24.4022,-6.20891 7.40776,-4.20168 13.83683,-9.92079 19.92125,-15.87971 6.96404,-6.8204 13.80199,-14.44676 16.17641,-23.90075 1.18722,-4.72699 1.16276,-9.8264 -0.55576,-14.38717 -1.71852,-4.56077 -5.22004,-8.52116 -9.74073,-10.34251 -3.867,-1.55798 -8.26306,-1.49781 -12.27768,-0.37359 -4.01461,1.12423 -7.68406,3.25666 -11.03678,5.73461 -6.70544,4.95592 -12.37064,11.38856 -19.7449,15.28014 -4.7312,2.49678 -9.96943,3.83808 -14.98849,5.68936 -5.01906,1.85128 -10.01579,4.3598 -13.3359,8.55445"
       inkscape:connector-curvature="0"
       sodipodi:nodetypes="aaaaa" />
    <path
       style="fill:#00aad4;stroke:#000000;stroke-width:30;stroke-linecap:butt;stroke-linejoin:round;stroke-miterlimit:4;stroke-opacity:1;stroke-dasharray:none"
       inkscape:path-effect="#path-effect5055"
       inkscape:original-d="m 340.58168,564.30737 c 49.5544,-29.35256 104.97968,-48.81277 152.20814,-81.77767 8.62264,-6.0185 14.11739,-25.4873 23.59694,-20.93644 19.58191,9.40069 8.38151,46.74588 -3.26242,65.08281 -29.56365,46.55696 -92.82621,63.25806 -146.03219,77.77302 -11.31738,3.08746 -24.17081,5.62837 -35.15992,1.52289 -9.70383,-3.62531 -23.50123,-11.05643 -22.56057,-21.37255 1.12681,-12.35766 20.5335,-13.96804 31.21002,-20.29206 z"
       id="path5053"
       d="m 340.58168,564.30737 c 29.26662,-4.48559 58.2339,-12.22312 84.73248,-25.43221 26.49859,-13.2091 50.50628,-32.08241 67.47566,-56.34546 3.10824,-4.4442 5.99711,-9.08399 9.73641,-13.01206 3.7393,-3.92806 8.49166,-7.15804 13.86053,-7.92438 3.6633,-0.52289 7.46761,0.14404 10.79607,1.76099 3.32847,1.61694 6.17966,4.1643 8.27448,7.21469 4.18963,6.1008 5.22927,14.02886 3.7568,21.28176 -1.47246,7.25289 -5.27601,13.87505 -10.00752,19.56587 -4.73151,5.69082 -10.38669,10.5337 -16.08225,15.2595 -42.89052,35.58773 -91.36735,66.91768 -146.03219,77.77302 -11.57634,2.29883 -23.55114,3.65187 -35.15992,1.52289 -5.59008,-1.02518 -11.16067,-2.92343 -15.54507,-6.53964 -2.1922,-1.80811 -4.05831,-4.03448 -5.31932,-6.58102 -1.26101,-2.54654 -1.90343,-5.41781 -1.69618,-8.25189 0.24563,-3.35884 1.68021,-6.57676 3.79843,-9.19501 2.11823,-2.61825 4.89595,-4.65766 7.90785,-6.1645 6.02379,-3.01369 12.84588,-3.91212 19.50374,-4.93255"
       inkscape:connector-curvature="0"
       sodipodi:nodetypes="aaaaaaaa" />
    <path
       style="fill:#00aad4;stroke:#000000;stroke-width:30;stroke-linecap:butt;stroke-linejoin:round;stroke-miterlimit:4;stroke-opacity:1;stroke-dasharray:none"
       inkscape:path-effect="#path-effect5059"
       inkscape:original-d="m 250.41614,384.27952 c -11.97666,15.64814 -25.93562,45.40288 -10.87281,58.10787 16.43083,13.85888 42.09082,-11.24457 60.47812,-22.37778 15.11645,-9.15277 37.18412,-17.99199 39.34577,-35.53074 1.59848,-12.9694 -9.23423,-29.12653 -21.84472,-32.5523 -23.96419,-6.51012 -52.01342,12.63323 -67.10636,32.35295 z"
       id="path5057"
       d="m 250.41614,384.27952 c -7.5292,8.25828 -15.12741,16.97657 -18.48851,27.63448 -1.68055,5.32896 -2.22574,11.08119 -1.04372,16.5424 1.18201,5.46122 4.17035,10.60379 8.65942,13.93099 4.66547,3.45794 10.70311,4.78528 16.49214,4.32576 5.78902,-0.45953 11.34853,-2.60262 16.37347,-5.51361 10.04989,-5.82199 18.04772,-14.60126 27.61251,-21.18993 7.50314,-5.1685 15.90085,-8.94042 23.35513,-14.17914 3.72714,-2.61936 7.22232,-5.61692 10.06312,-9.17817 2.8408,-3.56125 5.01498,-7.71026 5.92752,-12.17343 1.43716,-7.02906 -0.40707,-14.56876 -4.53998,-20.43324 -4.13292,-5.86449 -10.42975,-10.0678 -17.30474,-12.11906 -6.29116,-1.87706 -13.04236,-2.01138 -19.49329,-0.79172 -6.45093,1.21965 -12.61057,3.76563 -18.26605,7.09995 -11.31095,6.66863 -20.50061,16.34167 -29.34702,26.04472"
       inkscape:connector-curvature="0"
       sodipodi:nodetypes="aaaaaa" />
    <path
       style="fill:#ffffff;stroke:#000000;stroke-width:30;stroke-linecap:butt;stroke-linejoin:round;stroke-miterlimit:4;stroke-opacity:1;stroke-dasharray:none"
       inkscape:path-effect="#path-effect5039"
       inkscape:original-d="m 398.54484,365.82702 c 26.68314,-2.60904 52.38787,-11.451 78.69462,-16.62322 29.11767,-5.72488 86.85938,13.71976 87.58553,-15.94648 0.88455,-36.13758 -69.69049,-20.58815 -105.61316,-24.62163 -50.61669,-5.68336 -104.06702,-13.98011 -152.80205,0.82689 -38.37241,11.65856 -111.09328,27.75284 -100.33872,66.38836 6.74553,24.23317 50.45547,6.38974 75.39839,3.13406 15.72064,-2.05194 29.7318,-11.83246 45.42182,-14.10666 23.63958,-3.42646 47.88033,3.2732 71.65357,0.94868 z"
       id="path5037"
       d="m 398.54484,365.82702 c 13.37312,-1.39695 26.26841,-5.58756 39.16206,-9.40145 12.89365,-3.81389 26.0869,-7.30012 39.53256,-7.22177 16.07991,0.0937 31.78907,5.28381 47.86701,5.55222 8.03897,0.1342 16.22726,-1.01475 23.47809,-4.48873 7.25083,-3.47398 13.49947,-9.45152 16.24043,-17.00997 1.96189,-5.41008 2.05536,-11.43771 0.51377,-16.98221 -1.54159,-5.5445 -4.68031,-10.59993 -8.78295,-14.63556 -8.20529,-8.07125 -19.95773,-11.8456 -31.46454,-12.10081 -11.50682,-0.25521 -22.85771,2.72336 -33.68416,6.62976 -10.82644,3.9064 -21.3,8.75711 -32.19528,12.46719 -48.73858,16.59656 -102.02756,9.36191 -152.80205,0.82689 -12.94851,-2.1766 -25.94099,-4.43166 -39.06742,-4.74531 -13.12644,-0.31365 -26.50156,1.39037 -38.45528,6.8227 -11.95371,5.43234 -22.39835,14.87143 -27.34201,27.03538 -2.47183,6.08198 -3.53171,12.76348 -2.82077,19.28996 0.71094,6.52648 3.21877,12.88072 7.34676,17.98563 4.25192,5.25818 10.12943,9.09532 16.50449,11.35054 6.37505,2.25522 13.23457,2.97293 19.98623,2.59549 13.50331,-0.7549 26.36201,-5.76065 38.90767,-10.81197 14.74972,-5.93875 29.65077,-12.0826 45.42182,-14.10666 23.73236,-3.04582 47.85604,3.43456 71.65357,0.94868"
       inkscape:connector-curvature="0"
       sodipodi:nodetypes="aaaaaaaaa" />
    <path
       style="fill:#00aad4;stroke:#000000;stroke-width:30;stroke-linecap:butt;stroke-linejoin:round;stroke-miterlimit:4;stroke-opacity:1;stroke-dasharray:none"
       inkscape:path-effect="#path-effect5043"
       inkscape:original-d="m 391.6014,330.59022 c -6.41384,1.31171 -16.06789,3.2436 -19.50103,-2.33058 -5.21913,-8.47399 6.09622,-18.99157 10.1759,-28.06924 8.53947,-19.00117 9.89198,-48.78349 29.79451,-54.93623 13.47249,-4.16493 33.67428,5.78406 37.63679,19.31747 5.30618,18.12254 -15.10565,35.64348 -28.48839,48.9658 -8.0736,8.03716 -18.45674,14.77022 -29.61778,17.05278 z"
       id="path5041"
       d="m 391.6014,330.59022 c -3.30155,1.18422 -6.76116,2.1341 -10.26539,1.98265 -1.75212,-0.0757 -3.50102,-0.43179 -5.10421,-1.14271 -1.6032,-0.71093 -3.05763,-1.78394 -4.13143,-3.17052 -1.6527,-2.13411 -2.32766,-4.92851 -2.16224,-7.62267 0.16542,-2.69416 1.123,-5.29514 2.45238,-7.64432 2.65875,-4.69835 6.73879,-8.4159 9.88576,-12.80225 6.2067,-8.65112 8.48599,-19.40321 11.83151,-29.51125 1.67276,-5.05402 3.66035,-10.04562 6.53863,-14.5241 2.87827,-4.47848 6.70073,-8.44558 11.42437,-10.90088 3.62412,-1.88378 7.72221,-2.83657 11.80633,-2.78349 4.08412,0.0531 8.14717,1.10827 11.7593,3.01494 7.22427,3.81332 12.45826,11.07789 14.07116,19.08602 0.98603,4.89567 0.68243,10.01262 -0.60289,14.83837 -1.28533,4.82574 -3.53487,9.36689 -6.36215,13.48349 -5.65455,8.2332 -13.50379,14.69027 -21.52335,20.64394 -9.18088,6.81582 -18.85486,13.19228 -29.61778,17.05278"
       inkscape:connector-curvature="0"
       sodipodi:nodetypes="aaaaaaa" />
    <path
       sodipodi:nodetypes="aaaaa"
       inkscape:connector-curvature="0"
       d="m 383.29433,463.65463 c 0.21008,3.10762 -0.47687,6.25824 -1.87501,9.04151 -1.39815,2.78328 -3.49624,5.19889 -5.99899,7.05299 -5.00549,3.7082 -11.51779,5.07976 -17.715,4.44708 -6.19721,-0.63269 -12.09485,-3.15312 -17.30642,-6.56562 -5.21158,-3.4125 -9.78963,-7.70224 -14.14583,-12.15524 -6.65467,-6.80256 -13.06905,-14.43211 -15.28853,-23.68594 -1.10975,-4.62691 -1.09142,-9.58332 0.49473,-14.0693 1.58614,-4.48598 4.81378,-8.45524 9.0944,-10.53277 3.72798,-1.80931 8.07961,-2.12213 12.14367,-1.31289 4.06406,0.80925 7.85915,2.68866 11.26226,5.05304 6.80623,4.72876 12.0751,11.3203 18.3315,16.75567 4.3331,3.76446 9.1466,6.97944 13.20671,11.03684 2.03006,2.02869 3.86814,4.27053 5.26336,6.77854 1.39522,2.508 2.33958,5.29265 2.53315,8.15609"
       id="path5086"
       inkscape:original-d="m 383.29433,463.65463 c -7.92048,17.29615 -42.6233,14.23095 -57.04125,1.82072 -12.28392,-10.57336 -18.56164,-38.84041 -5.6994,-48.28801 12.53833,-9.20971 29.62359,10.82694 41.73743,20.49582 8.7018,6.9455 25.63881,15.84859 21.00322,25.97147 z"
       inkscape:path-effect="#path-effect5088"
       style="fill:#ffffff;stroke:#000000;stroke-width:30;stroke-linecap:butt;stroke-linejoin:round;stroke-miterlimit:4;stroke-opacity:1;stroke-dasharray:none" />
  </g>
</svg>
